{
.appVersion = "3148";
classes = (
{
automatic = 1;
code = "A Aacute Abreve Acaron Acircumflex Adieresis Agrave Amacron Aogonek Aring Aringacute Atilde AE AEacute B Bdotaccent C Cacute Ccaron Ccedilla Ccircumflex Cdotaccent D Eth Dcaron Dcroat Ddotaccent E Eacute Ebreve Ecaron Ecircumflex Edieresis Edotaccent Egrave Emacron Eogonek Schwa F Fdotaccent G Gbreve Gcaron Gcircumflex Gcommaaccent Gdotaccent H Hbar Hcircumflex I IJ Iacute Ibreve Icaron Icircumflex Idieresis Idotaccent Igrave Imacron Iogonek Itilde J Jcircumflex K Kcommaaccent L Lacute Lcaron Lcommaaccent Ldot Lslash M Mdotaccent N Nacute Ncaron Ncommaaccent Ntilde Eng O Oacute Ocaron Ocircumflex Odieresis Ograve Ohungarumlaut Omacron Oslash Oslashacute Otilde OE P Pdotaccent Thorn Q R Racute Rcaron Rcommaaccent S Sacute Scaron Scedilla Scircumflex Scommaaccent Sdotaccent Germandbls T Tbar Tcaron Tcedilla Tcommaaccent Tdotaccent U Uacute Ubreve Ucaron Ucircumflex Udieresis Ugrave Uhungarumlaut Umacron Uogonek Uring Utilde V W Wacute Wcircumflex Wdieresis Wgrave X Y Yacute Ycircumflex Ydieresis Ygrave Z Zacute Zcaron Zdotaccent T_h.dlig A-cy Be-cy Ve-cy Ge-cy Gheupturn-cy De-cy Ie-cy Zhe-cy Ze-cy Ii-cy Iishort-cy Ka-cy El-cy Em-cy En-cy O-cy Pe-cy Er-cy Es-cy Te-cy U-cy Ef-cy Ha-cy Che-cy Tse-cy Sha-cy Shcha-cy Softsign-cy E-cy I-cy Yi-cy Iu-cy Ia-cy Yi_Yi-cy.liga";
name = Uppercase;
}
);
copyright = "Maksym Kobuzan";
customParameters = (
{
name = license;
value = OFL;
},
{
name = note;
value = "Light    100\012Regular  250\012Medium   500\012Bold     760\012Dark     1000";
}
);
date = "2021-11-25 11:51:49 +0000";
designer = "Maksym Kobuzan";
designerURL = "https://www.behance.net/mkobuzan";
familyName = "Nyght Serif";
featurePrefixes = (
{
automatic = 1;

glyphs = (
{
color = 9;
glyphname = A;
lastChange = "2023-01-13 20:59:42 +0000";
layers = (
{
anchors = (
{
name = ogonek;
position = "{733, 0}";
},
{
name = top;
position = "{372, 712}";
}
);
background = {
paths = (
{
closed = 1;
nodes = (
"87 104 OFFCURVE",
"183 311 CURVE SMOOTH",
"279 517 LINE",
"511 25 LINE",
"427 1 LINE",
"427 0 LINE",
"785 0 LINE",
"785 1 LINE",
"733 25 LINE",
"372 739 LINE",
"371 739 LINE",
"32 25 LINE",
"-20 1 LINE",
"-20 0 LINE",
"279 0 LINE",
"279 1 LINE",
"244 9 LINE SMOOTH",
"132 35 OFFCURVE"
);
},
{
closed = 1;
nodes = (
"414 270 LINE",
"411 282 LINE",
"160 282 LINE",
"158 270 LINE"
);
}
);
};
layerId = "5ECA14C9-9880-4A66-8675-45EB4FCF3EF2";
paths = (
{
closed = 1;
nodes = (
"-15 5 LINE",
"-15 0 LINE",
"263 0 LINE",
"263 5 LINE",
"237 10 LINE SMOOTH",
"129 31 OFFCURVE",
"86 107 OFFCURVE",
"183 314 CURVE SMOOTH",
"273 505 LINE",
"511 25 LINE",
"432 5 LINE",
"432 0 LINE",
"780 0 LINE",
"780 5 LINE",
"733 25 LINE",
"375 739 LINE",
"370 739 LINE",
"32 25 LINE"
);
},
{
closed = 1;
nodes = (
"414 270 LINE",
"411 282 LINE",
"160 282 LINE",
"158 270 LINE"
);
}
);
width = 765;
}
);
leftKerningGroup = A;
rightKerningGroup = A;
unicode = 0041;
},
{
color = 5;
glyphname = Aogonek;
lastChange = "2022-11-11 10:35:07 +0000";
layers = (
{
anchors = (
{
name = ogonek;
position = "{763, 0}";
},
{
name = top;
position = "{382, 712}";
}
);
background = {
paths = (
{
closed = 1;
nodes = (
"654 -45 OFFCURVE",
"577 -95 OFFCURVE",
"577 -151 CURVE SMOOTH",
"577 -194 OFFCURVE",
"622 -237 OFFCURVE",
"681 -237 CURVE SMOOTH",
"740 -237 OFFCURVE",
"791 -192 OFFCURVE",
"826 -154 CURVE",
"826 -147 LINE",
"813 -156 OFFCURVE",
"797 -165 OFFCURVE",
"775 -165 CURVE SMOOTH",
"732 -165 OFFCURVE",
"702 -141 OFFCURVE",
"702 -89 CURVE SMOOTH",
"702 -51 OFFCURVE",
"718 -24 OFFCURVE",
"739 4 CURVE",
"730 4 LINE"
);
}
);
};
layerId = "5ECA14C9-9880-4A66-8675-45EB4FCF3EF2";
paths = (
{
closed = 1;
nodes = (
"129 31 OFFCURVE",
"86 107 OFFCURVE",
"183 314 CURVE SMOOTH",
"273 505 LINE",
"511 25 LINE",
"432 5 LINE",
"432 0 LINE",
"780 0 LINE",
"780 5 LINE",
"733 25 LINE",
"375 739 LINE",
"370 739 LINE",
"32 25 LINE",
"-15 5 LINE",
"-15 0 LINE",
"263 0 LINE",
"263 5 LINE",
"237 10 LINE SMOOTH"
);
},
{
closed = 1;
nodes = (
"414 270 LINE",
"411 282 LINE",
"160 282 LINE",
"158 270 LINE"
);
},
{
closed = 1;
nodes = (
"719 -2 LINE",
"646 -49 OFFCURVE",
"577 -95 OFFCURVE",
"577 -151 CURVE SMOOTH",
"577 -194 OFFCURVE",
"618 -237 OFFCURVE",
"677 -237 CURVE SMOOTH",
"738 -237 OFFCURVE",
"789 -192 OFFCURVE",
"824 -154 CURVE",
"824 -147 LINE",
"811 -156 OFFCURVE",
"795 -165 OFFCURVE",
"773 -165 CURVE SMOOTH",
"730 -165 OFFCURVE",
"700 -141 OFFCURVE",
"700 -89 CURVE SMOOTH",
"700 -51 OFFCURVE",
"716 -24 OFFCURVE",
"734 0 CURVE",
"719 12 LINE"
);
}
);
width = 765;
}
);
leftKerningGroup = A;
rightKerningGroup = A;
unicode = 0104;
},
{
color = 9;
glyphname = Aringacute;
lastChange = "2022-12-03 12:32:35 +0000";
layers = (
{
anchors = (
{
name = ogonek;
position = "{763, 0}";
},
{
name = top;
position = "{382, 712}";
}
);
background = {
paths = (
{
closed = 1;
nodes = (
"453 735 OFFCURVE",
"500 785 OFFCURVE",
"500 841 CURVE SMOOTH",
"500 901 OFFCURVE",
"454 948 OFFCURVE",
"387 950 CURVE",
"585 1121 LINE",
"585 1122 LINE",
"404 1122 LINE",
"381 950 LINE",
"310 949 OFFCURVE",
"263 902 OFFCURVE",
"263 841 CURVE SMOOTH",
"263 783 OFFCURVE",
"309 736 OFFCURVE",
"379 734 CURVE",
"22 25 LINE",
"-30 1 LINE",
"-30 0 LINE",
"279 0 LINE",
"279 1 LINE",
"268 4 LINE SMOOTH",
"162 33 OFFCURVE",
"116 78 OFFCURVE",
"170 252 CURVE",
"422 252 LINE",
"541 25 LINE",
"457 1 LINE",
"457 0 LINE",
"815 0 LINE",
"815 1 LINE",
"763 25 LINE",
"385 734 LINE"
);
},
{
closed = 1;
nodes = (
"268 899 OFFCURVE",
"314 945 OFFCURVE",
"382 945 CURVE SMOOTH",
"449 945 OFFCURVE",
"495 899 OFFCURVE",
"495 841 CURVE SMOOTH",
"495 786 OFFCURVE",
"449 739 OFFCURVE",
"382 739 CURVE SMOOTH",
"314 739 OFFCURVE",
"268 785 OFFCURVE",
"268 841 CURVE SMOOTH"
);
},
{
closed = 1;
nodes = (
"419 258 LINE",
"172 258 LINE",
"183 292 OFFCURVE",
"197 330 OFFCURVE",
"215 374 CURVE SMOOTH",
"278 526 LINE"
);
}
);
};
components = (
{
name = A;
}
);
layerId = "5ECA14C9-9880-4A66-8675-45EB4FCF3EF2";
paths = (
{
closed = 1;
nodes = (
"442 734 OFFCURVE",
"490 784 OFFCURVE",
"490 841 CURVE SMOOTH",
"490 902 OFFCURVE",
"442 950 OFFCURVE",
"372 950 CURVE SMOOTH",
"301 950 OFFCURVE",
"253 902 OFFCURVE",
"253 841 CURVE SMOOTH",
"253 782 OFFCURVE",
"301 734 OFFCURVE",
"372 734 CURVE SMOOTH"
);
},
{
closed = 1;
nodes = (
"308 745 OFFCURVE",
"264 788 OFFCURVE",
"264 841 CURVE SMOOTH",
"264 896 OFFCURVE",
"308 939 OFFCURVE",
"372 939 CURVE SMOOTH",
"435 939 OFFCURVE",
"479 896 OFFCURVE",
"479 841 CURVE SMOOTH",
"479 789 OFFCURVE",
"435 745 OFFCURVE",
"372 745 CURVE SMOOTH"
);
},
{
closed = 1;
nodes = (
"372 945 LINE",
"458 996 OFFCURVE",
"542 1065 OFFCURVE",
"581 1117 CURVE",
"581 1122 LINE",
"410 1122 LINE",
"405 1067 OFFCURVE",
"391 1002 OFFCURVE",
"367 945 CURVE"
);
}
);
width = 765;
}
);
leftKerningGroup = A;
leftMetricsKey = A;
rightKerningGroup = A;
rightMetricsKey = A;
unicode = 01FA;
},
{
color = 9;
glyphname = AE;
lastChange = "2023-01-13 20:59:42 +0000";
layers = (
{
anchors = (
{
name = top;
position = "{552, 712}";
}
);
background = {
paths = (
{
closed = 1;
nodes = (
"251 0 LINE",
"251 1 LINE",
"216 7 LINE SMOOTH",
"81 30 OFFCURVE",
"59 77 OFFCURVE",
"191 287 CURVE",
"460 287 LINE",
"460 25 LINE",
"383 1 LINE",
"383 0 LINE",
"945 0 LINE",
"984 257 LINE",
"983 257 LINE",
"972 226 LINE SMOOTH",
"927 98 OFFCURVE",
"838 16 OFFCURVE",
"663 3 CURVE",
"663 3 LINE",
"663 366 LINE",
"663 366 LINE",
"739 359 OFFCURVE",
"787 308 OFFCURVE",
"812 202 CURVE",
"813 202 LINE",
"813 523 LINE",
"812 523 LINE",
"787 429 OFFCURVE",
"739 379 OFFCURVE",
"663 371 CURVE",
"663 371 LINE",
"663 709 LINE",
"663 709 LINE",
"794 707 OFFCURVE",
"865 645 OFFCURVE",
"911 538 CURVE SMOOTH",
"924 508 LINE",
"925 508 LINE",
"893 780 LINE",
"892 780 LINE",
"880 712 LINE",
"333 712 LINE",
"333 711 LINE",
"455 688 LINE",
"-25 25 LINE",
"-69 1 LINE",
"-69 0 LINE"
);
},
{
closed = 1;
nodes = (
"459 687 LINE",
"460 687 LINE",
"460 293 LINE",
"195 293 LINE"
);
}
);
};
layerId = "5ECA14C9-9880-4A66-8675-45EB4FCF3EF2";
paths = (
{
closed = 1;
nodes = (
"460 284 LINE",
"460 25 LINE",
"413 1 LINE",
"413 0 LINE",
"593 0 LINE",
"593 712 LINE",
"353 712 LINE",
"353 707 LINE",
"445 688 LINE",
"-1 25 LINE",
"-45 5 LINE",
"-45 0 LINE",
"235 0 LINE",
"235 5 LINE",
"210 11 LINE SMOOTH",
"81 42 OFFCURVE",
"60 89 OFFCURVE",
"194 290 CURVE SMOOTH",
"456 683 LINE",
"460 683 LINE",
"460 296 LINE",
"194 296 LINE",
"190 284 LINE"
);
},
{
closed = 1;
nodes = (
"935 91 OFFCURVE",
"846 18 OFFCURVE",
"663 11 CURVE",
"663 11 LINE",
"663 363 LINE",
"663 363 LINE",
"749 358 OFFCURVE",
"797 310 OFFCURVE",
"819 202 CURVE",
"824 202 LINE",
"824 523 LINE",
"819 523 LINE",
"797 427 OFFCURVE",
"749 379 OFFCURVE",
"663 373 CURVE",
"663 373 LINE",
"663 701 LINE",
"663 701 LINE",
"802 701 OFFCURVE",
"875 646 OFFCURVE",
"918 534 CURVE SMOOTH",
"928 508 LINE",
"933 508 LINE",
"901 770 LINE",
"896 770 LINE",
"883 712 LINE",
"393 712 LINE",
"393 707 LINE",
"460 686 LINE",
"460 25 LINE",
"393 5 LINE",
"393 0 LINE",
"953 0 LINE",
"992 257 LINE",
"986 257 LINE",
"977 228 LINE SMOOTH"
);
}
);
width = 1002;
}
);
leftKerningGroup = AE;
rightKerningGroup = E;
rightMetricsKey = E;
unicode = 00C6;
},
{
color = 9;
glyphname = B;
lastChange = "2023-01-13 20:59:42 +0000";
layers = (
{
anchors = (
{
name = top;
position = "{334, 712}";
}
);
background = {
paths = (
{
closed = 1;
nodes = (
"557 498 OFFCURVE",
"622 548 OFFCURVE",
"622 591 CURVE SMOOTH",
"622 642 OFFCURVE",
"545 712 OFFCURVE",
"300 712 CURVE SMOOTH",
"15 712 LINE",
"15 711 LINE",
"92 687 LINE",
"92 25 LINE",
"15 1 LINE",
"15 0 LINE",
"300 0 LINE SMOOTH",
"567 0 OFFCURVE",
"685 123 OFFCURVE",
"685 235 CURVE SMOOTH",
"685 347 OFFCURVE",
"563 423 OFFCURVE",
"439 450 CURVE",
"439 452 LINE"
);
},
{
closed = 1;
nodes = (
"389 701 OFFCURVE",
"448 651 OFFCURVE",
"448 554 CURVE SMOOTH",
"448 465 OFFCURVE",
"410 413 OFFCURVE",
"393 391 CURVE",
"290 391 LINE",
"290 701 LINE",
"310 701 LINE SMOOTH"
);
},
{
closed = 1;
nodes = (
"290 380 LINE",
"336 380 LINE SMOOTH",
"419 380 OFFCURVE",
"486 302 OFFCURVE",
"486 196 CURVE SMOOTH",
"486 72 OFFCURVE",
"424 11 OFFCURVE",
"309 11 CURVE SMOOTH",
"290 11 LINE"
);
}
);
};
layerId = "5ECA14C9-9880-4A66-8675-45EB4FCF3EF2";
paths = (
{
closed = 1;
nodes = (
"545 488 OFFCURVE",
"624 534 OFFCURVE",
"624 594 CURVE SMOOTH",
"624 650 OFFCURVE",
"555 712 OFFCURVE",
"336 712 CURVE SMOOTH",
"15 712 LINE",
"15 707 LINE",
"82 687 LINE",
"82 25 LINE",
"15 5 LINE",
"15 0 LINE",
"360 0 LINE SMOOTH",
"593 0 OFFCURVE",
"687 95 OFFCURVE",
"687 217 CURVE SMOOTH",
"687 357 OFFCURVE",
"561 425 OFFCURVE",
"441 450 CURVE",
"441 452 LINE"
);
},
{
closed = 1;
nodes = (
"393 701 OFFCURVE",
"448 658 OFFCURVE",
"448 554 CURVE SMOOTH",
"448 468 OFFCURVE",
"408 413 OFFCURVE",
"391 391 CURVE",
"284 391 LINE",
"284 701 LINE",
"328 701 LINE SMOOTH"
);
},
{
closed = 1;
nodes = (
"284 380 LINE",
"334 380 LINE SMOOTH",
"411 380 OFFCURVE",
"486 318 OFFCURVE",
"486 184 CURVE SMOOTH",
"486 70 OFFCURVE",
"432 11 OFFCURVE",
"343 11 CURVE SMOOTH",
"284 11 LINE"
);
}
);
width = 712;
}
);
leftKerningGroup = H;
leftMetricsKey = H;
rightKerningGroup = B;
unicode = 0042;
},
{
color = 9;
glyphname = C;
lastChange = "2023-01-13 20:59:42 +0000";
layers = (
{
anchors = (
{
name = bottom;
position = "{437, 0}";
},
{
name = top;
position = "{425, 712}";
}
);
background = {
paths = (
{
closed = 1;
nodes = (
"30 137 OFFCURVE",
"189 -12 OFFCURVE",
"482 -12 CURVE SMOOTH",
"579 -12 OFFCURVE",
"665 8 OFFCURVE",
"703 17 CURVE",
"726 292 LINE",
"725 292 LINE",
"686 167 OFFCURVE",
"592 -1 OFFCURVE",
"502 -1 CURVE SMOOTH",
"386 -1 OFFCURVE",
"261 159 OFFCURVE",
"261 405 CURVE SMOOTH",
"261 614 OFFCURVE",
"366 713 OFFCURVE",
"454 713 CURVE SMOOTH",
"537 713 OFFCURVE",
"631 608 OFFCURVE",
"686 508 CURVE",
"687 508 LINE",
"645 780 LINE",
"644 780 LINE",
"640 705 LINE",
"599 712 OFFCURVE",
"533 724 OFFCURVE",
"456 724 CURVE SMOOTH",
"213 724 OFFCURVE",
"30 557 OFFCURVE",
"30 346 CURVE SMOOTH"
);
}
);
};
layerId = "5ECA14C9-9880-4A66-8675-45EB4FCF3EF2";
paths = (
{
closed = 1;
nodes = (
"30 134 OFFCURVE",
"189 -15 OFFCURVE",
"482 -15 CURVE SMOOTH",
"579 -15 OFFCURVE",
"665 5 OFFCURVE",
"703 14 CURVE",
"726 279 LINE",
"720 279 LINE",
"684 164 OFFCURVE",
"594 -4 OFFCURVE",
"496 -4 CURVE SMOOTH",
"380 -4 OFFCURVE",
"261 156 OFFCURVE",
"261 399 CURVE SMOOTH",
"261 615 OFFCURVE",
"358 716 OFFCURVE",
"452 716 CURVE SMOOTH",
"545 716 OFFCURVE",
"629 613 OFFCURVE",
"682 508 CURVE",
"687 508 LINE",
"645 770 LINE",
"640 770 LINE",
"631 707 LINE",
"597 714 OFFCURVE",
"523 727 OFFCURVE",
"454 727 CURVE SMOOTH",
"213 727 OFFCURVE",
"30 564 OFFCURVE",
"30 344 CURVE SMOOTH"
);
}
);
width = 751;
}
);
leftKerningGroup = O;
leftMetricsKey = O;
rightKerningGroup = C;
unicode = 0043;
},
{
color = 9;
glyphname = D;
lastChange = "2023-01-13 20:59:42 +0000";
layers = (
{
anchors = (
{
name = top;
position = "{409, 712}";
}
);
background = {
paths = (
{
closed = 1;
nodes = (
"351 0 LINE SMOOTH",
"670 0 OFFCURVE",
"847 186 OFFCURVE",
"847 371 CURVE SMOOTH",
"847 558 OFFCURVE",
"683 712 OFFCURVE",
"327 712 CURVE SMOOTH",
"15 712 LINE",
"15 707 LINE",
"82 687 LINE",
"82 25 LINE",
"15 5 LINE",
"15 0 LINE"
);
},
{
closed = 1;
nodes = (
"286 701 LINE",
"298 701 LINE SMOOTH",
"495 701 OFFCURVE",
"625 569 OFFCURVE",
"625 351 CURVE SMOOTH",
"625 113 OFFCURVE",
"492 11 OFFCURVE",
"312 11 CURVE SMOOTH",
"286 11 LINE"
);
}
);
};
layerId = "5ECA14C9-9880-4A66-8675-45EB4FCF3EF2";
paths = (
{
closed = 1;
nodes = (
"393 0 LINE SMOOTH",
"680 0 OFFCURVE",
"847 156 OFFCURVE",
"847 367 CURVE SMOOTH",
"847 568 OFFCURVE",
"677 712 OFFCURVE",
"353 712 CURVE SMOOTH",
"15 712 LINE",
"15 707 LINE",
"82 687 LINE",
"82 25 LINE",
"15 5 LINE",
"15 0 LINE"
);
},
{
closed = 1;
nodes = (
"286 701 LINE",
"344 701 LINE SMOOTH",
"495 701 OFFCURVE",
"625 605 OFFCURVE",
"625 351 CURVE SMOOTH",
"625 103 OFFCURVE",
"492 11 OFFCURVE",
"374 11 CURVE SMOOTH",
"286 11 LINE"
);
}
);
width = 872;
}
);
leftKerningGroup = H;
leftMetricsKey = H;
rightKerningGroup = D;
unicode = 0044;
},
{
color = 9;
glyphname = Eth;
lastChange = "2023-01-13 20:59:42 +0000";
layers = (
{
anchors = (
{
name = top;
position = "{409, 712}";
}
);
background = {
paths = (
{
closed = 1;
nodes = (
"351 0 LINE SMOOTH",
"670 0 OFFCURVE",
"847 186 OFFCURVE",
"847 371 CURVE SMOOTH",
"847 558 OFFCURVE",
"683 712 OFFCURVE",
"327 712 CURVE SMOOTH",
"15 712 LINE",
"15 707 LINE",
"82 687 LINE",
"82 25 LINE",
"15 5 LINE",
"15 0 LINE"
);
},
{
closed = 1;
nodes = (
"286 701 LINE",
"298 701 LINE SMOOTH",
"495 701 OFFCURVE",
"625 569 OFFCURVE",
"625 351 CURVE SMOOTH",
"625 113 OFFCURVE",
"492 11 OFFCURVE",
"312 11 CURVE SMOOTH",
"286 11 LINE"
);
},
{
closed = 1;
nodes = (
"15 377 LINE",
"433 377 LINE",
"433 389 LINE",
"15 389 LINE"
);
}
);
};
layerId = "5ECA14C9-9880-4A66-8675-45EB4FCF3EF2";
paths = (
{
closed = 1;
nodes = (
"393 0 LINE SMOOTH",
"680 0 OFFCURVE",
"847 156 OFFCURVE",
"847 367 CURVE SMOOTH",
"847 568 OFFCURVE",
"677 712 OFFCURVE",
"353 712 CURVE SMOOTH",
"15 712 LINE",
"15 707 LINE",
"82 687 LINE",
"82 25 LINE",
"15 5 LINE",
"15 0 LINE"
);
},
{
closed = 1;
nodes = (
"286 701 LINE",
"344 701 LINE SMOOTH",
"495 701 OFFCURVE",
"625 605 OFFCURVE",
"625 351 CURVE SMOOTH",
"625 103 OFFCURVE",
"492 11 OFFCURVE",
"374 11 CURVE SMOOTH",
"286 11 LINE"
);
},
{
closed = 1;
nodes = (
"15 377 LINE",
"433 377 LINE",
"433 389 LINE",
"15 389 LINE"
);
}
);
width = 872;
}
);
leftKerningGroup = H;
leftMetricsKey = D;
rightKerningGroup = D;
rightMetricsKey = D;
unicode = 00D0;
},
{
color = 9;
glyphname = E;
lastChange = "2023-01-13 20:59:42 +0000";
layers = (
{
anchors = (
{
name = bottom;
position = "{277, 0}";
},
{
name = ogonek;
position = "{572, 0}";
},
{
name = top;
position = "{297, 712}";
}
);
background = {
paths = (
{
closed = 1;
nodes = (
"557 98 OFFCURVE",
"468 18 OFFCURVE",
"285 11 CURVE",
"285 11 LINE",
"285 363 LINE",
"285 363 LINE",
"369 358 OFFCURVE",
"417 308 OFFCURVE",
"442 202 CURVE",
"443 202 LINE",
"443 523 LINE",
"442 523 LINE",
"417 429 OFFCURVE",
"369 379 OFFCURVE",
"285 373 CURVE",
"285 373 LINE",
"285 701 LINE",
"285 701 LINE",
"422 701 OFFCURVE",
"496 642 OFFCURVE",
"541 538 CURVE SMOOTH",
"554 508 LINE",
"555 508 LINE",
"523 780 LINE",
"522 780 LINE",
"510 712 LINE",
"5 712 LINE",
"5 711 LINE",
"82 687 LINE",
"82 25 LINE",
"5 1 LINE",
"5 0 LINE",
"575 0 LINE",
"614 257 LINE",
"613 257 LINE",
"602 226 LINE SMOOTH"
);
}
);
};
guideLines = (
{
angle = 81.3557;
position = "{64, 76}";
}
);
layerId = "5ECA14C9-9880-4A66-8675-45EB4FCF3EF2";
paths = (
{
closed = 1;
nodes = (
"557 91 OFFCURVE",
"468 18 OFFCURVE",
"285 11 CURVE",
"285 11 LINE",
"285 363 LINE",
"285 363 LINE",
"371 358 OFFCURVE",
"419 310 OFFCURVE",
"441 202 CURVE",
"446 202 LINE",
"446 523 LINE",
"441 523 LINE",
"419 427 OFFCURVE",
"371 379 OFFCURVE",
"285 373 CURVE",
"285 373 LINE",
"285 701 LINE",
"285 701 LINE",
"424 701 OFFCURVE",
"497 646 OFFCURVE",
"540 534 CURVE SMOOTH",
"550 508 LINE",
"555 508 LINE",
"523 770 LINE",
"518 770 LINE",
"505 712 LINE",
"15 712 LINE",
"15 707 LINE",
"82 687 LINE",
"82 25 LINE",
"15 5 LINE",
"15 0 LINE",
"575 0 LINE",
"614 257 LINE",
"608 257 LINE",
"599 228 LINE SMOOTH"
);
}
);
width = 624;
}
);
leftKerningGroup = H;
leftMetricsKey = H;
rightKerningGroup = E;
unicode = 0045;
},
{
color = 5;
glyphname = Eogonek;
lastChange = "2022-11-11 10:35:07 +0000";
layers = (
{
anchors = (
{
name = _ogonek;
position = "{511, 0}";
},
{
name = bottom;
position = "{248, 0}";
},
{
name = ogonek;
position = "{511, 0}";
},
{
name = top;
position = "{268, 712}";
}
);
background = {
paths = (
{
closed = 1;
nodes = (
"557 91 OFFCURVE",
"468 18 OFFCURVE",
"285 11 CURVE",
"285 11 LINE",
"285 363 LINE",
"285 363 LINE",
"371 358 OFFCURVE",
"419 310 OFFCURVE",
"441 202 CURVE",
"446 202 LINE",
"446 523 LINE",
"441 523 LINE",
"419 427 OFFCURVE",
"371 379 OFFCURVE",
"285 373 CURVE",
"285 373 LINE",
"285 701 LINE",
"285 701 LINE",
"424 701 OFFCURVE",
"497 646 OFFCURVE",
"540 534 CURVE SMOOTH",
"550 508 LINE",
"555 508 LINE",
"523 770 LINE",
"518 770 LINE",
"505 712 LINE",
"15 712 LINE",
"15 707 LINE",
"82 687 LINE",
"82 25 LINE",
"15 5 LINE",
"15 0 LINE",
"575 0 LINE",
"614 257 LINE",
"608 257 LINE",
"599 228 LINE SMOOTH"
);
},
{
closed = 1;
nodes = (
"493 -45 OFFCURVE",
"416 -95 OFFCURVE",
"416 -151 CURVE SMOOTH",
"416 -194 OFFCURVE",
"461 -237 OFFCURVE",
"520 -237 CURVE SMOOTH",
"579 -237 OFFCURVE",
"630 -192 OFFCURVE",
"665 -154 CURVE",
"665 -147 LINE",
"652 -156 OFFCURVE",
"636 -165 OFFCURVE",
"614 -165 CURVE SMOOTH",
"571 -165 OFFCURVE",
"541 -141 OFFCURVE",
"541 -89 CURVE SMOOTH",
"541 -51 OFFCURVE",
"557 -24 OFFCURVE",
"578 4 CURVE",
"569 4 LINE"
);
}
);
};
layerId = "5ECA14C9-9880-4A66-8675-45EB4FCF3EF2";
paths = (
{
closed = 1;
nodes = (
"557 91 OFFCURVE",
"468 18 OFFCURVE",
"285 11 CURVE",
"285 11 LINE",
"285 363 LINE",
"285 363 LINE",
"371 358 OFFCURVE",
"419 310 OFFCURVE",
"441 202 CURVE",
"446 202 LINE",
"446 523 LINE",
"441 523 LINE",
"419 427 OFFCURVE",
"371 379 OFFCURVE",
"285 373 CURVE",
"285 373 LINE",
"285 701 LINE",
"285 701 LINE",
"424 701 OFFCURVE",
"497 646 OFFCURVE",
"540 534 CURVE SMOOTH",
"550 508 LINE",
"555 508 LINE",
"523 770 LINE",
"518 770 LINE",
"505 712 LINE",
"15 712 LINE",
"15 707 LINE",
"82 687 LINE",
"82 25 LINE",
"15 5 LINE",
"15 0 LINE",
"575 0 LINE",
"614 257 LINE",
"608 257 LINE",
"599 228 LINE SMOOTH"
);
},
{
closed = 1;
nodes = (
"560 -2 LINE",
"487 -49 OFFCURVE",
"418 -95 OFFCURVE",
"418 -151 CURVE SMOOTH",
"418 -194 OFFCURVE",
"459 -237 OFFCURVE",
"518 -237 CURVE SMOOTH",
"579 -237 OFFCURVE",
"630 -192 OFFCURVE",
"665 -154 CURVE",
"665 -147 LINE",
"652 -156 OFFCURVE",
"636 -165 OFFCURVE",
"614 -165 CURVE SMOOTH",
"571 -165 OFFCURVE",
"541 -141 OFFCURVE",
"541 -89 CURVE SMOOTH",
"541 -51 OFFCURVE",
"557 -24 OFFCURVE",
"575 0 CURVE",
"560 12 LINE"
);
}
);
width = 624;
}
);
leftKerningGroup = H;
rightKerningGroup = E;
unicode = 0118;
},
{
color = 3;
glyphname = Schwa;
lastChange = "2023-01-13 20:59:42 +0000";
layers = (
{
background = {
paths = (
{
closed = 1;
nodes = (
"285 724 OFFCURVE",
"195 709 OFFCURVE",
"147 701 CURVE",
"147 780 LINE",
"146 780 LINE",
"73 493 LINE",
"74 493 LINE",
"203 649 OFFCURVE",
"273 719 OFFCURVE",
"347 719 CURVE SMOOTH",
"426 719 OFFCURVE",
"546 597 OFFCURVE",
"546 357 CURVE SMOOTH",
"546 337 OFFCURVE",
"545 315 OFFCURVE",
"543 295 CURVE",
"25 295 LINE",
"25 295 LINE SMOOTH",
"32 98 OFFCURVE",
"145 -12 OFFCURVE",
"341 -12 CURVE SMOOTH",
"594 -12 OFFCURVE",
"770 159 OFFCURVE",
"770 368 CURVE SMOOTH",
"770 573 OFFCURVE",
"611 724 OFFCURVE",
"358 724 CURVE SMOOTH"
);
},
{
closed = 1;
nodes = (
"302 -7 OFFCURVE",
"253 68 OFFCURVE",
"250 264 CURVE",
"543 292 LINE",
"523 105 OFFCURVE",
"424 -7 OFFCURVE",
"355 -7 CURVE SMOOTH"
);
}
);
};
layerId = "5ECA14C9-9880-4A66-8675-45EB4FCF3EF2";
paths = (
{
closed = 1;
nodes = (
"25 295 LINE",
"25 295 LINE SMOOTH",
"32 99 OFFCURVE",
"168 -15 OFFCURVE",
"371 -15 CURVE SMOOTH",
"600 -15 OFFCURVE",
"770 148 OFFCURVE",
"770 366 CURVE SMOOTH",
"770 580 OFFCURVE",
"597 727 OFFCURVE",
"339 727 CURVE SMOOTH",
"256 727 OFFCURVE",
"188 712 OFFCURVE",
"149 703 CURVE",
"145 770 LINE",
"140 770 LINE",
"83 509 LINE",
"88 509 LINE",
"155 619 OFFCURVE",
"246 716 OFFCURVE",
"339 716 CURVE SMOOTH",
"435 716 OFFCURVE",
"544 604 OFFCURVE",
"544 347 CURVE SMOOTH",
"544 148 OFFCURVE",
"478 -4 OFFCURVE",
"383 -4 CURVE SMOOTH",
"310 -4 OFFCURVE",
"253 69 OFFCURVE",
"244 272 CURVE",
"573 286 LINE",
"573 295 LINE"
);
}
);
width = 800;
}
);
leftKerningGroup = Schwa;
rightKerningGroup = O;
rightMetricsKey = O;
unicode = 018F;
},
{
color = 9;
glyphname = F;
lastChange = "2023-01-13 20:59:42 +0000";
layers = (
{
anchors = (
{
name = top;
position = "{298, 712}";
}
);
background = {
paths = (
{
closed = 1;
nodes = (
"375 0 LINE",
"375 1 LINE",
"286 25 LINE",
"286 348 LINE",
"286 348 LINE",
"367 343 OFFCURVE",
"415 292 OFFCURVE",
"440 185 CURVE",
"441 185 LINE",
"441 508 LINE",
"440 508 LINE",
"415 413 OFFCURVE",
"367 363 OFFCURVE",
"286 357 CURVE",
"286 357 LINE",
"286 701 LINE",
"286 701 LINE",
"420 701 OFFCURVE",
"494 642 OFFCURVE",
"539 538 CURVE SMOOTH",
"552 508 LINE",
"553 508 LINE",
"521 780 LINE",
"520 780 LINE",
"508 712 LINE",
"5 712 LINE",
"5 711 LINE",
"82 687 LINE",
"82 25 LINE",
"5 1 LINE",
"5 0 LINE"
);
}
);
};
layerId = "5ECA14C9-9880-4A66-8675-45EB4FCF3EF2";
paths = (
{
closed = 1;
nodes = (
"365 0 LINE",
"365 5 LINE",
"286 25 LINE",
"286 348 LINE",
"286 348 LINE",
"369 343 OFFCURVE",
"417 294 OFFCURVE",
"440 185 CURVE",
"445 185 LINE",
"445 508 LINE",
"440 508 LINE",
"417 411 OFFCURVE",
"369 363 OFFCURVE",
"286 357 CURVE",
"286 357 LINE",
"286 701 LINE",
"286 701 LINE",
"422 701 OFFCURVE",
"495 646 OFFCURVE",
"538 534 CURVE SMOOTH",
"548 508 LINE",
"553 508 LINE",
"521 770 LINE",
"516 770 LINE",
"503 712 LINE",
"15 712 LINE",
"15 707 LINE",
"82 687 LINE",
"82 25 LINE",
"15 5 LINE",
"15 0 LINE"
);
}
);
width = 568;
}
);
leftKerningGroup = H;
leftMetricsKey = H;
rightKerningGroup = F;
unicode = 0046;
},
{
color = 9;
glyphname = G;
lastChange = "2023-01-13 20:59:42 +0000";
layers = (
{
anchors = (
{
name = bottom;
position = "{437, 0}";
},
{
name = top;
position = "{425, 712}";
}
);
background = {
paths = (
{
closed = 1;
nodes = (
"30 137 OFFCURVE",
"189 -12 OFFCURVE",
"446 -12 CURVE SMOOTH",
"567 -12 OFFCURVE",
"663 25 OFFCURVE",
"790 67 CURVE",
"790 68 LINE",
"730 68 LINE",
"730 270 LINE",
"794 294 LINE",
"794 295 LINE",
"436 295 LINE",
"436 294 LINE",
"530 270 LINE",
"530 39 LINE",
"511 19 OFFCURVE",
"490 -1 OFFCURVE",
"461 -1 CURVE SMOOTH",
"390 -1 OFFCURVE",
"261 140 OFFCURVE",
"261 403 CURVE SMOOTH",
"261 614 OFFCURVE",
"366 713 OFFCURVE",
"454 713 CURVE SMOOTH",
"537 713 OFFCURVE",
"633 608 OFFCURVE",
"689 508 CURVE",
"690 508 LINE",
"647 780 LINE",
"646 780 LINE",
"642 705 LINE",
"602 711 OFFCURVE",
"534 724 OFFCURVE",
"456 724 CURVE SMOOTH",
"213 724 OFFCURVE",
"30 557 OFFCURVE",
"30 346 CURVE SMOOTH"
);
}
);
};
layerId = "5ECA14C9-9880-4A66-8675-45EB4FCF3EF2";
paths = (
{
closed = 1;
nodes = (
"30 134 OFFCURVE",
"189 -15 OFFCURVE",
"446 -15 CURVE SMOOTH",
"567 -15 OFFCURVE",
"653 21 OFFCURVE",
"775 62 CURVE",
"775 67 LINE",
"730 67 LINE",
"730 270 LINE",
"784 290 LINE",
"784 295 LINE",
"436 295 LINE",
"436 290 LINE",
"530 270 LINE",
"530 35 LINE",
"512 16 OFFCURVE",
"494 -4 OFFCURVE",
"463 -4 CURVE SMOOTH",
"383 -4 OFFCURVE",
"261 137 OFFCURVE",
"261 397 CURVE SMOOTH",
"261 615 OFFCURVE",
"358 716 OFFCURVE",
"452 716 CURVE SMOOTH",
"545 716 OFFCURVE",
"629 613 OFFCURVE",
"685 508 CURVE",
"690 508 LINE",
"647 770 LINE",
"642 770 LINE",
"633 707 LINE",
"601 713 OFFCURVE",
"528 727 OFFCURVE",
"454 727 CURVE SMOOTH",
"213 727 OFFCURVE",
"30 564 OFFCURVE",
"30 344 CURVE SMOOTH"
);
}
);
width = 784;
}
);
leftKerningGroup = O;
leftMetricsKey = O;
rightKerningGroup = G;
unicode = 0047;
},
{
color = 9;
glyphname = H;
lastChange = "2023-01-13 20:59:42 +0000";
layers = (
{
anchors = (
{
name = top;
position = "{414, 713}";
}
);
background = {
paths = (
{
closed = 1;
nodes = (
"464 712 LINE",
"464 711 LINE",
"541 687 LINE",
"541 389 LINE",
"286 389 LINE",
"286 687 LINE",
"363 711 LINE",
"363 712 LINE",
"5 712 LINE",
"5 711 LINE",
"82 687 LINE",
"82 25 LINE",
"5 1 LINE",
"5 0 LINE",
"363 0 LINE",
"363 1 LINE",
"286 25 LINE",
"286 377 LINE",
"541 377 LINE",
"541 25 LINE",
"464 1 LINE",
"464 0 LINE",
"822 0 LINE",
"822 1 LINE",
"745 25 LINE",
"745 687 LINE",
"822 711 LINE",
"822 712 LINE"
);
}
);
};
layerId = "5ECA14C9-9880-4A66-8675-45EB4FCF3EF2";
paths = (
{
closed = 1;
nodes = (
"474 712 LINE",
"474 707 LINE",
"541 687 LINE",
"541 389 LINE",
"286 389 LINE",
"286 687 LINE",
"353 707 LINE",
"353 712 LINE",
"15 712 LINE",
"15 707 LINE",
"82 687 LINE",
"82 25 LINE",
"15 5 LINE",
"15 0 LINE",
"353 0 LINE",
"353 5 LINE",
"286 25 LINE",
"286 377 LINE",
"541 377 LINE",
"541 25 LINE",
"474 5 LINE",
"474 0 LINE",
"812 0 LINE",
"812 5 LINE",
"745 25 LINE",
"745 687 LINE",
"812 707 LINE",
"812 712 LINE"
);
}
);
width = 827;
}
);
leftKerningGroup = H;
rightKerningGroup = H;
unicode = 0048;
},
{
color = 3;
glyphname = Hbar;
lastChange = "2023-01-13 20:59:42 +0000";
layers = (
{
anchors = (
{
name = top;
position = "{440, 713}";
}
);
background = {
paths = (
{
closed = 1;
nodes = (
"515 712 LINE",
"515 711 LINE",
"592 687 LINE",
"592 557 LINE",
"287 557 LINE",
"287 687 LINE",
"364 711 LINE",
"364 712 LINE",
"6 712 LINE",
"6 711 LINE",
"83 687 LINE",
"83 557 LINE",
"6 557 LINE",
"6 551 LINE",
"83 551 LINE",
"83 25 LINE",
"6 1 LINE",
"6 0 LINE",
"364 0 LINE",
"364 1 LINE",
"287 25 LINE",
"287 371 LINE",
"592 371 LINE",
"592 25 LINE",
"515 1 LINE",
"515 0 LINE",
"873 0 LINE",
"873 1 LINE",
"796 25 LINE",
"796 551 LINE",
"873 551 LINE",
"873 557 LINE",
"796 557 LINE",
"796 687 LINE",
"873 711 LINE",
"873 712 LINE"
);
},
{
closed = 1;
nodes = (
"287 551 LINE",
"592 551 LINE",
"592 377 LINE",
"287 377 LINE"
);
}
);
};
layerId = "5ECA14C9-9880-4A66-8675-45EB4FCF3EF2";
paths = (
{
closed = 1;
nodes = (
"474 712 LINE",
"474 707 LINE",
"541 687 LINE",
"541 389 LINE",
"286 389 LINE",
"286 687 LINE",
"353 707 LINE",
"353 712 LINE",
"15 712 LINE",
"15 707 LINE",
"82 687 LINE",
"82 25 LINE",
"15 5 LINE",
"15 0 LINE",
"353 0 LINE",
"353 5 LINE",
"286 25 LINE",
"286 377 LINE",
"541 377 LINE",
"541 25 LINE",
"474 5 LINE",
"474 0 LINE",
"812 0 LINE",
"812 5 LINE",
"745 25 LINE",
"745 687 LINE",
"812 707 LINE",
"812 712 LINE"
);
},
{
closed = 1;
nodes = (
"15 546 LINE",
"812 546 LINE",
"812 558 LINE",
"15 558 LINE"
);
}
);
width = 827;
}
);
leftKerningGroup = H;
leftMetricsKey = H;
rightKerningGroup = H;
rightMetricsKey = H;
unicode = 0126;
},
{
color = 9;
glyphname = I;
lastChange = "2022-12-03 12:13:49 +0000";
layers = (
{
anchors = (
{
name = ogonek;
position = "{283, 0}";
},
{
name = top;
position = "{184, 712}";
}
);
background = {
paths = (
{
closed = 1;
nodes = (
"363 0 LINE",
"363 1 LINE",
"286 25 LINE",
"286 687 LINE",
"363 711 LINE",
"363 712 LINE",
"5 712 LINE",
"5 711 LINE",
"82 687 LINE",
"82 25 LINE",
"5 1 LINE",
"5 0 LINE"
);
}
);
};
layerId = "5ECA14C9-9880-4A66-8675-45EB4FCF3EF2";
paths = (
{
closed = 1;
nodes = (
"353 0 LINE",
"353 5 LINE",
"286 25 LINE",
"286 687 LINE",
"353 707 LINE",
"353 712 LINE",
"15 712 LINE",
"15 707 LINE",
"82 687 LINE",
"82 25 LINE",
"15 5 LINE",
"15 0 LINE"
);
}
);
width = 368;
}
);
leftKerningGroup = H;
leftMetricsKey = H;
rightKerningGroup = H;
rightMetricsKey = H;
unicode = 0049;
},
{
color = 5;
glyphname = Iogonek;
lastChange = "2022-11-11 10:35:07 +0000";
layers = (
{
anchors = (
{
name = ogonek;
position = "{276, 0}";
},
{
name = top;
position = "{174, 712}";
}
);
background = {
anchors = (
{
name = ogonek;
position = "{276, 0}";
},
{
name = top;
position = "{174, 712}";
}
);
components = (
{
name = I;
},
{
name = ogonekcomb;
transform = "{1, 0, 0, 1, -36, 0}";
}
);
};
layerId = "5ECA14C9-9880-4A66-8675-45EB4FCF3EF2";
paths = (
{
closed = 1;
nodes = (
"353 0 LINE",
"353 5 LINE",
"286 25 LINE",
"286 687 LINE",
"353 707 LINE",
"353 712 LINE",
"15 712 LINE",
"15 707 LINE",
"82 687 LINE",
"82 25 LINE",
"15 5 LINE",
"15 0 LINE"
);
},
{
closed = 1;
nodes = (
"269 -2 LINE",
"196 -49 OFFCURVE",
"127 -95 OFFCURVE",
"127 -151 CURVE SMOOTH",
"127 -194 OFFCURVE",
"168 -237 OFFCURVE",
"227 -237 CURVE SMOOTH",
"288 -237 OFFCURVE",
"339 -192 OFFCURVE",
"374 -154 CURVE",
"374 -147 LINE",
"361 -156 OFFCURVE",
"345 -165 OFFCURVE",
"323 -165 CURVE SMOOTH",
"280 -165 OFFCURVE",
"250 -141 OFFCURVE",
"250 -89 CURVE SMOOTH",
"250 -51 OFFCURVE",
"266 -24 OFFCURVE",
"284 0 CURVE",
"269 12 LINE"
);
}
);
width = 368;
}
);
leftKerningGroup = H;
rightKerningGroup = H;
unicode = 012E;
},
{
color = 9;
glyphname = J;
lastChange = "2023-01-13 20:59:42 +0000";
layers = (
{
anchors = (
{
name = top;
position = "{184, 712}";
}
);
background = {
paths = (
{
closed = 1;
nodes = (
"100 -92 LINE SMOOTH",
"231 12 OFFCURVE",
"286 80 OFFCURVE",
"286 260 CURVE SMOOTH",
"286 687 LINE",
"358 711 LINE",
"358 712 LINE",
"5 712 LINE",
"5 711 LINE",
"82 687 LINE",
"82 123 LINE SMOOTH",
"82 -54 OFFCURVE",
"73 -92 OFFCURVE",
"25 -140 CURVE SMOOTH",
"5 -160 LINE",
"9 -164 LINE"
);
}
);
};
layerId = "5ECA14C9-9880-4A66-8675-45EB4FCF3EF2";
paths = (
{
closed = 1;
nodes = (
"101 -92 LINE SMOOTH",
"232 12 OFFCURVE",
"286 80 OFFCURVE",
"286 260 CURVE SMOOTH",
"286 687 LINE",
"348 707 LINE",
"348 712 LINE",
"15 712 LINE",
"15 707 LINE",
"82 687 LINE",
"82 143 LINE SMOOTH",
"82 -46 OFFCURVE",
"68 -96 OFFCURVE",
"25 -139 CURVE SMOOTH",
"5 -159 LINE",
"10 -164 LINE"
);
}
);
width = 363;
}
);
leftKerningGroup = J;
rightKerningGroup = U;
unicode = 004A;
},
{
color = 9;
glyphname = K;
lastChange = "2023-01-13 20:59:42 +0000";
layers = (
{
anchors = (
{
name = bottom;
position = "{423, 0}";
},
{
name = top;
position = "{373, 712}";
}
);
background = {
paths = (
{
closed = 1;
nodes = (
"348 0 LINE",
"348 5 LINE",
"286 25 LINE",
"286 390 LINE",
"353 390 LINE",
"470 124 LINE SMOOTH",
"503 48 OFFCURVE",
"538 -5 OFFCURVE",
"612 -5 CURVE SMOOTH",
"659 -5 OFFCURVE",
"703 10 OFFCURVE",
"746 25 CURVE SMOOTH",
"838 56 LINE",
"838 63 LINE",
"824 59 OFFCURVE",
"812 56 OFFCURVE",
"797 56 CURVE SMOOTH",
"769 56 OFFCURVE",
"750 63 OFFCURVE",
"718 113 CURVE SMOOTH",
"459 510 LINE",
"640 687 LINE",
"729 707 LINE",
"729 712 LINE",
"456 712 LINE",
"456 707 LINE",
"467 705 LINE SMOOTH",
"563 688 OFFCURVE",
"579 665 OFFCURVE",
"406 461 CURVE SMOOTH",
"356 402 LINE",
"286 402 LINE",
"286 687 LINE",
"343 707 LINE",
"343 712 LINE",
"15 712 LINE",
"15 707 LINE",
"82 687 LINE",
"82 25 LINE",
"15 5 LINE",
"15 0 LINE"
);
}
);
};
guideLines = (
{
angle = 37.1666;
position = "{37, 150}";
}
);
layerId = "5ECA14C9-9880-4A66-8675-45EB4FCF3EF2";
paths = (
{
closed = 1;
nodes = (
"353 0 LINE",
"353 5 LINE",
"286 25 LINE",
"286 398 LINE",
"353 398 LINE",
"470 124 LINE SMOOTH",
"503 48 OFFCURVE",
"535 -5 OFFCURVE",
"612 -5 CURVE SMOOTH",
"659 -5 OFFCURVE",
"703 10 OFFCURVE",
"746 25 CURVE SMOOTH",
"838 56 LINE",
"838 63 LINE",
"824 59 OFFCURVE",
"812 56 OFFCURVE",
"797 56 CURVE SMOOTH",
"769 56 OFFCURVE",
"748 67 OFFCURVE",
"714 120 CURVE SMOOTH",
"460 518 LINE",
"638 687 LINE",
"729 707 LINE",
"729 712 LINE",
"456 712 LINE",
"456 707 LINE",
"467 705 LINE SMOOTH",
"565 687 OFFCURVE",
"577 667 OFFCURVE",
"406 469 CURVE SMOOTH",
"355 410 LINE",
"286 410 LINE",
"286 687 LINE",
"353 707 LINE",
"353 712 LINE",
"15 712 LINE",
"15 707 LINE",
"82 687 LINE",
"82 25 LINE",
"15 5 LINE",
"15 0 LINE"
);
}
);
width = 798;
}
);
leftKerningGroup = H;
leftMetricsKey = H;
rightKerningGroup = K;
unicode = 004B;
},
{
color = 9;
glyphname = L;
lastChange = "2023-01-13 20:59:42 +0000";
layers = (
{
anchors = (
{
name = bottom;
position = "{303, 0}";
},
{
name = top;
position = "{202, 712}";
}
);
background = {
paths = (
{
closed = 1;
nodes = (
"507 0 LINE",
"517 -63 LINE",
"518 -63 LINE",
"571 265 LINE",
"570 265 LINE",
"560 236 LINE SMOOTH",
"505 75 OFFCURVE",
"427 17 OFFCURVE",
"286 11 CURVE",
"286 11 LINE",
"286 687 LINE",
"373 711 LINE",
"373 712 LINE",
"5 712 LINE",
"5 711 LINE",
"82 687 LINE",
"82 25 LINE",
"5 1 LINE",
"5 0 LINE"
);
}
);
};
guideLines = (
{
angle = 81.3557;
position = "{63, 80}";
}
);
layerId = "5ECA14C9-9880-4A66-8675-45EB4FCF3EF2";
paths = (
{
closed = 1;
nodes = (
"502 0 LINE",
"513 -53 LINE",
"518 -53 LINE",
"571 265 LINE",
"565 265 LINE",
"557 239 LINE SMOOTH",
"507 76 OFFCURVE",
"427 17 OFFCURVE",
"286 11 CURVE",
"286 11 LINE",
"286 687 LINE",
"363 707 LINE",
"363 712 LINE",
"15 712 LINE",
"15 707 LINE",
"82 687 LINE",
"82 25 LINE",
"15 5 LINE",
"15 0 LINE"
);
}
);
width = 576;
}
);
leftKerningGroup = H;
leftMetricsKey = H;
rightKerningGroup = L;
unicode = 004C;
},
{
color = 3;
glyphname = Ldot;
lastChange = "2022-12-03 12:33:03 +0000";
layers = (
{
components = (
{
name = L;
}
);
layerId = "5ECA14C9-9880-4A66-8675-45EB4FCF3EF2";
paths = (
{
closed = 1;
nodes = (
"541 279 OFFCURVE",
"589 328 OFFCURVE",
"589 397 CURVE SMOOTH",
"589 464 OFFCURVE",
"541 514 OFFCURVE",
"472 514 CURVE SMOOTH",
"402 514 OFFCURVE",
"354 464 OFFCURVE",
"354 397 CURVE SMOOTH",
"354 328 OFFCURVE",
"402 279 OFFCURVE",
"472 279 CURVE SMOOTH"
);
}
);
width = 576;
}
);
leftKerningGroup = H;
leftMetricsKey = H;
unicode = 013F;
},
{
color = 9;
glyphname = Lslash;
lastChange = "2023-01-13 20:59:42 +0000";
layers = (
{
anchors = (
{
name = bottom;
position = "{284, 0}";
},
{
name = top;
position = "{183, 712}";
}
);
background = {
paths = (
{
closed = 1;
nodes = (
"421 64 OFFCURVE",
"336 16 OFFCURVE",
"287 4 CURVE",
"287 4 LINE",
"287 432 LINE",
"384 488 LINE",
"384 495 LINE",
"287 439 LINE",
"287 687 LINE",
"364 711 LINE",
"364 712 LINE",
"6 712 LINE",
"6 711 LINE",
"83 687 LINE",
"83 322 LINE",
"6 278 LINE",
"6 271 LINE",
"83 315 LINE",
"83 25 LINE",
"6 1 LINE",
"6 0 LINE",
"478 0 LINE",
"488 -63 LINE",
"489 -63 LINE",
"542 266 LINE",
"541 266 LINE",
"522 234 LINE SMOOTH"
);
}
);
};
layerId = "5ECA14C9-9880-4A66-8675-45EB4FCF3EF2";
paths = (
{
closed = 1;
nodes = (
"15 265 LINE",
"406 489 LINE",
"406 503 LINE",
"15 279 LINE"
);
},
{
closed = 1;
nodes = (
"502 0 LINE",
"513 -53 LINE",
"518 -53 LINE",
"571 265 LINE",
"565 265 LINE",
"557 239 LINE SMOOTH",
"507 76 OFFCURVE",
"427 17 OFFCURVE",
"286 11 CURVE",
"286 11 LINE",
"286 687 LINE",
"363 707 LINE",
"363 712 LINE",
"15 712 LINE",
"15 707 LINE",
"82 687 LINE",
"82 25 LINE",
"15 5 LINE",
"15 0 LINE"
);
}
);
width = 576;
}
);
leftKerningGroup = H;
leftMetricsKey = L;
rightKerningGroup = L;
rightMetricsKey = L;
unicode = 0141;
},
{
color = 9;
glyphname = M;
lastChange = "2023-01-13 20:59:42 +0000";
layers = (
{
anchors = (
{
name = bottom;
position = "{415, 0}";
},
{
name = top;
position = "{518, 712}";
}
);
background = {
paths = (
{
closed = 1;
nodes = (
"281 0 LINE",
"281 5 LINE",
"258 9 LINE SMOOTH",
"133 31 OFFCURVE",
"90 93 OFFCURVE",
"131 452 CURVE SMOOTH",
"155 660 LINE",
"462 -26 LINE",
"465 -26 LINE",
"718 630 LINE",
"793 25 LINE",
"699 5 LINE",
"699 0 LINE",
"1059 0 LINE",
"1059 5 LINE",
"997 25 LINE",
"909 687 LINE",
"981 707 LINE",
"981 712 LINE",
"743 712 LINE",
"541 265 LINE",
"342 712 LINE",
"78 712 LINE",
"78 707 LINE",
"145 670 LINE",
"57 25 LINE",
"-5 5 LINE",
"-5 0 LINE"
);
}
);
};
layerId = "5ECA14C9-9880-4A66-8675-45EB4FCF3EF2";
paths = (
{
closed = 1;
nodes = (
"291 0 LINE",
"291 5 LINE",
"268 9 LINE SMOOTH",
"143 31 OFFCURVE",
"100 93 OFFCURVE",
"141 452 CURVE SMOOTH",
"165 660 LINE",
"462 -26 LINE",
"465 -26 LINE",
"718 630 LINE",
"793 25 LINE",
"699 5 LINE",
"699 0 LINE",
"1059 0 LINE",
"1059 5 LINE",
"997 25 LINE",
"909 687 LINE",
"981 707 LINE",
"981 712 LINE",
"743 712 LINE",
"545 272 LINE",
"355 712 LINE",
"88 712 LINE",
"88 707 LINE",
"155 670 LINE",
"67 25 LINE",
"5 5 LINE",
"5 0 LINE"
);
}
);
width = 1064;
}
);
leftKerningGroup = M;
rightKerningGroup = M;
unicode = 004D;
},
{
color = 9;
glyphname = N;
lastChange = "2023-01-13 20:59:42 +0000";
layers = (
{
anchors = (
{
name = bottom;
position = "{407, 0}";
},
{
name = top;
position = "{407, 712}";
}
);
background = {
paths = (
{
closed = 1;
nodes = (
"362 0 LINE",
"362 1 LINE",
"350 4 LINE SMOOTH",
"204 41 OFFCURVE",
"106 140 OFFCURVE",
"97 484 CURVE SMOOTH",
"93 631 LINE",
"731 -25 LINE",
"732 -25 LINE",
"732 687 LINE",
"809 711 LINE",
"809 712 LINE",
"530 712 LINE",
"530 711 LINE",
"546 707 LINE SMOOTH",
"643 683 OFFCURVE",
"718 606 OFFCURVE",
"720 369 CURVE SMOOTH",
"721 263 LINE",
"290 712 LINE",
"5 712 LINE",
"5 711 LINE",
"82 638 LINE",
"82 25 LINE",
"5 1 LINE",
"5 0 LINE"
);
}
);
};
layerId = "5ECA14C9-9880-4A66-8675-45EB4FCF3EF2";
paths = (
{
closed = 1;
nodes = (
"352 0 LINE",
"352 5 LINE",
"338 8 LINE SMOOTH",
"194 39 OFFCURVE",
"106 136 OFFCURVE",
"97 484 CURVE SMOOTH",
"93 631 LINE",
"729 -25 LINE",
"732 -25 LINE",
"732 687 LINE",
"799 707 LINE",
"799 712 LINE",
"530 712 LINE",
"530 707 LINE",
"543 705 LINE SMOOTH",
"642 690 OFFCURVE",
"718 606 OFFCURVE",
"720 369 CURVE SMOOTH",
"721 269 LINE",
"293 712 LINE",
"15 712 LINE",
"15 708 LINE",
"82 640 LINE",
"82 25 LINE",
"15 5 LINE",
"15 0 LINE"
);
}
);
width = 814;
}
);
leftKerningGroup = H;
leftMetricsKey = H;
rightKerningGroup = N;
unicode = 004E;
},
{
color = 9;
glyphname = Eng;
lastChange = "2023-01-13 20:59:42 +0000";
layers = (
{
background = {
paths = (
{
closed = 1;
nodes = (
"645 -150 LINE SMOOTH",
"681 -119 OFFCURVE",
"732 -72 OFFCURVE",
"732 66 CURVE SMOOTH",
"732 225 LINE",
"719 225 LINE",
"719 66 LINE SMOOTH",
"719 -64 OFFCURVE",
"673 -114 OFFCURVE",
"641 -144 CURVE SMOOTH",
"626 -158 LINE",
"630 -163 LINE"
);
},
{
closed = 1;
nodes = (
"352 0 LINE",
"352 5 LINE",
"338 8 LINE SMOOTH",
"194 39 OFFCURVE",
"106 136 OFFCURVE",
"97 484 CURVE SMOOTH",
"93 631 LINE",
"723 -19 LINE",
"732 78 LINE",
"732 687 LINE",
"799 707 LINE",
"799 712 LINE",
"530 712 LINE",
"530 707 LINE",
"543 705 LINE SMOOTH",
"642 690 OFFCURVE",
"718 606 OFFCURVE",
"720 369 CURVE SMOOTH",
"721 269 LINE",
"293 712 LINE",
"15 712 LINE",
"15 708 LINE",
"82 640 LINE",
"82 25 LINE",
"15 5 LINE",
"15 0 LINE"
);
}
);
};
layerId = "5ECA14C9-9880-4A66-8675-45EB4FCF3EF2";
paths = (
{
closed = 1;
nodes = (
"352 0 LINE",
"352 5 LINE",
"338 8 LINE SMOOTH",
"194 39 OFFCURVE",
"106 136 OFFCURVE",
"97 484 CURVE SMOOTH",
"93 631 LINE",
"717 -13 LINE",
"713 -40 OFFCURVE",
"687 -60 OFFCURVE",
"638 -60 CURVE SMOOTH",
"613 -60 OFFCURVE",
"583 -56 OFFCURVE",
"561 -53 CURVE SMOOTH",
"542 -50 LINE",
"534 -66 OFFCURVE",
"523 -91 OFFCURVE",
"523 -123 CURVE SMOOTH",
"523 -174 OFFCURVE",
"552 -205 OFFCURVE",
"593 -205 CURVE SMOOTH",
"661 -205 OFFCURVE",
"732 -120 OFFCURVE",
"732 46 CURVE SMOOTH",
"732 687 LINE",
"799 707 LINE",
"799 712 LINE",
"530 712 LINE",
"530 707 LINE",
"543 705 LINE SMOOTH",
"642 690 OFFCURVE",
"718 606 OFFCURVE",
"720 369 CURVE SMOOTH",
"721 269 LINE",
"293 712 LINE",
"15 712 LINE",
"15 708 LINE",
"82 640 LINE",
"82 25 LINE",
"15 5 LINE",
"15 0 LINE"
);
}
);
width = 814;
}
);
leftKerningGroup = H;
leftMetricsKey = N;
rightKerningGroup = N;
rightMetricsKey = N;
unicode = 014A;
},
{
color = 9;
glyphname = O;
lastChange = "2023-01-13 20:59:42 +0000";
layers = (
{
anchors = (
{
name = ogonek;
position = "{451, 0}";
},
{
name = top;
position = "{451, 712}";
}
);
background = {
paths = (
{
closed = 1;
nodes = (
"701 -15 OFFCURVE",
"872 168 OFFCURVE",
"872 379 CURVE SMOOTH",
"872 583 OFFCURVE",
"711 727 OFFCURVE",
"464 727 CURVE SMOOTH",
"220 727 OFFCURVE",
"30 559 OFFCURVE",
"30 344 CURVE SMOOTH",
"30 133 OFFCURVE",
"199 -15 OFFCURVE",
"448 -15 CURVE SMOOTH"
);
},
{
closed = 1;
nodes = (
"252 604 OFFCURVE",
"336 714 OFFCURVE",
"422 714 CURVE SMOOTH",
"515 714 OFFCURVE",
"650 570 OFFCURVE",
"650 326 CURVE SMOOTH",
"650 110 OFFCURVE",
"566 -2 OFFCURVE",
"483 -2 CURVE SMOOTH",
"381 -2 OFFCURVE",
"252 142 OFFCURVE",
"252 388 CURVE SMOOTH"
);
}
);
};
guideLines = (
{
angle = -84.1355;
position = "{37, 215}";
}
);
layerId = "5ECA14C9-9880-4A66-8675-45EB4FCF3EF2";
paths = (
{
closed = 1;
nodes = (
"691 -15 OFFCURVE",
"872 149 OFFCURVE",
"872 367 CURVE SMOOTH",
"872 582 OFFCURVE",
"703 727 OFFCURVE",
"466 727 CURVE SMOOTH",
"212 727 OFFCURVE",
"30 563 OFFCURVE",
"30 346 CURVE SMOOTH",
"30 130 OFFCURVE",
"198 -15 OFFCURVE",
"436 -15 CURVE SMOOTH"
);
},
{
closed = 1;
nodes = (
"253 600 OFFCURVE",
"339 715 OFFCURVE",
"434 715 CURVE SMOOTH",
"531 715 OFFCURVE",
"649 586 OFFCURVE",
"649 324 CURVE SMOOTH",
"649 111 OFFCURVE",
"563 -3 OFFCURVE",
"468 -3 CURVE SMOOTH",
"371 -3 OFFCURVE",
"253 125 OFFCURVE",
"253 389 CURVE SMOOTH"
);
}
);
width = 902;
}
);
leftKerningGroup = O;
rightKerningGroup = O;
unicode = 004F;
},
{
color = 3;
glyphname = Oslash;
lastChange = "2023-01-13 20:59:42 +0000";
layers = (
{
anchors = (
{
name = ogonek;
position = "{451, 0}";
},
{
name = top;
position = "{451, 712}";
}
);
background = {
paths = (
{
closed = 1;
nodes = (
"819 800 LINE",
"705 662 LINE",
"638 701 OFFCURVE",
"556 724 OFFCURVE",
"462 724 CURVE SMOOTH",
"220 724 OFFCURVE",
"30 556 OFFCURVE",
"30 340 CURVE SMOOTH",
"30 219 OFFCURVE",
"90 112 OFFCURVE",
"198 49 CURVE",
"89 -83 LINE",
"93 -88 LINE",
"204 46 LINE",
"269 9 OFFCURVE",
"352 -12 OFFCURVE",
"448 -12 CURVE SMOOTH",
"679 -12 OFFCURVE",
"872 171 OFFCURVE",
"872 381 CURVE SMOOTH",
"872 496 OFFCURVE",
"811 596 OFFCURVE",
"710 658 CURVE",
"823 795 LINE"
);
},
{
closed = 1;
nodes = (
"252 593 OFFCURVE",
"340 717 OFFCURVE",
"418 717 CURVE SMOOTH",
"477 717 OFFCURVE",
"556 651 OFFCURVE",
"605 542 CURVE",
"297 168 LINE",
"270 229 OFFCURVE",
"252 304 OFFCURVE",
"252 388 CURVE SMOOTH"
);
},
{
closed = 1;
nodes = (
"425 -5 OFFCURVE",
"348 57 OFFCURVE",
"300 162 CURVE",
"608 535 LINE",
"634 476 OFFCURVE",
"650 406 OFFCURVE",
"650 326 CURVE SMOOTH",
"650 121 OFFCURVE",
"562 -5 OFFCURVE",
"487 -5 CURVE SMOOTH"
);
}
);
};
layerId = "5ECA14C9-9880-4A66-8675-45EB4FCF3EF2";
paths = (
{
closed = 1;
nodes = (
"691 -15 OFFCURVE",
"872 149 OFFCURVE",
"872 367 CURVE SMOOTH",
"872 582 OFFCURVE",
"703 727 OFFCURVE",
"466 727 CURVE SMOOTH",
"212 727 OFFCURVE",
"30 564 OFFCURVE",
"30 346 CURVE SMOOTH",
"30 130 OFFCURVE",
"198 -15 OFFCURVE",
"436 -15 CURVE SMOOTH"
);
},
{
closed = 1;
nodes = (
"253 600 OFFCURVE",
"339 715 OFFCURVE",
"434 715 CURVE SMOOTH",
"531 715 OFFCURVE",
"649 586 OFFCURVE",
"649 324 CURVE SMOOTH",
"649 111 OFFCURVE",
"563 -3 OFFCURVE",
"468 -3 CURVE SMOOTH",
"371 -3 OFFCURVE",
"253 125 OFFCURVE",
"253 389 CURVE SMOOTH"
);
},
{
closed = 1;
nodes = (
"89 -80 LINE",
"98 -88 LINE",
"823 792 LINE",
"814 800 LINE"
);
}
);
width = 902;
}
);
leftKerningGroup = O;
leftMetricsKey = O;
rightKerningGroup = O;
rightMetricsKey = O;
unicode = 00D8;
},
{
color = 9;
glyphname = OE;
lastChange = "2023-01-13 20:59:42 +0000";
layers = (
{
anchors = (
{
name = top;
position = "{641, 712}";
}
);
background = {
paths = (
{
closed = 1;
nodes = (
"521 712 LINE SMOOTH",
"202 712 OFFCURVE",
"25 526 OFFCURVE",
"25 341 CURVE SMOOTH",
"25 154 OFFCURVE",
"189 0 OFFCURVE",
"545 0 CURVE SMOOTH",
"747 0 LINE",
"747 5 LINE",
"760 25 LINE",
"760 687 LINE",
"747 707 LINE",
"747 712 LINE"
);
},
{
closed = 1;
nodes = (
"586 11 LINE",
"574 11 LINE SMOOTH",
"377 11 OFFCURVE",
"247 143 OFFCURVE",
"247 361 CURVE SMOOTH",
"247 599 OFFCURVE",
"380 701 OFFCURVE",
"560 701 CURVE SMOOTH",
"586 701 LINE"
);
},
{
closed = 1;
nodes = (
"1061 91 OFFCURVE",
"972 18 OFFCURVE",
"789 11 CURVE",
"789 11 LINE",
"789 363 LINE",
"789 363 LINE",
"875 358 OFFCURVE",
"923 310 OFFCURVE",
"945 202 CURVE",
"950 202 LINE",
"950 523 LINE",
"945 523 LINE",
"923 427 OFFCURVE",
"875 379 OFFCURVE",
"789 373 CURVE",
"789 373 LINE",
"789 701 LINE",
"789 701 LINE",
"928 701 OFFCURVE",
"1001 646 OFFCURVE",
"1044 534 CURVE SMOOTH",
"1054 508 LINE",
"1059 508 LINE",
"1027 770 LINE",
"1022 770 LINE",
"1009 712 LINE",
"519 712 LINE",
"519 707 LINE",
"586 707 LINE",
"586 7 LINE",
"519 5 LINE",
"519 0 LINE",
"1079 0 LINE",
"1118 257 LINE",
"1112 257 LINE",
"1103 228 LINE SMOOTH"
);
}
);
};
layerId = "5ECA14C9-9880-4A66-8675-45EB4FCF3EF2";
paths = (
{
closed = 1;
nodes = (
"1061 91 OFFCURVE",
"972 18 OFFCURVE",
"789 11 CURVE",
"789 11 LINE",
"789 363 LINE",
"789 363 LINE",
"875 358 OFFCURVE",
"923 310 OFFCURVE",
"945 202 CURVE",
"950 202 LINE",
"950 523 LINE",
"945 523 LINE",
"923 427 OFFCURVE",
"875 379 OFFCURVE",
"789 373 CURVE",
"789 373 LINE",
"789 701 LINE",
"789 701 LINE",
"928 701 OFFCURVE",
"1001 646 OFFCURVE",
"1044 534 CURVE SMOOTH",
"1054 508 LINE",
"1059 508 LINE",
"1027 770 LINE",
"1022 770 LINE",
"1009 712 LINE",
"519 712 LINE",
"519 707 LINE",
"586 707 LINE",
"586 7 LINE",
"519 5 LINE",
"519 0 LINE",
"1079 0 LINE",
"1118 257 LINE",
"1112 257 LINE",
"1103 228 LINE SMOOTH"
);
},
{
closed = 1;
nodes = (
"479 712 LINE SMOOTH",
"192 712 OFFCURVE",
"25 556 OFFCURVE",
"25 345 CURVE SMOOTH",
"25 144 OFFCURVE",
"195 0 OFFCURVE",
"519 0 CURVE SMOOTH",
"857 0 LINE",
"857 5 LINE",
"786 5 LINE",
"786 707 LINE",
"857 707 LINE",
"857 712 LINE"
);
},
{
closed = 1;
nodes = (
"586 11 LINE",
"528 11 LINE SMOOTH",
"377 11 OFFCURVE",
"247 107 OFFCURVE",
"247 361 CURVE SMOOTH",
"247 609 OFFCURVE",
"380 701 OFFCURVE",
"498 701 CURVE SMOOTH",
"586 701 LINE"
);
}
);
width = 1128;
}
);
leftKerningGroup = O;
leftMetricsKey = "=|D";
rightKerningGroup = E;
rightMetricsKey = E;
unicode = 0152;
},
{
color = 9;
glyphname = P;
lastChange = "2023-01-13 20:59:42 +0000";
layers = (
{
anchors = (
{
name = top;
position = "{329, 712}";
}
);
background = {
paths = (
{
closed = 1;
nodes = (
"374 0 LINE",
"374 5 LINE",
"286 25 LINE",
"286 703 LINE",
"288 703 LINE SMOOTH",
"382 703 OFFCURVE",
"457 639 OFFCURVE",
"457 515 CURVE SMOOTH",
"457 390 OFFCURVE",
"393 342 OFFCURVE",
"334 338 CURVE",
"334 332 LINE",
"492 334 OFFCURVE",
"657 399 OFFCURVE",
"657 526 CURVE SMOOTH",
"657 618 OFFCURVE",
"564 712 OFFCURVE",
"287 712 CURVE SMOOTH",
"15 712 LINE",
"15 707 LINE",
"82 687 LINE",
"82 25 LINE",
"15 5 LINE",
"15 0 LINE"
);
}
);
};
layerId = "5ECA14C9-9880-4A66-8675-45EB4FCF3EF2";
paths = (
{
closed = 1;
nodes = (
"374 0 LINE",
"374 5 LINE",
"286 25 LINE",
"286 703 LINE",
"318 703 LINE SMOOTH",
"392 703 OFFCURVE",
"457 651 OFFCURVE",
"457 517 CURVE SMOOTH",
"457 388 OFFCURVE",
"399 342 OFFCURVE",
"334 338 CURVE",
"334 332 LINE",
"492 334 OFFCURVE",
"657 399 OFFCURVE",
"657 528 CURVE SMOOTH",
"657 626 OFFCURVE",
"570 712 OFFCURVE",
"320 712 CURVE SMOOTH",
"15 712 LINE",
"15 707 LINE",
"82 687 LINE",
"82 25 LINE",
"15 5 LINE",
"15 0 LINE"
);
}
);
width = 677;
}
);
leftKerningGroup = H;
leftMetricsKey = H;
rightKerningGroup = P;
unicode = 0050;
},
{
color = 9;
glyphname = Thorn;
lastChange = "2023-01-13 20:59:42 +0000";
layers = (
{
background = {
paths = (
{
closed = 1;
nodes = (
"284 167 LINE",
"296 167 LINE SMOOTH",
"537 167 OFFCURVE",
"660 251 OFFCURVE",
"660 370 CURVE SMOOTH",
"660 478 OFFCURVE",
"552 569 OFFCURVE",
"284 569 CURVE SMOOTH",
"284 569 LINE",
"284 687 LINE",
"368 707 LINE",
"368 712 LINE",
"15 712 LINE",
"15 707 LINE",
"82 687 LINE",
"82 25 LINE",
"15 5 LINE",
"15 0 LINE",
"368 0 LINE",
"368 5 LINE",
"284 25 LINE"
);
},
{
closed = 1;
nodes = (
"461 235 OFFCURVE",
"385 178 OFFCURVE",
"296 178 CURVE SMOOTH",
"284 178 LINE",
"284 558 LINE",
"284 558 LINE",
"378 558 OFFCURVE",
"461 496 OFFCURVE",
"461 361 CURVE SMOOTH"
);
}
);
};
layerId = "5ECA14C9-9880-4A66-8675-45EB4FCF3EF2";
paths = (
{
closed = 1;
nodes = (
"286 167 LINE",
"324 167 LINE SMOOTH",
"560 167 OFFCURVE",
"664 250 OFFCURVE",
"664 373 CURVE SMOOTH",
"664 485 OFFCURVE",
"566 569 OFFCURVE",
"323 569 CURVE SMOOTH",
"286 569 LINE",
"286 687 LINE",
"360 707 LINE",
"360 712 LINE",
"15 712 LINE",
"15 707 LINE",
"82 687 LINE",
"82 25 LINE",
"15 5 LINE",
"15 0 LINE",
"368 0 LINE",
"368 5 LINE",
"286 25 LINE"
);
},
{
closed = 1;
nodes = (
"463 232 OFFCURVE",
"393 178 OFFCURVE",
"322 178 CURVE SMOOTH",
"286 178 LINE",
"286 558 LINE",
"320 558 LINE SMOOTH",
"392 558 OFFCURVE",
"463 501 OFFCURVE",
"463 370 CURVE SMOOTH"
);
}
);
width = 684;
}
);
leftKerningGroup = H;
leftMetricsKey = H;
rightKerningGroup = Thorn;
rightMetricsKey = P;
unicode = 00DE;
},
{
color = 9;
glyphname = Q;
lastChange = "2023-01-13 20:59:42 +0000";
layers = (
{
anchors = (
{
name = ogonek;
position = "{451, 0}";
},
{
name = top;
position = "{451, 712}";
}
);
background = {
paths = (
{
closed = 1;
nodes = (
"902 -110 OFFCURVE",
"803 -79 OFFCURVE",
"671 -31 CURVE SMOOTH",
"560 9 LINE",
"743 55 OFFCURVE",
"872 196 OFFCURVE",
"872 377 CURVE SMOOTH",
"872 575 OFFCURVE",
"703 727 OFFCURVE",
"462 727 CURVE SMOOTH",
"220 727 OFFCURVE",
"30 559 OFFCURVE",
"30 344 CURVE SMOOTH",
"30 148 OFFCURVE",
"197 -10 OFFCURVE",
"440 -13 CURVE",
"493 -66 LINE SMOOTH",
"574 -147 OFFCURVE",
"653 -204 OFFCURVE",
"764 -204 CURVE SMOOTH",
"862 -204 OFFCURVE",
"1061 -124 OFFCURVE",
"1174 -76 CURVE",
"1174 -67 LINE",
"1096 -96 OFFCURVE",
"1045 -110 OFFCURVE",
"979 -110 CURVE SMOOTH"
);
},
{
closed = 1;
nodes = (
"252 604 OFFCURVE",
"336 714 OFFCURVE",
"422 714 CURVE SMOOTH",
"515 714 OFFCURVE",
"650 570 OFFCURVE",
"650 326 CURVE SMOOTH",
"650 110 OFFCURVE",
"566 -2 OFFCURVE",
"483 -2 CURVE SMOOTH",
"381 -2 OFFCURVE",
"252 142 OFFCURVE",
"252 388 CURVE SMOOTH"
);
}
);
};
layerId = "5ECA14C9-9880-4A66-8675-45EB4FCF3EF2";
paths = (
{
closed = 1;
nodes = (
"902 -110 OFFCURVE",
"803 -79 OFFCURVE",
"671 -31 CURVE SMOOTH",
"560 9 LINE",
"746 48 OFFCURVE",
"872 180 OFFCURVE",
"872 367 CURVE SMOOTH",
"872 582 OFFCURVE",
"703 727 OFFCURVE",
"466 727 CURVE SMOOTH",
"212 727 OFFCURVE",
"30 564 OFFCURVE",
"30 346 CURVE SMOOTH",
"30 130 OFFCURVE",
"194 -15 OFFCURVE",
"442 -15 CURVE",
"493 -66 LINE SMOOTH",
"574 -147 OFFCURVE",
"653 -204 OFFCURVE",
"764 -204 CURVE SMOOTH",
"862 -204 OFFCURVE",
"1061 -124 OFFCURVE",
"1174 -76 CURVE",
"1174 -67 LINE",
"1096 -96 OFFCURVE",
"1045 -110 OFFCURVE",
"979 -110 CURVE SMOOTH"
);
},
{
closed = 1;
nodes = (
"253 600 OFFCURVE",
"339 715 OFFCURVE",
"434 715 CURVE SMOOTH",
"531 715 OFFCURVE",
"649 586 OFFCURVE",
"649 324 CURVE SMOOTH",
"649 111 OFFCURVE",
"563 -3 OFFCURVE",
"468 -3 CURVE SMOOTH",
"371 -3 OFFCURVE",
"253 125 OFFCURVE",
"253 389 CURVE SMOOTH"
);
}
);
width = 902;
}
);
leftKerningGroup = O;
leftMetricsKey = O;
rightKerningGroup = O;
unicode = 0051;
},
{
color = 9;
glyphname = R;
lastChange = "2023-01-13 20:59:42 +0000";
layers = (
{
anchors = (
{
name = bottom;
position = "{405, 0}";
},
{
name = top;
position = "{349, 712}";
}
);
background = {
paths = (
{
closed = 1;
nodes = (
"358 0 LINE",
"358 5 LINE",
"286 25 LINE",
"286 361 LINE",
"379 361 LINE",
"448 153 LINE SMOOTH",
"486 38 OFFCURVE",
"520 -5 OFFCURVE",
"590 -5 CURVE SMOOTH",
"635 -5 OFFCURVE",
"681 10 OFFCURVE",
"724 25 CURVE SMOOTH",
"816 56 LINE",
"816 63 LINE",
"802 59 OFFCURVE",
"790 56 OFFCURVE",
"775 56 CURVE SMOOTH",
"747 56 OFFCURVE",
"724 63 OFFCURVE",
"692 113 CURVE SMOOTH",
"463 466 LINE",
"463 467 LINE",
"575 493 OFFCURVE",
"651 544 OFFCURVE",
"651 594 CURVE SMOOTH",
"651 642 OFFCURVE",
"575 712 OFFCURVE",
"288 712 CURVE SMOOTH",
"15 712 LINE",
"15 707 LINE",
"82 687 LINE",
"82 25 LINE",
"15 5 LINE",
"15 0 LINE"
);
},
{
closed = 1;
nodes = (
"286 701 LINE",
"289 701 LINE SMOOTH",
"402 701 OFFCURVE",
"464 647 OFFCURVE",
"464 539 CURVE SMOOTH",
"464 448 OFFCURVE",
"407 395 OFFCURVE",
"385 373 CURVE",
"286 373 LINE"
);
}
);
};
layerId = "5ECA14C9-9880-4A66-8675-45EB4FCF3EF2";
paths = (
{
closed = 1;
nodes = (
"358 0 LINE",
"358 5 LINE",
"286 25 LINE",
"286 361 LINE",
"379 361 LINE",
"448 153 LINE SMOOTH",
"486 38 OFFCURVE",
"520 -5 OFFCURVE",
"590 -5 CURVE SMOOTH",
"635 -5 OFFCURVE",
"681 10 OFFCURVE",
"724 25 CURVE SMOOTH",
"816 56 LINE",
"816 63 LINE",
"802 59 OFFCURVE",
"790 56 OFFCURVE",
"775 56 CURVE SMOOTH",
"747 56 OFFCURVE",
"724 63 OFFCURVE",
"692 113 CURVE SMOOTH",
"463 466 LINE",
"463 467 LINE",
"575 493 OFFCURVE",
"651 539 OFFCURVE",
"651 596 CURVE SMOOTH",
"651 650 OFFCURVE",
"582 712 OFFCURVE",
"332 712 CURVE SMOOTH",
"15 712 LINE",
"15 707 LINE",
"82 687 LINE",
"82 25 LINE",
"15 5 LINE",
"15 0 LINE"
);
},
{
closed = 1;
nodes = (
"286 701 LINE",
"323 701 LINE SMOOTH",
"404 701 OFFCURVE",
"464 649 OFFCURVE",
"464 539 CURVE SMOOTH",
"464 448 OFFCURVE",
"407 395 OFFCURVE",
"385 373 CURVE",
"286 373 LINE"
);
}
);
width = 776;
}
);
leftKerningGroup = H;
leftMetricsKey = H;
rightKerningGroup = R;
unicode = 0052;
},
{
color = 3;
glyphname = S;
lastChange = "2023-01-13 20:59:42 +0000";
layers = (
{
anchors = (
{
name = bottom;
position = "{299, 0}";
},
{
name = top;
position = "{299, 712}";
}
);
background = {
paths = (
{
closed = 1;
nodes = (
"165 724 OFFCURVE",
"30 608 OFFCURVE",
"30 478 CURVE SMOOTH",
"30 400 OFFCURVE",
"79 339 OFFCURVE",
"266 251 CURVE SMOOTH",
"422 177 OFFCURVE",
"454 133 OFFCURVE",
"454 92 CURVE SMOOTH",
"454 59 OFFCURVE",
"426 30 OFFCURVE",
"360 30 CURVE SMOOTH",
"234 30 OFFCURVE",
"114 125 OFFCURVE",
"74 265 CURVE",
"73 265 LINE",
"117 7 LINE",
"133 1 OFFCURVE",
"175 -12 OFFCURVE",
"255 -12 CURVE SMOOTH",
"431 -12 OFFCURVE",
"554 105 OFFCURVE",
"554 246 CURVE SMOOTH",
"554 335 OFFCURVE",
"502 394 OFFCURVE",
"354 461 CURVE SMOOTH",
"228 518 OFFCURVE",
"184 565 OFFCURVE",
"184 620 CURVE SMOOTH",
"184 673 OFFCURVE",
"231 708 OFFCURVE",
"302 708 CURVE SMOOTH",
"405 708 OFFCURVE",
"494 621 OFFCURVE",
"520 508 CURVE",
"521 508 LINE",
"521 780 LINE",
"520 780 LINE",
"503 704 LINE",
"479 710 OFFCURVE",
"428 724 OFFCURVE",
"353 724 CURVE SMOOTH"
);
}
);
};
layerId = "5ECA14C9-9880-4A66-8675-45EB4FCF3EF2";
paths = (
{
closed = 1;
nodes = (
"157 727 OFFCURVE",
"30 617 OFFCURVE",
"30 489 CURVE SMOOTH",
"30 404 OFFCURVE",
"81 339 OFFCURVE",
"266 251 CURVE SMOOTH",
"422 177 OFFCURVE",
"454 137 OFFCURVE",
"454 94 CURVE SMOOTH",
"454 56 OFFCURVE",
"426 27 OFFCURVE",
"358 27 CURVE SMOOTH",
"234 27 OFFCURVE",
"115 122 OFFCURVE",
"77 262 CURVE",
"71 262 LINE",
"115 2 LINE",
"131 -2 OFFCURVE",
"186 -15 OFFCURVE",
"249 -15 CURVE SMOOTH",
"439 -15 OFFCURVE",
"554 96 OFFCURVE",
"554 235 CURVE SMOOTH",
"554 333 OFFCURVE",
"502 394 OFFCURVE",
"354 461 CURVE SMOOTH",
"228 518 OFFCURVE",
"184 565 OFFCURVE",
"184 622 CURVE SMOOTH",
"184 676 OFFCURVE",
"233 711 OFFCURVE",
"301 711 CURVE SMOOTH",
"407 711 OFFCURVE",
"492 624 OFFCURVE",
"516 508 CURVE",
"521 508 LINE",
"521 770 LINE",
"516 770 LINE",
"492 707 LINE",
"468 713 OFFCURVE",
"409 727 OFFCURVE",
"344 727 CURVE SMOOTH"
);
}
);
width = 584;
}
);
leftKerningGroup = S;
rightKerningGroup = S;
unicode = 0053;
},
{
color = 3;
glyphname = Germandbls;
lastChange = "2023-01-13 20:59:42 +0000";
layers = (
{
background = {
paths = (
{
closed = 1;
nodes = (
"275 0 LINE",
"275 422 LINE SMOOTH",
"275 527 OFFCURVE",
"221 559 OFFCURVE",
"221 619 CURVE SMOOTH",
"221 650 OFFCURVE",
"248 675 OFFCURVE",
"288 675 CURVE SMOOTH",
"348 675 OFFCURVE",
"423 624 OFFCURVE",
"500 576 CURVE",
"500 575 LINE",
"443 527 LINE SMOOTH",
"378 472 OFFCURVE",
"343 437 OFFCURVE",
"343 397 CURVE SMOOTH",
"343 356 OFFCURVE",
"367 323 OFFCURVE",
"476 241 CURVE SMOOTH",
"597 150 OFFCURVE",
"619 123 OFFCURVE",
"619 87 CURVE SMOOTH",
"619 50 OFFCURVE",
"597 26 OFFCURVE",
"549 26 CURVE SMOOTH",
"449 26 OFFCURVE",
"370 115 OFFCURVE",
"336 235 CURVE",
"330 235 LINE",
"363 5 LINE",
"379 -1 OFFCURVE",
"413 -12 OFFCURVE",
"462 -12 CURVE SMOOTH",
"606 -12 OFFCURVE",
"707 96 OFFCURVE",
"707 227 CURVE SMOOTH",
"707 311 OFFCURVE",
"651 364 OFFCURVE",
"560 436 CURVE SMOOTH",
"487 494 OFFCURVE",
"478 507 OFFCURVE",
"478 523 CURVE SMOOTH",
"478 537 OFFCURVE",
"488 550 OFFCURVE",
"510 567 CURVE SMOOTH",
"656 679 LINE",
"656 683 LINE",
"607 697 OFFCURVE",
"517 724 OFFCURVE",
"458 724 CURVE SMOOTH",
"232 724 OFFCURVE",
"75 580 OFFCURVE",
"75 453 CURVE SMOOTH",
"75 25 LINE",
"15 5 LINE",
"15 0 LINE"
);
}
);
};
guideLines = (
{
angle = 90;
position = "{-1, 1}";
},
{
angle = 90;
position = "{55, 203}";
},
{
angle = 90;
position = "{59, 57}";
}
);
layerId = "5ECA14C9-9880-4A66-8675-45EB4FCF3EF2";
paths = (
{
closed = 1;
nodes = (
"275 0 LINE",
"275 422 LINE SMOOTH",
"275 527 OFFCURVE",
"221 559 OFFCURVE",
"221 619 CURVE SMOOTH",
"221 650 OFFCURVE",
"248 675 OFFCURVE",
"288 675 CURVE SMOOTH",
"348 675 OFFCURVE",
"423 624 OFFCURVE",
"500 576 CURVE",
"500 575 LINE",
"443 527 LINE SMOOTH",
"378 472 OFFCURVE",
"345 439 OFFCURVE",
"345 399 CURVE SMOOTH",
"345 356 OFFCURVE",
"372 321 OFFCURVE",
"493 241 CURVE SMOOTH",
"625 154 OFFCURVE",
"649 119 OFFCURVE",
"649 82 CURVE SMOOTH",
"649 49 OFFCURVE",
"625 23 OFFCURVE",
"563 23 CURVE SMOOTH",
"449 23 OFFCURVE",
"370 114 OFFCURVE",
"336 232 CURVE",
"330 232 LINE",
"363 2 LINE",
"379 -4 OFFCURVE",
"413 -15 OFFCURVE",
"470 -15 CURVE SMOOTH",
"636 -15 OFFCURVE",
"737 93 OFFCURVE",
"737 212 CURVE SMOOTH",
"737 299 OFFCURVE",
"690 359 OFFCURVE",
"570 438 CURVE SMOOTH",
"486 493 OFFCURVE",
"478 505 OFFCURVE",
"478 523 CURVE SMOOTH",
"478 537 OFFCURVE",
"488 550 OFFCURVE",
"510 567 CURVE SMOOTH",
"656 679 LINE",
"656 683 LINE",
"607 697 OFFCURVE",
"517 724 OFFCURVE",
"458 724 CURVE SMOOTH",
"232 724 OFFCURVE",
"75 580 OFFCURVE",
"75 453 CURVE SMOOTH",
"75 25 LINE",
"15 5 LINE",
"15 0 LINE"
);
}
);
width = 747;
}
);
leftKerningGroup = Germandbls;
leftMetricsKey = U;
rightKerningGroup = Germandbls;
unicode = 1E9E;
},
{
color = 9;
glyphname = T;
lastChange = "2023-01-13 20:59:42 +0000";
layers = (
{
anchors = (
{
name = bottom;
position = "{374, 0}";
},
{
name = top;
position = "{374, 712}";
}
);
background = {
paths = (
{
closed = 1;
nodes = (
"6 508 LINE",
"24 539 LINE SMOOTH",
"80 636 OFFCURVE",
"177 700 OFFCURVE",
"272 701 CURVE",
"272 701 LINE",
"272 25 LINE",
"185 1 LINE",
"185 0 LINE",
"563 0 LINE",
"563 1 LINE",
"476 25 LINE",
"476 701 LINE",
"476 701 LINE",
"571 700 OFFCURVE",
"668 636 OFFCURVE",
"724 539 CURVE SMOOTH",
"742 508 LINE",
"743 508 LINE",
"668 780 LINE",
"667 780 LINE",
"666 712 LINE",
"82 712 LINE",
"81 780 LINE",
"80 780 LINE",
"5 508 LINE"
);
}
);
};
layerId = "5ECA14C9-9880-4A66-8675-45EB4FCF3EF2";
paths = (
{
closed = 1;
nodes = (
"10 508 LINE",
"24 533 LINE SMOOTH",
"83 639 OFFCURVE",
"177 700 OFFCURVE",
"272 701 CURVE",
"272 701 LINE",
"272 25 LINE",
"195 5 LINE",
"195 0 LINE",
"553 0 LINE",
"553 5 LINE",
"476 25 LINE",
"476 701 LINE",
"476 701 LINE",
"571 700 OFFCURVE",
"665 639 OFFCURVE",
"724 533 CURVE SMOOTH",
"738 508 LINE",
"743 508 LINE",
"672 770 LINE",
"667 770 LINE",
"661 712 LINE",
"87 712 LINE",
"81 770 LINE",
"76 770 LINE",
"5 508 LINE"
);
}
);
width = 748;
}
);
leftKerningGroup = T;
rightKerningGroup = T;
unicode = 0054;
},
{
color = 3;
glyphname = Tbar;
lastChange = "2023-01-13 20:59:42 +0000";
layers = (
{
anchors = (
{
name = bottom;
position = "{374, 0}";
},
{
name = top;
position = "{374, 712}";
}
);
background = {
anchors = (
{
name = bottom;
position = "{374, 0}";
},
{
name = top;
position = "{374, 712}";
}
);
paths = (
{
closed = 1;
nodes = (
"658 712 LINE",
"90 712 LINE",
"89 780 LINE",
"88 780 LINE",
"20 500 LINE",
"21 500 LINE",
"44 532 LINE SMOOTH",
"127 648 OFFCURVE",
"223 706 OFFCURVE",
"272 708 CURVE",
"272 708 LINE",
"272 377 LINE",
"150 377 LINE",
"150 371 LINE",
"272 371 LINE",
"272 25 LINE",
"185 1 LINE",
"185 0 LINE",
"563 0 LINE",
"563 1 LINE",
"476 25 LINE",
"476 371 LINE",
"599 371 LINE",
"599 377 LINE",
"476 377 LINE",
"476 708 LINE",
"476 708 LINE",
"525 706 OFFCURVE",
"621 648 OFFCURVE",
"704 532 CURVE SMOOTH",
"727 500 LINE",
"728 500 LINE",
"660 780 LINE",
"659 780 LINE"
);
}
);
};
layerId = "5ECA14C9-9880-4A66-8675-45EB4FCF3EF2";
paths = (
{
closed = 1;
nodes = (
"10 508 LINE",
"24 533 LINE SMOOTH",
"83 639 OFFCURVE",
"177 700 OFFCURVE",
"272 701 CURVE",
"272 701 LINE",
"272 25 LINE",
"195 5 LINE",
"195 0 LINE",
"553 0 LINE",
"553 5 LINE",
"476 25 LINE",
"476 701 LINE",
"476 701 LINE",
"571 700 OFFCURVE",
"665 639 OFFCURVE",
"724 533 CURVE SMOOTH",
"738 508 LINE",
"743 508 LINE",
"672 770 LINE",
"667 770 LINE",
"661 712 LINE",
"87 712 LINE",
"81 770 LINE",
"76 770 LINE",
"5 508 LINE"
);
},
{
closed = 1;
nodes = (
"143 377 LINE",
"606 377 LINE",
"606 389 LINE",
"143 389 LINE"
);
}
);
width = 748;
}
);
leftKerningGroup = T;
leftMetricsKey = T;
rightKerningGroup = T;
rightMetricsKey = T;
unicode = 0166;
},
{
color = 9;
glyphname = U;
lastChange = "2023-01-13 20:59:42 +0000";
layers = (
{
anchors = (
{
name = ogonek;
position = "{591, 0}";
},
{
name = top;
position = "{398, 712}";
}
);
background = {
paths = (
{
closed = 1;
nodes = (
"72 687 LINE",
"72 248 LINE SMOOTH",
"72 79 OFFCURVE",
"165 -13 OFFCURVE",
"395 -13 CURVE SMOOTH",
"627 -13 OFFCURVE",
"721 80 OFFCURVE",
"721 283 CURVE SMOOTH",
"721 687 LINE",
"788 711 LINE",
"788 712 LINE",
"490 712 LINE",
"490 711 LINE",
"513 707 LINE SMOOTH",
"637 685 OFFCURVE",
"709 601 OFFCURVE",
"709 332 CURVE SMOOTH",
"709 288 LINE SMOOTH",
"709 186 OFFCURVE",
"656 127 OFFCURVE",
"502 127 CURVE SMOOTH",
"336 127 OFFCURVE",
"278 184 OFFCURVE",
"278 288 CURVE SMOOTH",
"278 687 LINE",
"351 711 LINE",
"351 712 LINE",
"5 712 LINE",
"5 711 LINE"
);
}
);
};
layerId = "5ECA14C9-9880-4A66-8675-45EB4FCF3EF2";
paths = (
{
closed = 1;
nodes = (
"72 687 LINE",
"72 248 LINE SMOOTH",
"72 77 OFFCURVE",
"161 -13 OFFCURVE",
"383 -13 CURVE SMOOTH",
"627 -13 OFFCURVE",
"721 86 OFFCURVE",
"721 283 CURVE SMOOTH",
"721 687 LINE",
"778 707 LINE",
"778 712 LINE",
"507 712 LINE",
"507 707 LINE",
"523 704 LINE SMOOTH",
"638 682 OFFCURVE",
"709 611 OFFCURVE",
"709 332 CURVE SMOOTH",
"709 288 LINE SMOOTH",
"709 190 OFFCURVE",
"656 135 OFFCURVE",
"496 135 CURVE SMOOTH",
"332 135 OFFCURVE",
"278 188 OFFCURVE",
"278 288 CURVE SMOOTH",
"278 687 LINE",
"341 707 LINE",
"341 712 LINE",
"15 712 LINE",
"15 707 LINE"
);
}
);
width = 793;
}
);
leftKerningGroup = U;
rightKerningGroup = U;
rightMetricsKey = J;
unicode = 0055;
},
{
color = 5;
glyphname = Uogonek;
lastChange = "2022-11-11 10:35:07 +0000";
layers = (
{
anchors = (
{
name = ogonek;
position = "{589, 0}";
},
{
name = top;
position = "{396, 712}";
}
);
background = {
anchors = (
{
name = ogonek;
position = "{589, 0}";
},
{
name = top;
position = "{396, 712}";
}
);
components = (
{
name = U;
},
{
name = ogonekcomb;
transform = "{1, 0, 0, 1, 272, 0}";
}
);
};
layerId = "5ECA14C9-9880-4A66-8675-45EB4FCF3EF2";
paths = (
{
closed = 1;
nodes = (
"72 687 LINE",
"72 248 LINE SMOOTH",
"72 77 OFFCURVE",
"161 -13 OFFCURVE",
"383 -13 CURVE SMOOTH",
"481 -13 OFFCURVE",
"555 3 OFFCURVE",
"608 35 CURVE",
"610 31 LINE",
"512 -45 OFFCURVE",
"437 -93 OFFCURVE",
"437 -151 CURVE SMOOTH",
"437 -194 OFFCURVE",
"478 -237 OFFCURVE",
"537 -237 CURVE SMOOTH",
"598 -237 OFFCURVE",
"649 -192 OFFCURVE",
"684 -154 CURVE",
"684 -147 LINE",
"671 -156 OFFCURVE",
"655 -165 OFFCURVE",
"633 -165 CURVE SMOOTH",
"590 -165 OFFCURVE",
"560 -137 OFFCURVE",
"560 -89 CURVE SMOOTH",
"560 -48 OFFCURVE",
"583 -15 OFFCURVE",
"655 71 CURVE SMOOTH",
"703 129 OFFCURVE",
"721 193 OFFCURVE",
"721 283 CURVE SMOOTH",
"721 687 LINE",
"778 707 LINE",
"778 712 LINE",
"507 712 LINE",
"507 707 LINE",
"523 704 LINE SMOOTH",
"638 682 OFFCURVE",
"709 611 OFFCURVE",
"709 332 CURVE SMOOTH",
"709 288 LINE SMOOTH",
"709 190 OFFCURVE",
"656 135 OFFCURVE",
"496 135 CURVE SMOOTH",
"332 135 OFFCURVE",
"278 188 OFFCURVE",
"278 288 CURVE SMOOTH",
"278 687 LINE",
"341 707 LINE",
"341 712 LINE",
"15 712 LINE",
"15 707 LINE"
);
}
);
width = 793;
}
);
leftKerningGroup = U;
rightKerningGroup = U;
unicode = 0172;
},
{
color = 9;
glyphname = V;
lastChange = "2023-01-13 20:59:42 +0000";
layers = (
{
background = {
paths = (
{
closed = 1;
nodes = (
"478 712 LINE",
"478 711 LINE",
"520 704 LINE SMOOTH",
"635 685 OFFCURVE",
"687 615 OFFCURVE",
"549 326 CURVE SMOOTH",
"488 198 LINE",
"254 687 LINE",
"338 711 LINE",
"338 712 LINE",
"-20 712 LINE",
"-20 711 LINE",
"32 687 LINE",
"393 -27 LINE",
"394 -27 LINE",
"733 687 LINE",
"785 711 LINE",
"785 712 LINE"
);
}
);
};
layerId = "5ECA14C9-9880-4A66-8675-45EB4FCF3EF2";
paths = (
{
closed = 1;
nodes = (
"495 712 LINE",
"495 707 LINE",
"518 703 LINE SMOOTH",
"634 683 OFFCURVE",
"687 614 OFFCURVE",
"549 326 CURVE SMOOTH",
"493 209 LINE",
"254 687 LINE",
"333 707 LINE",
"333 712 LINE",
"-15 712 LINE",
"-15 707 LINE",
"32 687 LINE",
"392 -27 LINE",
"395 -27 LINE",
"733 687 LINE",
"780 707 LINE",
"780 712 LINE"
);
}
);
width = 765;
}
);
leftKerningGroup = V;
leftMetricsKey = A;
rightKerningGroup = V;
rightMetricsKey = A;
unicode = 0056;
},
{
color = 9;
glyphname = W;
lastChange = "2023-01-13 20:59:42 +0000";
layers = (
{
anchors = (
{
name = top;
position = "{588, 712}";
}
);
background = {
paths = (
{
closed = 1;
nodes = (
"37 687 LINE",
"327 -27 LINE",
"328 -27 LINE",
"533 432 LINE",
"771 -27 LINE",
"773 -27 LINE",
"1063 687 LINE",
"1120 711 LINE",
"1120 712 LINE",
"811 712 LINE",
"811 711 LINE",
"853 704 LINE SMOOTH",
"968 685 OFFCURVE",
"1021 618 OFFCURVE",
"896 308 CURVE SMOOTH",
"860 219 LINE",
"591 739 LINE",
"590 739 LINE",
"428 222 LINE",
"248 687 LINE",
"340 711 LINE",
"340 712 LINE",
"-20 712 LINE",
"-20 711 LINE"
);
}
);
};
layerId = "5ECA14C9-9880-4A66-8675-45EB4FCF3EF2";
paths = (
{
closed = 1;
nodes = (
"37 687 LINE",
"326 -27 LINE",
"329 -27 LINE",
"532 428 LINE",
"771 -27 LINE",
"774 -27 LINE",
"1063 687 LINE",
"1115 707 LINE",
"1115 712 LINE",
"831 712 LINE",
"831 707 LINE",
"857 702 LINE SMOOTH",
"982 678 OFFCURVE",
"1025 624 OFFCURVE",
"898 311 CURVE SMOOTH",
"862 222 LINE",
"592 739 LINE",
"589 739 LINE",
"431 227 LINE",
"251 687 LINE",
"338 707 LINE",
"338 712 LINE",
"-15 712 LINE",
"-15 707 LINE"
);
}
);
width = 1100;
}
);
leftKerningGroup = W;
rightKerningGroup = W;
unicode = 0057;
},
{
color = 9;
glyphname = X;
lastChange = "2023-01-13 20:59:42 +0000";
layers = (
{
background = {
paths = (
{
closed = 1;
nodes = (
"367 711 LINE",
"367 712 LINE",
"2 712 LINE",
"2 711 LINE",
"54 687 LINE",
"515 25 LINE",
"425 1 LINE",
"425 0 LINE",
"802 0 LINE",
"802 1 LINE",
"748 25 LINE",
"287 687 LINE"
);
},
{
closed = 1;
nodes = (
"32 25 LINE",
"-20 1 LINE",
"-20 0 LINE",
"292 0 LINE",
"292 1 LINE",
"269 6 LINE SMOOTH",
"147 33 OFFCURVE",
"128 91 OFFCURVE",
"268 261 CURVE SMOOTH",
"319 323 LINE",
"314 332 LINE"
);
},
{
closed = 1;
nodes = (
"685 687 LINE",
"735 711 LINE",
"735 712 LINE",
"456 712 LINE",
"456 711 LINE",
"480 707 LINE SMOOTH",
"583 690 OFFCURVE",
"610 641 OFFCURVE",
"482 490 CURVE SMOOTH",
"442 443 LINE",
"447 434 LINE"
);
}
);
};
layerId = "5ECA14C9-9880-4A66-8675-45EB4FCF3EF2";
paths = (
{
closed = 1;
nodes = (
"366 707 LINE",
"366 712 LINE",
"7 712 LINE",
"7 707 LINE",
"54 687 LINE",
"511 25 LINE",
"426 5 LINE",
"426 0 LINE",
"795 0 LINE",
"795 5 LINE",
"748 25 LINE",
"291 687 LINE"
);
},
{
closed = 1;
nodes = (
"32 25 LINE",
"-15 5 LINE",
"-15 0 LINE",
"284 0 LINE",
"284 5 LINE",
"261 10 LINE SMOOTH",
"143 36 OFFCURVE",
"124 89 OFFCURVE",
"272 269 CURVE SMOOTH",
"318 325 LINE",
"313 334 LINE"
);
},
{
closed = 1;
nodes = (
"684 687 LINE",
"727 707 LINE",
"727 712 LINE",
"475 712 LINE",
"475 707 LINE",
"496 702 LINE SMOOTH",
"590 680 OFFCURVE",
"610 638 OFFCURVE",
"482 488 CURVE SMOOTH",
"442 441 LINE",
"447 432 LINE"
);
}
);
width = 780;
}
);
leftKerningGroup = X;
rightKerningGroup = X;
unicode = 0058;
},
{
color = 9;
glyphname = Y;
lastChange = "2023-01-13 20:59:42 +0000";
layers = (
{
anchors = (
{
name = top;
position = "{381, 712}";
}
);
background = {
paths = (
{
closed = 1;
nodes = (
"-2 687 LINE",
"264 336 LINE",
"264 25 LINE",
"162 1 LINE",
"162 0 LINE",
"570 0 LINE",
"570 1 LINE",
"468 25 LINE",
"468 368 LINE",
"734 687 LINE",
"779 711 LINE",
"779 712 LINE",
"484 712 LINE",
"484 711 LINE",
"502 707 LINE SMOOTH",
"591 687 OFFCURVE",
"630 641 OFFCURVE",
"529 476 CURVE SMOOTH",
"466 373 LINE",
"236 687 LINE",
"318 711 LINE",
"318 712 LINE",
"-52 712 LINE",
"-52 711 LINE"
);
}
);
};
layerId = "5ECA14C9-9880-4A66-8675-45EB4FCF3EF2";
paths = (
{
closed = 1;
nodes = (
"25 687 LINE",
"264 324 LINE",
"264 25 LINE",
"179 5 LINE",
"179 0 LINE",
"553 0 LINE",
"553 5 LINE",
"468 25 LINE",
"468 368 LINE",
"706 687 LINE",
"751 707 LINE",
"751 712 LINE",
"462 712 LINE",
"462 707 LINE",
"490 702 LINE SMOOTH",
"610 681 OFFCURVE",
"647 629 OFFCURVE",
"500 430 CURVE SMOOTH",
"461 377 LINE",
"261 687 LINE",
"343 707 LINE",
"343 712 LINE",
"-25 712 LINE",
"-25 707 LINE"
);
}
);
width = 726;
}
);
leftKerningGroup = Y;
rightKerningGroup = Y;
unicode = 0059;
},
{
color = 9;
glyphname = Z;
lastChange = "2023-01-13 20:59:42 +0000";
layers = (
{
anchors = (
{
name = top;
position = "{329, 712}";
}
);
background = {
paths = (
{
closed = 1;
nodes = (
"14 508 LINE",
"15 508 LINE",
"27 535 LINE SMOOTH",
"76 644 OFFCURVE",
"151 700 OFFCURVE",
"326 700 CURVE SMOOTH",
"392 700 LINE",
"10 1 LINE",
"10 0 LINE",
"622 0 LINE",
"659 265 LINE",
"658 265 LINE",
"640 216 LINE SMOOTH",
"591 83 OFFCURVE",
"515 12 OFFCURVE",
"298 12 CURVE SMOOTH",
"239 12 LINE",
"621 711 LINE",
"621 712 LINE",
"72 712 LINE",
"68 780 LINE",
"67 780 LINE"
);
}
);
};
guideLines = (
{
angle = 81.3557;
position = "{52, 0}";
}
);
layerId = "5ECA14C9-9880-4A66-8675-45EB4FCF3EF2";
paths = (
{
closed = 1;
nodes = (
"14 508 LINE",
"20 508 LINE",
"29 531 LINE SMOOTH",
"76 651 OFFCURVE",
"151 700 OFFCURVE",
"326 700 CURVE SMOOTH",
"390 700 LINE",
"10 2 LINE",
"10 0 LINE",
"622 0 LINE",
"659 265 LINE",
"653 265 LINE",
"642 228 LINE SMOOTH",
"598 80 OFFCURVE",
"515 12 OFFCURVE",
"298 12 CURVE SMOOTH",
"241 12 LINE",
"621 710 LINE",
"621 712 LINE",
"77 712 LINE",
"72 770 LINE",
"67 770 LINE"
);
}
);
width = 664;
}
);
leftKerningGroup = Z;
rightKerningGroup = Z;
unicode = 005A;
},
{
color = 3;
glyphname = T_h.dlig;
lastChange = "2023-01-13 20:59:42 +0000";
layers = (
{
anchors = (
{
name = bottom;
position = "{354, 0}";
},
{
name = top;
position = "{354, 712}";
}
);
background = {
paths = (
{
closed = 1;
nodes = (
"1 500 LINE",
"22 536 LINE SMOOTH",
"90 652 OFFCURVE",
"163 706 OFFCURVE",
"252 708 CURVE",
"252 708 LINE",
"252 25 LINE",
"165 1 LINE",
"165 0 LINE",
"543 0 LINE",
"543 1 LINE",
"456 25 LINE",
"456 708 LINE",
"456 708 LINE",
"528 706 OFFCURVE",
"594 673 OFFCURVE",
"630 655 CURVE",
"630 25 LINE",
"565 1 LINE",
"565 0 LINE",
"880 0 LINE",
"880 1 LINE",
"820 25 LINE",
"820 388 LINE",
"840 399 OFFCURVE",
"857 407 OFFCURVE",
"882 407 CURVE SMOOTH",
"920 407 OFFCURVE",
"951 378 OFFCURVE",
"951 321 CURVE SMOOTH",
"951 25 LINE",
"891 1 LINE",
"891 0 LINE",
"1201 0 LINE",
"1201 1 LINE",
"1141 25 LINE",
"1141 338 LINE SMOOTH",
"1141 453 OFFCURVE",
"1079 518 OFFCURVE",
"1007 518 CURVE SMOOTH",
"957 518 OFFCURVE",
"891 455 OFFCURVE",
"820 392 CURVE",
"820 791 LINE",
"819 791 LINE",
"630 712 LINE",
"70 712 LINE",
"69 780 LINE",
"68 780 LINE",
"0 500 LINE"
);
}
);
};
layerId = "5ECA14C9-9880-4A66-8675-45EB4FCF3EF2";
paths = (
{
closed = 1;
nodes = (
"10 508 LINE",
"24 533 LINE SMOOTH",
"83 639 OFFCURVE",
"177 700 OFFCURVE",
"272 701 CURVE",
"272 701 LINE",
"272 25 LINE",
"195 5 LINE",
"195 0 LINE",
"551 0 LINE",
"551 5 LINE",
"476 25 LINE",
"476 701 LINE",
"680 701 LINE",
"661 712 LINE",
"87 712 LINE",
"81 770 LINE",
"76 770 LINE",
"5 508 LINE"
);
},
{
closed = 1;
nodes = (
"1148 470 OFFCURVE",
"1092 523 OFFCURVE",
"1024 523 CURVE SMOOTH",
"962 523 OFFCURVE",
"896 463 OFFCURVE",
"827 402 CURVE",
"827 786 LINE",
"826 786 LINE",
"582 712 LINE",
"582 707 LINE",
"637 704 LINE",
"637 25 LINE",
"582 5 LINE",
"582 0 LINE",
"877 0 LINE",
"877 5 LINE",
"827 25 LINE",
"827 391 LINE",
"847 402 OFFCURVE",
"864 412 OFFCURVE",
"891 412 CURVE SMOOTH",
"931 412 OFFCURVE",
"958 387 OFFCURVE",
"958 330 CURVE SMOOTH",
"958 25 LINE",
"908 5 LINE",
"908 0 LINE",
"1198 0 LINE",
"1198 5 LINE",
"1148 25 LINE",
"1148 363 LINE SMOOTH"
);
}
);
width = 1211;
}
);
leftKerningGroup = T;
leftMetricsKey = T;
rightKerningGroup = n;
rightMetricsKey = h;
},
{
color = 3;
glyphname = a;
lastChange = "2023-01-13 20:59:42 +0000";
layers = (
{
anchors = (
{
name = ogonek;
position = "{456, 0}";
},
{
name = top;
position = "{247, 508}";
}
);
background = {
paths = (
{
closed = 1;
nodes = (
"307 -13 OFFCURVE",
"376 -13 CURVE SMOOTH",
"432 -13 OFFCURVE",
"482 19 OFFCURVE",
"541 52 CURVE",
"541 59 LINE",
"525 54 OFFCURVE",
"514 50 OFFCURVE",
"497 50 CURVE SMOOTH",
"471 50 OFFCURVE",
"456 66 OFFCURVE",
"456 87 CURVE SMOOTH",
"456 366 LINE SMOOTH",
"456 463 OFFCURVE",
"393 523 OFFCURVE",
"307 523 CURVE SMOOTH",
"255 523 OFFCURVE",
"210 501 OFFCURVE",
"135 451 CURVE SMOOTH",
"57 399 OFFCURVE",
"30 368 OFFCURVE",
"30 332 CURVE SMOOTH",
"30 296 OFFCURVE",
"57 274 OFFCURVE",
"98 274 CURVE SMOOTH",
"128 274 OFFCURVE",
"148 286 OFFCURVE",
"156 292 CURVE",
"151 311 LINE SMOOTH",
"142 345 OFFCURVE",
"137 367 OFFCURVE",
"137 392 CURVE SMOOTH",
"137 450 OFFCURVE",
"169 468 OFFCURVE",
"204 468 CURVE SMOOTH",
"242 468 OFFCURVE",
"270 443 OFFCURVE",
"270 359 CURVE SMOOTH",
"270 227 LINE",
"74 139 LINE SMOOTH",
"30 119 OFFCURVE",
"15 108 OFFCURVE",
"15 83 CURVE SMOOTH",
"15 36 OFFCURVE",
"62 -15 OFFCURVE",
"128 -15 CURVE SMOOTH",
"192 -15 OFFCURVE",
"227 31 OFFCURVE",
"273 82 CURVE",
"272 91 LINE",
"262 85 OFFCURVE",
"253 78 OFFCURVE",
"238 78 CURVE SMOOTH",
"212 78 OFFCURVE",
"185 109 OFFCURVE",
"185 144 CURVE SMOOTH",
"185 167 OFFCURVE",
"199 180 OFFCURVE",
"229 195 CURVE SMOOTH",
"270 215 LINE",
"270 96 LINE SMOOTH",
"270 33 OFFCURVE"
);
}
);
};
layerId = "5ECA14C9-9880-4A66-8675-45EB4FCF3EF2";
paths = (
{
closed = 1;
nodes = (
"432 -13 OFFCURVE",
"482 19 OFFCURVE",
"541 52 CURVE",
"541 59 LINE",
"525 54 OFFCURVE",
"514 50 OFFCURVE",
"497 50 CURVE SMOOTH",
"471 50 OFFCURVE",
"456 66 OFFCURVE",
"456 87 CURVE SMOOTH",
"456 366 LINE SMOOTH",
"456 463 OFFCURVE",
"393 523 OFFCURVE",
"307 523 CURVE SMOOTH",
"255 523 OFFCURVE",
"210 501 OFFCURVE",
"135 451 CURVE SMOOTH",
"57 399 OFFCURVE",
"30 368 OFFCURVE",
"30 332 CURVE SMOOTH",
"30 296 OFFCURVE",
"57 274 OFFCURVE",
"98 274 CURVE SMOOTH",
"128 274 OFFCURVE",
"148 286 OFFCURVE",
"156 292 CURVE",
"151 311 LINE SMOOTH",
"142 345 OFFCURVE",
"137 367 OFFCURVE",
"137 392 CURVE SMOOTH",
"137 450 OFFCURVE",
"169 468 OFFCURVE",
"204 468 CURVE SMOOTH",
"242 468 OFFCURVE",
"270 443 OFFCURVE",
"270 359 CURVE SMOOTH",
"270 231 LINE",
"74 143 LINE SMOOTH",
"30 123 OFFCURVE",
"15 108 OFFCURVE",
"15 80 CURVE SMOOTH",
"15 33 OFFCURVE",
"56 -15 OFFCURVE",
"129 -15 CURVE SMOOTH",
"201 -15 OFFCURVE",
"238 31 OFFCURVE",
"273 87 CURVE",
"270 96 LINE",
"264 87 OFFCURVE",
"254 80 OFFCURVE",
"236 80 CURVE SMOOTH",
"206 80 OFFCURVE",
"185 104 OFFCURVE",
"185 136 CURVE SMOOTH",
"185 166 OFFCURVE",
"201 185 OFFCURVE",
"237 203 CURVE SMOOTH",
"270 219 LINE",
"270 96 LINE SMOOTH",
"270 33 OFFCURVE",
"307 -13 OFFCURVE",
"376 -13 CURVE SMOOTH"
);
}
);
width = 526;
}
);
leftKerningGroup = a;
rightKerningGroup = a;
unicode = 0061;
},
{
color = 5;
glyphname = aogonek;
lastChange = "2022-11-11 10:35:07 +0000";
layers = (
{
anchors = (
{
name = ogonek;
position = "{448, 0}";
},
{
name = top;
position = "{239, 508}";
}
);
background = {
anchors = (
{
name = ogonek;
position = "{448, 0}";
},
{
name = top;
position = "{239, 508}";
}
);
components = (
{
name = a;
},
{
name = ogonekcomb;
transform = "{1, 0, 0, 1, 137, 0}";
}
);
};
layerId = "5ECA14C9-9880-4A66-8675-45EB4FCF3EF2";
paths = (
{
closed = 1;
nodes = (
"428 -13 OFFCURVE",
"482 20 OFFCURVE",
"541 52 CURVE",
"541 59 LINE",
"525 54 OFFCURVE",
"514 50 OFFCURVE",
"497 50 CURVE SMOOTH",
"471 50 OFFCURVE",
"456 66 OFFCURVE",
"456 87 CURVE SMOOTH",
"456 366 LINE SMOOTH",
"456 463 OFFCURVE",
"393 523 OFFCURVE",
"307 523 CURVE SMOOTH",
"255 523 OFFCURVE",
"210 501 OFFCURVE",
"135 451 CURVE SMOOTH",
"57 399 OFFCURVE",
"30 368 OFFCURVE",
"30 332 CURVE SMOOTH",
"30 296 OFFCURVE",
"57 274 OFFCURVE",
"98 274 CURVE SMOOTH",
"128 274 OFFCURVE",
"148 286 OFFCURVE",
"156 292 CURVE",
"151 311 LINE SMOOTH",
"142 345 OFFCURVE",
"137 367 OFFCURVE",
"137 392 CURVE SMOOTH",
"137 450 OFFCURVE",
"169 468 OFFCURVE",
"204 468 CURVE SMOOTH",
"242 468 OFFCURVE",
"270 443 OFFCURVE",
"270 359 CURVE SMOOTH",
"270 231 LINE",
"74 143 LINE SMOOTH",
"30 123 OFFCURVE",
"15 108 OFFCURVE",
"15 80 CURVE SMOOTH",
"15 33 OFFCURVE",
"56 -15 OFFCURVE",
"129 -15 CURVE SMOOTH",
"201 -15 OFFCURVE",
"238 31 OFFCURVE",
"273 87 CURVE",
"270 96 LINE",
"264 87 OFFCURVE",
"254 80 OFFCURVE",
"236 80 CURVE SMOOTH",
"206 80 OFFCURVE",
"185 104 OFFCURVE",
"185 136 CURVE SMOOTH",
"185 166 OFFCURVE",
"201 185 OFFCURVE",
"237 203 CURVE SMOOTH",
"270 219 LINE",
"270 96 LINE SMOOTH",
"270 33 OFFCURVE",
"307 -13 OFFCURVE",
"376 -13 CURVE SMOOTH"
);
},
{
closed = 1;
nodes = (
"452 0 LINE",
"354 -58 OFFCURVE",
"297 -100 OFFCURVE",
"297 -151 CURVE SMOOTH",
"297 -194 OFFCURVE",
"338 -237 OFFCURVE",
"397 -237 CURVE SMOOTH",
"458 -237 OFFCURVE",
"509 -192 OFFCURVE",
"544 -154 CURVE",
"544 -147 LINE",
"531 -156 OFFCURVE",
"515 -165 OFFCURVE",
"493 -165 CURVE SMOOTH",
"450 -165 OFFCURVE",
"420 -137 OFFCURVE",
"420 -90 CURVE SMOOTH",
"420 -46 OFFCURVE",
"450 -4 OFFCURVE",
"541 52 CURVE",
"441 24 LINE"
);
}
);
width = 526;
}
);
leftKerningGroup = a;
rightKerningGroup = a;
unicode = 0105;
},
{
color = 3;
glyphname = aringacute;
lastChange = "2023-01-13 20:59:42 +0000";
layers = (
{
anchors = (
{
name = ogonek;
position = "{448, 0}";
},
{
name = top;
position = "{239, 508}";
}
);
background = {
paths = (
{
closed = 1;
nodes = (
"306 548 OFFCURVE",
"357 601 OFFCURVE",
"357 665 CURVE SMOOTH",
"357 732 OFFCURVE",
"308 782 OFFCURVE",
"243 784 CURVE",
"442 977 LINE",
"442 978 LINE",
"263 978 LINE",
"238 784 LINE",
"170 783 OFFCURVE",
"120 733 OFFCURVE",
"120 665 CURVE SMOOTH",
"120 599 OFFCURVE",
"171 548 OFFCURVE",
"239 548 CURVE SMOOTH"
);
},
{
closed = 1;
nodes = (
"303 779 OFFCURVE",
"352 730 OFFCURVE",
"352 665 CURVE SMOOTH",
"352 603 OFFCURVE",
"303 553 OFFCURVE",
"239 553 CURVE SMOOTH",
"174 553 OFFCURVE",
"125 602 OFFCURVE",
"125 665 CURVE SMOOTH",
"125 730 OFFCURVE",
"174 779 OFFCURVE",
"239 779 CURVE SMOOTH"
);
},
{
closed = 1;
nodes = (
"461 70 OFFCURVE",
"440 86 OFFCURVE",
"440 107 CURVE SMOOTH",
"440 303 LINE SMOOTH",
"440 432 OFFCURVE",
"348 518 OFFCURVE",
"277 518 CURVE SMOOTH",
"230 518 OFFCURVE",
"134 452 OFFCURVE",
"28 384 CURVE",
"28 383 LINE",
"61 393 OFFCURVE",
"96 404 OFFCURVE",
"137 404 CURVE SMOOTH",
"213 404 OFFCURVE",
"262 356 OFFCURVE",
"262 272 CURVE SMOOTH",
"262 241 LINE",
"143 223 LINE SMOOTH",
"41 207 OFFCURVE",
"5 170 OFFCURVE",
"5 119 CURVE SMOOTH",
"5 53 OFFCURVE",
"66 -10 OFFCURVE",
"125 -10 CURVE SMOOTH",
"180 -10 OFFCURVE",
"216 36 OFFCURVE",
"265 90 CURVE",
"277 33 OFFCURVE",
"330 -8 OFFCURVE",
"379 -8 CURVE SMOOTH",
"425 -8 OFFCURVE",
"480 41 OFFCURVE",
"525 77 CURVE",
"525 78 LINE",
"514 74 OFFCURVE",
"503 70 OFFCURVE",
"487 70 CURVE SMOOTH"
);
},
{
closed = 1;
nodes = (
"203 83 OFFCURVE",
"174 112 OFFCURVE",
"174 156 CURVE SMOOTH",
"174 186 OFFCURVE",
"187 200 OFFCURVE",
"227 220 CURVE SMOOTH",
"262 237 LINE",
"262 116 LINE SMOOTH",
"262 109 OFFCURVE",
"263 101 OFFCURVE",
"264 94 CURVE",
"253 87 OFFCURVE",
"244 83 OFFCURVE",
"231 83 CURVE SMOOTH"
);
}
);
};
components = (
{
name = a;
}
);
layerId = "5ECA14C9-9880-4A66-8675-45EB4FCF3EF2";
paths = (
{
closed = 1;
nodes = (
"314 548 OFFCURVE",
"365 601 OFFCURVE",
"365 665 CURVE SMOOTH",
"365 733 OFFCURVE",
"314 784 OFFCURVE",
"247 784 CURVE SMOOTH",
"179 784 OFFCURVE",
"128 733 OFFCURVE",
"128 665 CURVE SMOOTH",
"128 599 OFFCURVE",
"179 548 OFFCURVE",
"247 548 CURVE SMOOTH"
);
},
{
closed = 1;
nodes = (
"185 559 OFFCURVE",
"139 605 OFFCURVE",
"139 665 CURVE SMOOTH",
"139 727 OFFCURVE",
"185 773 OFFCURVE",
"247 773 CURVE SMOOTH",
"308 773 OFFCURVE",
"354 727 OFFCURVE",
"354 665 CURVE SMOOTH",
"354 606 OFFCURVE",
"308 559 OFFCURVE",
"247 559 CURVE SMOOTH"
);
},
{
closed = 1;
nodes = (
"241 779 LINE",
"327 837 OFFCURVE",
"411 917 OFFCURVE",
"450 973 CURVE",
"450 978 LINE",
"281 978 LINE",
"276 917 OFFCURVE",
"260 833 OFFCURVE",
"236 779 CURVE"
);
}
);
width = 526;
}
);
leftKerningGroup = a;
leftMetricsKey = a;
rightKerningGroup = a;
rightMetricsKey = a;
unicode = 01FB;
},
{
color = 3;
glyphname = ae;
lastChange = "2023-01-13 20:59:42 +0000";
layers = (
{
anchors = (
{
name = top;
position = "{392, 508}";
}
);
background = {
paths = (
{
closed = 1;
nodes = (
"765 377 LINE",
"757 451 OFFCURVE",
"684 518 OFFCURVE",
"550 518 CURVE SMOOTH",
"401 518 OFFCURVE",
"270 413 OFFCURVE",
"270 241 CURVE SMOOTH",
"270 91 OFFCURVE",
"380 -10 OFFCURVE",
"530 -10 CURVE SMOOTH",
"685 -10 OFFCURVE",
"759 109 OFFCURVE",
"787 206 CURVE",
"781 208 LINE",
"762 154 OFFCURVE",
"733 117 OFFCURVE",
"650 117 CURVE SMOOTH",
"532 117 OFFCURVE",
"460 189 OFFCURVE",
"460 359 CURVE SMOOTH",
"460 454 OFFCURVE",
"487 506 OFFCURVE",
"521 506 CURVE SMOOTH",
"555 506 OFFCURVE",
"585 456 OFFCURVE",
"586 394 CURVE",
"453 386 LINE",
"453 377 LINE"
);
},
{
closed = 1;
nodes = (
"451 359 LINE",
"451 458 OFFCURVE",
"389 518 OFFCURVE",
"303 518 CURVE SMOOTH",
"260 518 OFFCURVE",
"215 500 OFFCURVE",
"135 447 CURVE SMOOTH",
"57 395 OFFCURVE",
"30 364 OFFCURVE",
"30 329 CURVE SMOOTH",
"30 296 OFFCURVE",
"57 271 OFFCURVE",
"100 271 CURVE SMOOTH",
"132 271 OFFCURVE",
"151 283 OFFCURVE",
"159 289 CURVE",
"152 316 LINE SMOOTH",
"122 430 OFFCURVE",
"156 464 OFFCURVE",
"202 464 CURVE SMOOTH",
"240 464 OFFCURVE",
"270 439 OFFCURVE",
"270 354 CURVE SMOOTH",
"270 234 LINE",
"82 154 LINE SMOOTH",
"30 132 OFFCURVE",
"15 115 OFFCURVE",
"15 89 CURVE SMOOTH",
"15 40 OFFCURVE",
"64 -10 OFFCURVE",
"137 -10 CURVE SMOOTH",
"211 -10 OFFCURVE",
"258 34 OFFCURVE",
"310 109 CURVE",
"305 119 LINE",
"287 94 OFFCURVE",
"270 83 OFFCURVE",
"246 83 CURVE SMOOTH",
"213 83 OFFCURVE",
"185 114 OFFCURVE",
"185 151 CURVE SMOOTH",
"185 174 OFFCURVE",
"199 189 OFFCURVE",
"229 203 CURVE SMOOTH",
"281 227 LINE"
);
}
);
};
layerId = "5ECA14C9-9880-4A66-8675-45EB4FCF3EF2";
paths = (
{
closed = 1;
nodes = (
"765 382 LINE",
"757 456 OFFCURVE",
"684 523 OFFCURVE",
"550 523 CURVE SMOOTH",
"401 523 OFFCURVE",
"270 418 OFFCURVE",
"270 241 CURVE SMOOTH",
"270 86 OFFCURVE",
"380 -15 OFFCURVE",
"530 -15 CURVE SMOOTH",
"690 -15 OFFCURVE",
"759 104 OFFCURVE",
"787 201 CURVE",
"781 203 LINE",
"762 149 OFFCURVE",
"733 112 OFFCURVE",
"650 112 CURVE SMOOTH",
"532 112 OFFCURVE",
"460 184 OFFCURVE",
"460 359 CURVE SMOOTH",
"460 459 OFFCURVE",
"487 511 OFFCURVE",
"522 511 CURVE SMOOTH",
"556 511 OFFCURVE",
"581 461 OFFCURVE",
"586 399 CURVE",
"453 391 LINE",
"453 382 LINE"
);
},
{
closed = 1;
nodes = (
"15 33 OFFCURVE",
"58 -15 OFFCURVE",
"140 -15 CURVE SMOOTH",
"219 -15 OFFCURVE",
"270 31 OFFCURVE",
"309 106 CURVE",
"304 116 LINE",
"291 93 OFFCURVE",
"273 80 OFFCURVE",
"245 80 CURVE SMOOTH",
"209 80 OFFCURVE",
"185 104 OFFCURVE",
"185 137 CURVE SMOOTH",
"185 166 OFFCURVE",
"201 185 OFFCURVE",
"237 203 CURVE SMOOTH",
"282 225 LINE",
"456 366 LINE",
"456 461 OFFCURVE",
"392 523 OFFCURVE",
"307 523 CURVE SMOOTH",
"255 523 OFFCURVE",
"210 501 OFFCURVE",
"135 451 CURVE SMOOTH",
"57 399 OFFCURVE",
"30 368 OFFCURVE",
"30 332 CURVE SMOOTH",
"30 296 OFFCURVE",
"57 274 OFFCURVE",
"98 274 CURVE SMOOTH",
"128 274 OFFCURVE",
"148 286 OFFCURVE",
"156 292 CURVE",
"151 311 LINE SMOOTH",
"142 345 OFFCURVE",
"137 367 OFFCURVE",
"137 392 CURVE SMOOTH",
"137 450 OFFCURVE",
"169 468 OFFCURVE",
"204 468 CURVE SMOOTH",
"242 468 OFFCURVE",
"270 443 OFFCURVE",
"270 359 CURVE SMOOTH",
"270 231 LINE",
"74 143 LINE SMOOTH",
"30 123 OFFCURVE",
"15 108 OFFCURVE",
"15 80 CURVE SMOOTH"
);
}
);
width = 787;
}
);
leftKerningGroup = a;
leftMetricsKey = a;
rightKerningGroup = e;
rightMetricsKey = e;
unicode = 00E6;
},
{
color = 3;
glyphname = b;
lastChange = "2023-01-13 20:59:42 +0000";
layers = (
{
anchors = (
{
name = top;
position = "{343, 772}";
}
);
background = {
paths = (
{
closed = 1;
nodes = (
"378 518 OFFCURVE",
"311 449 OFFCURVE",
"253 395 CURVE",
"253 791 LINE",
"252 791 LINE",
"-2 713 LINE",
"-2 712 LINE",
"63 712 LINE",
"63 -53 LINE",
"64 -53 LINE",
"91 42 LINE",
"202 12 OFFCURVE",
"276 -10 OFFCURVE",
"338 -10 CURVE SMOOTH",
"487 -10 OFFCURVE",
"613 113 OFFCURVE",
"613 288 CURVE SMOOTH",
"613 427 OFFCURVE",
"516 518 OFFCURVE",
"432 518 CURVE SMOOTH"
);
},
{
closed = 1;
nodes = (
"307 0 OFFCURVE",
"285 20 OFFCURVE",
"253 50 CURVE",
"253 383 LINE",
"266 392 OFFCURVE",
"281 404 OFFCURVE",
"308 404 CURVE SMOOTH",
"360 404 OFFCURVE",
"421 349 OFFCURVE",
"421 208 CURVE SMOOTH",
"421 59 OFFCURVE",
"365 0 OFFCURVE",
"331 0 CURVE SMOOTH"
);
}
);
};
layerId = "5ECA14C9-9880-4A66-8675-45EB4FCF3EF2";
paths = (
{
closed = 1;
nodes = (
"372 523 OFFCURVE",
"309 456 OFFCURVE",
"253 400 CURVE",
"253 786 LINE",
"252 786 LINE",
"8 712 LINE",
"8 707 LINE",
"63 690 LINE",
"63 -25 LINE",
"68 -25 LINE",
"106 40 LINE",
"206 8 OFFCURVE",
"272 -15 OFFCURVE",
"338 -15 CURVE SMOOTH",
"489 -15 OFFCURVE",
"613 106 OFFCURVE",
"613 290 CURVE SMOOTH",
"613 438 OFFCURVE",
"522 523 OFFCURVE",
"440 523 CURVE SMOOTH"
);
},
{
closed = 1;
nodes = (
"302 -4 OFFCURVE",
"276 19 OFFCURVE",
"253 48 CURVE",
"253 388 LINE",
"266 397 OFFCURVE",
"283 409 OFFCURVE",
"304 409 CURVE SMOOTH",
"360 409 OFFCURVE",
"421 354 OFFCURVE",
"421 198 CURVE SMOOTH",
"421 54 OFFCURVE",
"374 -4 OFFCURVE",
"333 -4 CURVE SMOOTH"
);
}
);
width = 643;
}
);
leftKerningGroup = b;
leftMetricsKey = "=h-5";
rightKerningGroup = b;
rightMetricsKey = p;
unicode = 0062;
},
{
color = 3;
glyphname = c;
lastChange = "2023-01-13 20:59:42 +0000";
layers = (
{
anchors = (
{
name = bottom;
position = "{275, 0}";
},
{
name = top;
position = "{290, 508}";
}
);
background = {
paths = (
{
closed = 1;
nodes = (
"20 87 OFFCURVE",
"127 -10 OFFCURVE",
"269 -10 CURVE SMOOTH",
"418 -10 OFFCURVE",
"486 101 OFFCURVE",
"528 206 CURVE",
"522 209 LINE",
"496 160 OFFCURVE",
"469 119 OFFCURVE",
"396 119 CURVE SMOOTH",
"291 119 OFFCURVE",
"211 198 OFFCURVE",
"211 363 CURVE SMOOTH",
"211 449 OFFCURVE",
"240 507 OFFCURVE",
"282 507 CURVE SMOOTH",
"304 507 OFFCURVE",
"319 496 OFFCURVE",
"382 403 CURVE SMOOTH",
"441 316 LINE",
"468 326 OFFCURVE",
"500 355 OFFCURVE",
"500 397 CURVE SMOOTH",
"500 461 OFFCURVE",
"429 518 OFFCURVE",
"301 518 CURVE SMOOTH",
"147 518 OFFCURVE",
"20 414 OFFCURVE",
"20 243 CURVE SMOOTH"
);
}
);
};
layerId = "5ECA14C9-9880-4A66-8675-45EB4FCF3EF2";
paths = (
{
closed = 1;
nodes = (
"20 80 OFFCURVE",
"129 -15 OFFCURVE",
"276 -15 CURVE SMOOTH",
"428 -15 OFFCURVE",
"498 103 OFFCURVE",
"526 201 CURVE",
"520 203 LINE",
"502 151 OFFCURVE",
"472 112 OFFCURVE",
"393 112 CURVE SMOOTH",
"283 112 OFFCURVE",
"211 189 OFFCURVE",
"211 356 CURVE SMOOTH",
"211 459 OFFCURVE",
"238 512 OFFCURVE",
"275 512 CURVE SMOOTH",
"302 512 OFFCURVE",
"324 493 OFFCURVE",
"390 396 CURVE SMOOTH",
"441 321 LINE",
"468 331 OFFCURVE",
"500 360 OFFCURVE",
"500 401 CURVE SMOOTH",
"500 466 OFFCURVE",
"417 523 OFFCURVE",
"303 523 CURVE SMOOTH",
"149 523 OFFCURVE",
"20 415 OFFCURVE",
"20 241 CURVE SMOOTH"
);
}
);
width = 526;
}
);
leftKerningGroup = e;
leftMetricsKey = o;
rightKerningGroup = c;
unicode = 0063;
},
{
color = 3;
glyphname = d;
lastChange = "2023-01-13 20:59:42 +0000";
layers = (
{
anchors = (
{
name = top;
position = "{282, 772}";
}
);
background = {
paths = (
{
closed = 1;
nodes = (
"30 81 OFFCURVE",
"127 -10 OFFCURVE",
"211 -10 CURVE SMOOTH",
"265 -10 OFFCURVE",
"332 58 OFFCURVE",
"390 113 CURVE",
"390 -7 LINE",
"391 -7 LINE",
"640 73 LINE",
"640 74 LINE",
"580 74 LINE",
"580 791 LINE",
"579 791 LINE",
"315 713 LINE",
"315 712 LINE",
"390 712 LINE",
"390 505 LINE",
"359 512 OFFCURVE",
"331 518 OFFCURVE",
"305 518 CURVE SMOOTH",
"156 518 OFFCURVE",
"30 395 OFFCURVE",
"30 220 CURVE SMOOTH"
);
},
{
closed = 1;
nodes = (
"336 508 OFFCURVE",
"358 488 OFFCURVE",
"390 458 CURVE",
"390 125 LINE",
"377 116 OFFCURVE",
"362 104 OFFCURVE",
"335 104 CURVE SMOOTH",
"283 104 OFFCURVE",
"222 159 OFFCURVE",
"222 300 CURVE SMOOTH",
"222 449 OFFCURVE",
"278 508 OFFCURVE",
"312 508 CURVE SMOOTH"
);
}
);
};
layerId = "5ECA14C9-9880-4A66-8675-45EB4FCF3EF2";
paths = (
{
closed = 1;
nodes = (
"30 70 OFFCURVE",
"121 -15 OFFCURVE",
"203 -15 CURVE SMOOTH",
"271 -15 OFFCURVE",
"334 51 OFFCURVE",
"390 108 CURVE",
"390 -15 LINE",
"391 -15 LINE",
"630 61 LINE",
"630 66 LINE",
"580 66 LINE",
"580 786 LINE",
"579 786 LINE",
"325 712 LINE",
"325 707 LINE",
"390 690 LINE",
"390 511 LINE",
"363 517 OFFCURVE",
"335 523 OFFCURVE",
"305 523 CURVE SMOOTH",
"154 523 OFFCURVE",
"30 402 OFFCURVE",
"30 218 CURVE SMOOTH"
);
},
{
closed = 1;
nodes = (
"341 512 OFFCURVE",
"367 489 OFFCURVE",
"390 460 CURVE",
"390 120 LINE",
"377 111 OFFCURVE",
"362 99 OFFCURVE",
"339 99 CURVE SMOOTH",
"283 99 OFFCURVE",
"222 159 OFFCURVE",
"222 310 CURVE SMOOTH",
"222 454 OFFCURVE",
"269 512 OFFCURVE",
"311 512 CURVE SMOOTH"
);
}
);
width = 643;
}
);
leftKerningGroup = d;
leftMetricsKey = "=|p";
rightKerningGroup = u;
rightMetricsKey = u;
unicode = 0064;
},
{
color = 3;
glyphname = eth;
lastChange = "2023-01-13 20:59:42 +0000";
layers = (
{
background = {
paths = (
{
closed = 1;
nodes = (
"348 733 OFFCURVE",
"219 800 CURVE",
"219 799 LINE",
"274 751 OFFCURVE",
"347 647 OFFCURVE",
"379 507 CURVE",
"363 511 OFFCURVE",
"335 518 OFFCURVE",
"303 518 CURVE SMOOTH",
"144 518 OFFCURVE",
"20 405 OFFCURVE",
"20 247 CURVE SMOOTH",
"20 91 OFFCURVE",
"132 -10 OFFCURVE",
"312 -10 CURVE SMOOTH",
"481 -10 OFFCURVE",
"615 128 OFFCURVE",
"615 322 CURVE SMOOTH",
"615 542 OFFCURVE"
);
},
{
closed = 1;
nodes = (
"299 -4 OFFCURVE",
"224 117 OFFCURVE",
"224 300 CURVE SMOOTH",
"224 447 OFFCURVE",
"262 512 OFFCURVE",
"293 512 CURVE SMOOTH",
"336 512 OFFCURVE",
"411 391 OFFCURVE",
"411 208 CURVE SMOOTH",
"411 61 OFFCURVE",
"373 -4 OFFCURVE",
"346 -4 CURVE SMOOTH"
);
},
{
closed = 1;
nodes = (
"179 609 LINE",
"179 602 LINE",
"314 684 LINE",
"310 688 LINE"
);
},
{
closed = 1;
nodes = (
"494 793 LINE",
"494 800 LINE",
"347 710 LINE",
"353 707 LINE"
);
}
);
};
layerId = "5ECA14C9-9880-4A66-8675-45EB4FCF3EF2";
paths = (
{
closed = 1;
nodes = (
"179 609 LINE",
"179 596 LINE",
"314 678 LINE",
"310 688 LINE"
);
},
{
closed = 1;
nodes = (
"494 787 LINE",
"494 800 LINE",
"347 710 LINE",
"353 701 LINE"
);
},
{
closed = 1;
nodes = (
"615 566 OFFCURVE",
"354 737 OFFCURVE",
"219 800 CURVE",
"219 793 LINE",
"274 745 OFFCURVE",
"347 641 OFFCURVE",
"379 519 CURVE",
"365 521 OFFCURVE",
"347 523 OFFCURVE",
"326 523 CURVE SMOOTH",
"148 523 OFFCURVE",
"20 402 OFFCURVE",
"20 245 CURVE SMOOTH",
"20 90 OFFCURVE",
"132 -15 OFFCURVE",
"312 -15 CURVE SMOOTH",
"479 -15 OFFCURVE",
"615 117 OFFCURVE",
"615 318 CURVE SMOOTH"
);
},
{
closed = 1;
nodes = (
"224 456 OFFCURVE",
"258 511 OFFCURVE",
"295 511 CURVE SMOOTH",
"343 511 OFFCURVE",
"411 396 OFFCURVE",
"411 208 CURVE SMOOTH",
"411 53 OFFCURVE",
"377 -3 OFFCURVE",
"344 -3 CURVE SMOOTH",
"292 -3 OFFCURVE",
"224 113 OFFCURVE",
"224 300 CURVE SMOOTH"
);
}
);
width = 635;
}
);
leftKerningGroup = o;
leftMetricsKey = o;
rightKerningGroup = eth;
rightMetricsKey = o;
unicode = 00F0;
},
{
color = 3;
glyphname = dcroat;
lastChange = "2022-11-30 12:11:31 +0000";
layers = (
{
background = {
paths = (
{
closed = 1;
nodes = (
"588 610 LINE",
"588 791 LINE",
"587 791 LINE",
"323 713 LINE",
"323 712 LINE",
"398 712 LINE",
"398 610 LINE",
"303 610 LINE",
"303 605 LINE",
"398 605 LINE",
"398 514 LINE",
"372 516 OFFCURVE",
"350 518 OFFCURVE",
"311 518 CURVE SMOOTH",
"150 518 OFFCURVE",
"25 397 OFFCURVE",
"25 220 CURVE SMOOTH",
"25 81 OFFCURVE",
"120 -10 OFFCURVE",
"197 -10 CURVE SMOOTH",
"271 -10 OFFCURVE",
"338 61 OFFCURVE",
"398 118 CURVE",
"398 -7 LINE",
"399 -7 LINE",
"648 73 LINE",
"648 74 LINE",
"588 74 LINE",
"588 605 LINE",
"648 605 LINE",
"648 610 LINE"
);
},
{
closed = 1;
nodes = (
"382 119 OFFCURVE",
"365 116 OFFCURVE",
"349 116 CURVE SMOOTH",
"281 116 OFFCURVE",
"218 173 OFFCURVE",
"218 310 CURVE SMOOTH",
"218 449 OFFCURVE",
"272 513 OFFCURVE",
"298 513 CURVE SMOOTH",
"324 513 OFFCURVE",
"356 479 OFFCURVE",
"398 441 CURVE",
"398 123 LINE"
);
}
);
};
components = (
{
name = d;
}
);
layerId = "5ECA14C9-9880-4A66-8675-45EB4FCF3EF2";
paths = (
{
closed = 1;
nodes = (
"296 602 LINE",
"635 602 LINE",
"635 614 LINE",
"296 614 LINE"
);
}
);
width = 643;
}
);
leftKerningGroup = d;
leftMetricsKey = d;
rightKerningGroup = u;
unicode = 0111;
},
{
color = 3;
glyphname = e;
lastChange = "2023-01-13 20:59:21 +0000";
layers = (
{
anchors = (
{
name = bottom;
position = "{271, 0}";
},
{
name = ogonek;
position = "{401, 0}";
},
{
name = top;
position = "{287, 508}";
}
);
background = {
paths = (
{
closed = 1;
nodes = (
"515 379 LINE",
"502 455 OFFCURVE",
"439 518 OFFCURVE",
"298 518 CURVE SMOOTH",
"147 518 OFFCURVE",
"20 415 OFFCURVE",
"20 243 CURVE SMOOTH",
"20 93 OFFCURVE",
"128 -10 OFFCURVE",
"272 -10 CURVE SMOOTH",
"430 -10 OFFCURVE",
"497 102 OFFCURVE",
"539 206 CURVE",
"533 209 LINE",
"506 158 OFFCURVE",
"480 119 OFFCURVE",
"403 119 CURVE SMOOTH",
"290 119 OFFCURVE",
"210 195 OFFCURVE",
"210 369 CURVE SMOOTH",
"210 454 OFFCURVE",
"238 507 OFFCURVE",
"276 507 CURVE SMOOTH",
"309 507 OFFCURVE",
"335 456 OFFCURVE",
"336 396 CURVE",
"203 388 LINE",
"203 379 LINE"
);
}
);
};
layerId = "5ECA14C9-9880-4A66-8675-45EB4FCF3EF2";
paths = (
{
closed = 1;
nodes = (
"515 382 LINE",
"507 456 OFFCURVE",
"434 523 OFFCURVE",
"300 523 CURVE SMOOTH",
"151 523 OFFCURVE",
"20 416 OFFCURVE",
"20 241 CURVE SMOOTH",
"20 86 OFFCURVE",
"130 -15 OFFCURVE",
"280 -15 CURVE SMOOTH",
"440 -15 OFFCURVE",
"509 104 OFFCURVE",
"537 201 CURVE",
"531 203 LINE",
"512 149 OFFCURVE",
"483 112 OFFCURVE",
"400 112 CURVE SMOOTH",
"282 112 OFFCURVE",
"210 184 OFFCURVE",
"210 359 CURVE SMOOTH",
"210 459 OFFCURVE",
"237 511 OFFCURVE",
"272 511 CURVE SMOOTH",
"306 511 OFFCURVE",
"331 461 OFFCURVE",
"336 399 CURVE",
"203 391 LINE",
"203 382 LINE"
);
}
);
width = 537;
}
);
leftKerningGroup = e;
leftMetricsKey = o;
rightKerningGroup = e;
unicode = 0065;
},
{
color = 5;
glyphname = eogonek;
lastChange = "2022-12-13 09:34:40 +0000";
layers = (
{
anchors = (
{
name = bottom;
position = "{261, 0}";
},
{
name = ogonek;
position = "{391, 0}";
},
{
name = top;
position = "{277, 508}";
}
);
background = {
paths = (
{
closed = 1;
nodes = (
"515 382 LINE",
"507 456 OFFCURVE",
"434 523 OFFCURVE",
"300 523 CURVE SMOOTH",
"151 523 OFFCURVE",
"20 416 OFFCURVE",
"20 241 CURVE SMOOTH",
"20 86 OFFCURVE",
"130 -15 OFFCURVE",
"280 -15 CURVE SMOOTH",
"440 -15 OFFCURVE",
"509 104 OFFCURVE",
"537 201 CURVE",
"531 203 LINE",
"512 149 OFFCURVE",
"483 112 OFFCURVE",
"400 112 CURVE SMOOTH",
"282 112 OFFCURVE",
"210 184 OFFCURVE",
"210 359 CURVE SMOOTH",
"210 459 OFFCURVE",
"237 511 OFFCURVE",
"272 511 CURVE SMOOTH",
"306 511 OFFCURVE",
"331 461 OFFCURVE",
"336 399 CURVE",
"203 391 LINE",
"203 382 LINE"
);
},
{
closed = 1;
nodes = (
"322 -45 OFFCURVE",
"245 -95 OFFCURVE",
"245 -151 CURVE SMOOTH",
"245 -194 OFFCURVE",
"290 -237 OFFCURVE",
"349 -237 CURVE SMOOTH",
"408 -237 OFFCURVE",
"459 -192 OFFCURVE",
"494 -154 CURVE",
"494 -147 LINE",
"481 -156 OFFCURVE",
"465 -165 OFFCURVE",
"443 -165 CURVE SMOOTH",
"400 -165 OFFCURVE",
"370 -141 OFFCURVE",
"370 -89 CURVE SMOOTH",
"370 -51 OFFCURVE",
"386 -24 OFFCURVE",
"407 4 CURVE",
"398 4 LINE"
);
}
);
};
layerId = "5ECA14C9-9880-4A66-8675-45EB4FCF3EF2";
paths = (
{
closed = 1;
nodes = (
"20 86 OFFCURVE",
"130 -15 OFFCURVE",
"280 -15 CURVE SMOOTH",
"328 -15 OFFCURVE",
"368 -4 OFFCURVE",
"401 14 CURVE",
"403 10 LINE",
"322 -45 OFFCURVE",
"247 -93 OFFCURVE",
"247 -151 CURVE SMOOTH",
"247 -194 OFFCURVE",
"288 -237 OFFCURVE",
"347 -237 CURVE SMOOTH",
"408 -237 OFFCURVE",
"459 -192 OFFCURVE",
"494 -154 CURVE",
"494 -147 LINE",
"481 -156 OFFCURVE",
"465 -165 OFFCURVE",
"443 -165 CURVE SMOOTH",
"400 -165 OFFCURVE",
"370 -137 OFFCURVE",
"370 -89 CURVE SMOOTH",
"370 -48 OFFCURVE",
"393 -15 OFFCURVE",
"443 38 CURVE SMOOTH",
"498 97 OFFCURVE",
"523 151 OFFCURVE",
"537 201 CURVE",
"531 203 LINE",
"512 149 OFFCURVE",
"483 112 OFFCURVE",
"400 112 CURVE SMOOTH",
"282 112 OFFCURVE",
"210 184 OFFCURVE",
"210 359 CURVE SMOOTH",
"210 459 OFFCURVE",
"237 511 OFFCURVE",
"272 511 CURVE SMOOTH",
"306 511 OFFCURVE",
"331 461 OFFCURVE",
"336 399 CURVE",
"203 391 LINE",
"203 382 LINE",
"515 382 LINE",
"507 456 OFFCURVE",
"434 523 OFFCURVE",
"300 523 CURVE SMOOTH",
"151 523 OFFCURVE",
"20 416 OFFCURVE",
"20 241 CURVE SMOOTH"
);
}
);
width = 537;
}
);
leftKerningGroup = e;
rightKerningGroup = e;
unicode = 0119;
},
{
color = 3;
glyphname = f;
lastChange = "2023-01-13 20:59:42 +0000";
layers = (
{
anchors = (
{
name = top;
position = "{211, 772}";
}
);
background = {
paths = (
{
closed = 1;
nodes = (
"338 0 LINE",
"338 1 LINE",
"258 25 LINE",
"258 448 LINE",
"363 448 LINE",
"363 508 LINE",
"208 508 LINE",
"163 548 OFFCURVE",
"128 608 OFFCURVE",
"128 647 CURVE SMOOTH",
"128 665 OFFCURVE",
"138 674 OFFCURVE",
"153 674 CURVE SMOOTH",
"171 674 OFFCURVE",
"184 671 OFFCURVE",
"227 661 CURVE SMOOTH",
"359 629 LINE",
"365 638 OFFCURVE",
"376 661 OFFCURVE",
"376 692 CURVE SMOOTH",
"376 739 OFFCURVE",
"344 773 OFFCURVE",
"293 773 CURVE SMOOTH",
"201 773 OFFCURVE",
"74 680 OFFCURVE",
"68 478 CURVE",
"-17 449 LINE",
"-17 448 LINE",
"68 448 LINE",
"68 25 LINE",
"3 1 LINE",
"3 0 LINE"
);
}
);
};
layerId = "5ECA14C9-9880-4A66-8675-45EB4FCF3EF2";
paths = (
{
closed = 1;
nodes = (
"328 0 LINE",
"328 5 LINE",
"258 25 LINE",
"258 438 LINE",
"363 438 LINE",
"363 508 LINE",
"203 508 LINE",
"174 526 OFFCURVE",
"126 585 OFFCURVE",
"126 636 CURVE SMOOTH",
"126 665 OFFCURVE",
"143 680 OFFCURVE",
"176 680 CURVE SMOOTH",
"213 680 OFFCURVE",
"263 671 OFFCURVE",
"344 640 CURVE SMOOTH",
"357 635 LINE",
"363 646 OFFCURVE",
"376 673 OFFCURVE",
"376 705 CURVE SMOOTH",
"376 748 OFFCURVE",
"345 773 OFFCURVE",
"296 773 CURVE SMOOTH",
"200 773 OFFCURVE",
"72 676 OFFCURVE",
"68 479 CURVE",
"-8 443 LINE",
"-8 438 LINE",
"68 438 LINE",
"68 25 LINE",
"13 5 LINE",
"13 0 LINE"
);
}
);
width = 366;
}
);
leftKerningGroup = f;
rightKerningGroup = f;
unicode = 0066;
},
{
color = 3;
glyphname = g;
lastChange = "2023-01-13 20:59:42 +0000";
layers = (
{
anchors = (
{
name = bottom;
position = "{267, -200}";
},
{
name = top;
position = "{271, 509}";
}
);
background = {
paths = (
{
closed = 1;
nodes = (
"107 164 LINE SMOOTH",
"65 136 OFFCURVE",
"48 115 OFFCURVE",
"48 89 CURVE SMOOTH",
"48 20 OFFCURVE",
"120 -34 OFFCURVE",
"215 -34 CURVE SMOOTH",
"405 -34 LINE SMOOTH",
"452 -34 OFFCURVE",
"473 -52 OFFCURVE",
"473 -80 CURVE SMOOTH",
"473 -120 OFFCURVE",
"420 -167 OFFCURVE",
"302 -167 CURVE SMOOTH",
"168 -167 OFFCURVE",
"114 -116 OFFCURVE",
"114 -66 CURVE SMOOTH",
"114 -47 OFFCURVE",
"123 -32 OFFCURVE",
"140 -16 CURVE",
"135 -11 LINE",
"46 -70 LINE SMOOTH",
"11 -93 OFFCURVE",
"-5 -105 OFFCURVE",
"-5 -123 CURVE SMOOTH",
"-5 -160 OFFCURVE",
"39 -205 OFFCURVE",
"180 -205 CURVE SMOOTH",
"435 -205 OFFCURVE",
"601 -61 OFFCURVE",
"601 33 CURVE SMOOTH",
"601 82 OFFCURVE",
"539 122 OFFCURVE",
"466 122 CURVE SMOOTH",
"221 122 LINE SMOOTH",
"172 122 OFFCURVE",
"152 144 OFFCURVE",
"152 165 CURVE SMOOTH",
"152 178 OFFCURVE",
"160 186 OFFCURVE",
"174 198 CURVE SMOOTH",
"184 206 LINE",
"177 211 LINE"
);
},
{
closed = 1;
nodes = (
"287 497 OFFCURVE",
"325 437 OFFCURVE",
"325 322 CURVE SMOOTH",
"325 235 OFFCURVE",
"304 197 OFFCURVE",
"279 197 CURVE SMOOTH",
"240 197 OFFCURVE",
"202 257 OFFCURVE",
"202 374 CURVE SMOOTH",
"202 460 OFFCURVE",
"225 497 OFFCURVE",
"252 497 CURVE SMOOTH"
);
},
{
closed = 1;
nodes = (
"113 508 OFFCURVE",
"14 433 OFFCURVE",
"14 349 CURVE SMOOTH",
"14 246 OFFCURVE",
"127 187 OFFCURVE",
"265 187 CURVE SMOOTH",
"422 187 OFFCURVE",
"513 258 OFFCURVE",
"513 339 CURVE SMOOTH",
"513 415 OFFCURVE",
"431 455 OFFCURVE",
"361 495 CURVE",
"362 498 LINE",
"583 448 LINE",
"583 508 LINE",
"280 508 LINE SMOOTH"
);
}
);
};
layerId = "5ECA14C9-9880-4A66-8675-45EB4FCF3EF2";
paths = (
{
closed = 1;
nodes = (
"123 172 LINE SMOOTH",
"65 142 OFFCURVE",
"48 120 OFFCURVE",
"48 89 CURVE SMOOTH",
"48 23 OFFCURVE",
"120 -34 OFFCURVE",
"215 -34 CURVE SMOOTH",
"407 -34 LINE SMOOTH",
"454 -34 OFFCURVE",
"475 -54 OFFCURVE",
"475 -79 CURVE SMOOTH",
"475 -121 OFFCURVE",
"424 -167 OFFCURVE",
"301 -167 CURVE SMOOTH",
"172 -167 OFFCURVE",
"114 -119 OFFCURVE",
"114 -72 CURVE SMOOTH",
"114 -50 OFFCURVE",
"127 -33 OFFCURVE",
"164 -14 CURVE",
"155 -9 LINE",
"46 -68 LINE SMOOTH",
"9 -88 OFFCURVE",
"-5 -101 OFFCURVE",
"-5 -121 CURVE SMOOTH",
"-5 -157 OFFCURVE",
"34 -205 OFFCURVE",
"180 -205 CURVE SMOOTH",
"438 -205 OFFCURVE",
"603 -62 OFFCURVE",
"603 33 CURVE SMOOTH",
"603 87 OFFCURVE",
"541 122 OFFCURVE",
"468 122 CURVE SMOOTH",
"221 122 LINE SMOOTH",
"173 122 OFFCURVE",
"154 141 OFFCURVE",
"154 160 CURVE SMOOTH",
"154 176 OFFCURVE",
"166 187 OFFCURVE",
"210 206 CURVE",
"197 211 LINE"
);
},
{
closed = 1;
nodes = (
"294 497 OFFCURVE",
"327 438 OFFCURVE",
"327 322 CURVE SMOOTH",
"327 236 OFFCURVE",
"306 197 OFFCURVE",
"276 197 CURVE SMOOTH",
"238 197 OFFCURVE",
"202 261 OFFCURVE",
"202 374 CURVE SMOOTH",
"202 464 OFFCURVE",
"230 497 OFFCURVE",
"257 497 CURVE SMOOTH"
);
},
{
closed = 1;
nodes = (
"111 508 OFFCURVE",
"14 437 OFFCURVE",
"14 347 CURVE SMOOTH",
"14 250 OFFCURVE",
"118 187 OFFCURVE",
"264 187 CURVE SMOOTH",
"419 187 OFFCURVE",
"515 258 OFFCURVE",
"515 337 CURVE SMOOTH",
"515 411 OFFCURVE",
"431 457 OFFCURVE",
"363 495 CURVE",
"364 498 LINE",
"585 448 LINE",
"585 508 LINE",
"295 508 LINE SMOOTH"
);
}
);
width = 593;
}
);
leftKerningGroup = g;
rightKerningGroup = g;
unicode = 0067;
},
{
color = 3;
glyphname = h;
lastChange = "2023-01-13 20:59:42 +0000";
layers = (
{
anchors = (
{
name = top;
position = "{324, 772}";
}
);
background = {
paths = (
{
closed = 1;
nodes = (
"579 457 OFFCURVE",
"519 518 OFFCURVE",
"445 518 CURVE SMOOTH",
"395 518 OFFCURVE",
"329 458 OFFCURVE",
"258 397 CURVE",
"258 791 LINE",
"257 791 LINE",
"3 713 LINE",
"3 712 LINE",
"68 712 LINE",
"68 25 LINE",
"3 1 LINE",
"3 0 LINE",
"318 0 LINE",
"318 1 LINE",
"258 25 LINE",
"258 386 LINE",
"278 397 OFFCURVE",
"295 407 OFFCURVE",
"322 407 CURVE SMOOTH",
"360 407 OFFCURVE",
"389 380 OFFCURVE",
"389 321 CURVE SMOOTH",
"389 25 LINE",
"329 1 LINE",
"329 0 LINE",
"639 0 LINE",
"639 1 LINE",
"579 25 LINE",
"579 352 LINE SMOOTH"
);
}
);
};
layerId = "5ECA14C9-9880-4A66-8675-45EB4FCF3EF2";
paths = (
{
closed = 1;
nodes = (
"579 470 OFFCURVE",
"523 523 OFFCURVE",
"455 523 CURVE SMOOTH",
"393 523 OFFCURVE",
"327 463 OFFCURVE",
"258 402 CURVE",
"258 786 LINE",
"257 786 LINE",
"13 712 LINE",
"13 707 LINE",
"68 690 LINE",
"68 25 LINE",
"13 5 LINE",
"13 0 LINE",
"308 0 LINE",
"308 5 LINE",
"258 25 LINE",
"258 391 LINE",
"278 402 OFFCURVE",
"295 412 OFFCURVE",
"322 412 CURVE SMOOTH",
"362 412 OFFCURVE",
"389 387 OFFCURVE",
"389 330 CURVE SMOOTH",
"389 25 LINE",
"339 5 LINE",
"339 0 LINE",
"629 0 LINE",
"629 5 LINE",
"579 25 LINE",
"579 363 LINE SMOOTH"
);
}
);
width = 642;
}
);
leftKerningGroup = b;
leftMetricsKey = n;
rightKerningGroup = n;
rightMetricsKey = n;
unicode = 0068;
},
{
color = 3;
glyphname = hbar;
lastChange = "2022-11-29 13:27:40 +0000";
layers = (
{
anchors = (
{
name = top;
position = "{347, 772}";
}
);
background = {
paths = (
{
closed = 1;
nodes = (
"614 451 OFFCURVE",
"547 518 OFFCURVE",
"485 518 CURVE SMOOTH",
"410 518 OFFCURVE",
"340 450 OFFCURVE",
"261 383 CURVE",
"261 605 LINE",
"359 605 LINE",
"359 610 LINE",
"261 610 LINE",
"261 791 LINE",
"260 791 LINE",
"6 713 LINE",
"6 712 LINE",
"71 712 LINE",
"71 610 LINE",
"6 610 LINE",
"6 605 LINE",
"71 605 LINE",
"71 25 LINE",
"6 1 LINE",
"6 0 LINE",
"316 0 LINE",
"316 1 LINE",
"261 25 LINE",
"261 379 LINE",
"296 390 OFFCURVE",
"318 397 OFFCURVE",
"347 397 CURVE SMOOTH",
"390 397 OFFCURVE",
"424 366 OFFCURVE",
"424 291 CURVE SMOOTH",
"424 25 LINE",
"369 1 LINE",
"369 0 LINE",
"674 0 LINE",
"674 1 LINE",
"614 25 LINE",
"614 320 LINE SMOOTH"
);
}
);
};
components = (
{
name = h;
}
);
layerId = "5ECA14C9-9880-4A66-8675-45EB4FCF3EF2";
paths = (
{
closed = 1;
nodes = (
"13 602 LINE",
"352 602 LINE",
"352 614 LINE",
"13 614 LINE"
);
}
);
width = 642;
}
);
leftKerningGroup = b;
leftMetricsKey = h;
rightKerningGroup = n;
rightMetricsKey = h;
unicode = 0127;
},
{
color = 3;
glyphname = idotless;
lastChange = "2023-01-13 20:59:42 +0000";
layers = (
{
anchors = (
{
name = ogonek;
position = "{256, 0}";
},
{
name = top;
position = "{163, 508}";
}
);
background = {
paths = (
{
closed = 1;
nodes = (
"318 0 LINE",
"318 1 LINE",
"258 25 LINE",
"258 518 LINE",
"257 518 LINE",
"3 435 LINE",
"3 434 LINE",
"68 434 LINE",
"68 25 LINE",
"3 1 LINE",
"3 0 LINE"
);
}
);
};
layerId = "5ECA14C9-9880-4A66-8675-45EB4FCF3EF2";
paths = (
{
closed = 1;
nodes = (
"313 0 LINE",
"313 5 LINE",
"258 25 LINE",
"258 523 LINE",
"257 523 LINE",
"13 439 LINE",
"13 434 LINE",
"68 417 LINE",
"68 25 LINE",
"13 5 LINE",
"13 0 LINE"
);
}
);
width = 326;
}
);
leftKerningGroup = n;
leftMetricsKey = n;
rightKerningGroup = d;
rightMetricsKey = l;
unicode = 0131;
},
{
color = 5;
glyphname = iogonek;
lastChange = "2022-11-11 10:35:07 +0000";
layers = (
{
anchors = (
{
name = ogonek;
position = "{245, 0}";
},
{
name = top;
position = "{150, 508}";
}
);
background = {
paths = (
{
closed = 1;
nodes = (
"313 0 LINE",
"313 5 LINE",
"258 25 LINE",
"258 523 LINE",
"257 523 LINE",
"13 439 LINE",
"13 434 LINE",
"68 417 LINE",
"68 25 LINE",
"13 5 LINE",
"13 0 LINE"
);
},
{
closed = 1;
nodes = (
"229 544 OFFCURVE",
"270 583 OFFCURVE",
"270 638 CURVE SMOOTH",
"270 695 OFFCURVE",
"229 734 OFFCURVE",
"163 734 CURVE SMOOTH",
"96 734 OFFCURVE",
"56 695 OFFCURVE",
"56 638 CURVE SMOOTH",
"56 583 OFFCURVE",
"96 544 OFFCURVE",
"163 544 CURVE SMOOTH"
);
},
{
closed = 1;
nodes = (
"177 -45 OFFCURVE",
"100 -95 OFFCURVE",
"100 -151 CURVE SMOOTH",
"100 -194 OFFCURVE",
"145 -237 OFFCURVE",
"204 -237 CURVE SMOOTH",
"263 -237 OFFCURVE",
"314 -192 OFFCURVE",
"349 -154 CURVE",
"349 -147 LINE",
"336 -156 OFFCURVE",
"320 -165 OFFCURVE",
"298 -165 CURVE SMOOTH",
"255 -165 OFFCURVE",
"225 -141 OFFCURVE",
"225 -89 CURVE SMOOTH",
"225 -51 OFFCURVE",
"241 -24 OFFCURVE",
"262 4 CURVE",
"253 4 LINE"
);
}
);
};
layerId = "5ECA14C9-9880-4A66-8675-45EB4FCF3EF2";
paths = (
{
closed = 1;
nodes = (
"313 0 LINE",
"313 5 LINE",
"258 25 LINE",
"258 523 LINE",
"257 523 LINE",
"13 439 LINE",
"13 434 LINE",
"68 417 LINE",
"68 25 LINE",
"13 5 LINE",
"13 0 LINE"
);
},
{
closed = 1;
nodes = (
"229 544 OFFCURVE",
"270 583 OFFCURVE",
"270 638 CURVE SMOOTH",
"270 695 OFFCURVE",
"229 734 OFFCURVE",
"163 734 CURVE SMOOTH",
"96 734 OFFCURVE",
"56 695 OFFCURVE",
"56 638 CURVE SMOOTH",
"56 583 OFFCURVE",
"96 544 OFFCURVE",
"163 544 CURVE SMOOTH"
);
},
{
closed = 1;
nodes = (
"242 -2 LINE",
"169 -49 OFFCURVE",
"100 -95 OFFCURVE",
"100 -151 CURVE SMOOTH",
"100 -194 OFFCURVE",
"141 -237 OFFCURVE",
"200 -237 CURVE SMOOTH",
"261 -237 OFFCURVE",
"312 -192 OFFCURVE",
"347 -154 CURVE",
"347 -147 LINE",
"334 -156 OFFCURVE",
"318 -165 OFFCURVE",
"296 -165 CURVE SMOOTH",
"253 -165 OFFCURVE",
"223 -141 OFFCURVE",
"223 -89 CURVE SMOOTH",
"223 -51 OFFCURVE",
"239 -24 OFFCURVE",
"257 0 CURVE",
"242 12 LINE"
);
}
);
width = 326;
}
);
leftKerningGroup = h;
rightKerningGroup = d;
unicode = 012F;
},
{
color = 3;
glyphname = jdotless;
lastChange = "2023-01-13 20:59:42 +0000";
layers = (
{
anchors = (
{
name = top;
position = "{162, 508}";
}
);
background = {
paths = (
{
closed = 1;
nodes = (
"-11 -200 LINE",
"85 -140 LINE SMOOTH",
"207 -64 OFFCURVE",
"258 -4 OFFCURVE",
"258 138 CURVE SMOOTH",
"258 518 LINE",
"257 518 LINE",
"3 435 LINE",
"3 434 LINE",
"68 434 LINE",
"68 18 LINE SMOOTH",
"68 -113 OFFCURVE",
"47 -145 OFFCURVE",
"13 -176 CURVE SMOOTH",
"-12 -199 LINE"
);
}
);
};
layerId = "5ECA14C9-9880-4A66-8675-45EB4FCF3EF2";
paths = (
{
closed = 1;
nodes = (
"12 -200 LINE",
"124 -108 LINE SMOOTH",
"219 -30 OFFCURVE",
"258 18 OFFCURVE",
"258 138 CURVE SMOOTH",
"258 523 LINE",
"257 523 LINE",
"13 439 LINE",
"13 434 LINE",
"68 417 LINE",
"68 28 LINE SMOOTH",
"68 -104 OFFCURVE",
"58 -144 OFFCURVE",
"25 -178 CURVE SMOOTH",
"8 -196 LINE"
);
}
);
width = 318;
}
);
leftKerningGroup = j;
rightKerningGroup = jdotless;
unicode = 0237;
},
{
color = 3;
glyphname = k;
lastChange = "2023-01-13 20:59:42 +0000";
layers = (
{
anchors = (
{
name = bottom;
position = "{318, 0}";
}
);
background = {
paths = (
{
closed = 1;
nodes = (
"522 488 LINE",
"597 507 LINE",
"597 508 LINE",
"380 508 LINE",
"380 507 LINE",
"391 503 LINE SMOOTH",
"440 485 OFFCURVE",
"451 461 OFFCURVE",
"332 330 CURVE SMOOTH",
"302 297 LINE",
"258 297 LINE",
"258 791 LINE",
"257 791 LINE",
"3 713 LINE",
"3 712 LINE",
"68 712 LINE",
"68 25 LINE",
"3 1 LINE",
"3 0 LINE",
"318 0 LINE",
"318 1 LINE",
"258 25 LINE",
"258 286 LINE",
"300 286 LINE",
"355 120 LINE SMOOTH",
"385 29 OFFCURVE",
"418 -8 OFFCURVE",
"479 -8 CURVE SMOOTH",
"522 -8 OFFCURVE",
"562 4 OFFCURVE",
"611 21 CURVE SMOOTH",
"696 50 LINE",
"696 55 LINE",
"682 51 OFFCURVE",
"670 48 OFFCURVE",
"655 48 CURVE SMOOTH",
"627 48 OFFCURVE",
"606 58 OFFCURVE",
"572 107 CURVE SMOOTH",
"384 375 LINE"
);
}
);
};
layerId = "5ECA14C9-9880-4A66-8675-45EB4FCF3EF2";
paths = (
{
closed = 1;
nodes = (
"526 483 LINE",
"604 503 LINE",
"604 508 LINE",
"381 508 LINE",
"381 503 LINE",
"393 500 LINE SMOOTH",
"465 482 OFFCURVE",
"467 466 OFFCURVE",
"337 336 CURVE SMOOTH",
"306 305 LINE",
"258 305 LINE",
"258 786 LINE",
"257 786 LINE",
"13 712 LINE",
"13 707 LINE",
"68 690 LINE",
"68 25 LINE",
"13 5 LINE",
"13 0 LINE",
"313 0 LINE",
"313 5 LINE",
"258 25 LINE",
"258 294 LINE",
"304 294 LINE",
"361 125 LINE SMOOTH",
"392 34 OFFCURVE",
"418 -5 OFFCURVE",
"479 -5 CURVE SMOOTH",
"522 -5 OFFCURVE",
"559 9 OFFCURVE",
"606 25 CURVE SMOOTH",
"686 53 LINE",
"686 59 LINE",
"673 56 OFFCURVE",
"665 54 OFFCURVE",
"652 54 CURVE SMOOTH",
"625 54 OFFCURVE",
"605 67 OFFCURVE",
"576 114 CURVE SMOOTH",
"403 390 LINE"
);
}
);
width = 646;
}
);
leftKerningGroup = b;
leftMetricsKey = h;
rightKerningGroup = k;
unicode = 006B;
},
{
color = 3;
glyphname = kgreenlandic;
lastChange = "2023-01-13 20:59:42 +0000";
layers = (
{
background = {
paths = (
{
closed = 1;
nodes = (
"527 483 LINE",
"604 503 LINE",
"604 508 LINE",
"381 508 LINE",
"381 503 LINE",
"393 500 LINE SMOOTH",
"467 482 OFFCURVE",
"467 466 OFFCURVE",
"337 336 CURVE SMOOTH",
"306 305 LINE",
"258 305 LINE",
"258 483 LINE",
"313 503 LINE",
"313 508 LINE",
"13 508 LINE",
"13 503 LINE",
"68 483 LINE",
"68 25 LINE",
"13 5 LINE",
"13 0 LINE",
"313 0 LINE",
"313 5 LINE",
"258 25 LINE",
"258 294 LINE",
"304 294 LINE",
"361 126 LINE SMOOTH",
"392 35 OFFCURVE",
"418 -4 OFFCURVE",
"479 -4 CURVE SMOOTH",
"522 -4 OFFCURVE",
"559 10 OFFCURVE",
"606 26 CURVE SMOOTH",
"686 54 LINE",
"686 60 LINE",
"673 57 OFFCURVE",
"665 55 OFFCURVE",
"652 55 CURVE SMOOTH",
"625 55 OFFCURVE",
"605 68 OFFCURVE",
"576 115 CURVE SMOOTH",
"403 390 LINE"
);
}
);
};
layerId = "5ECA14C9-9880-4A66-8675-45EB4FCF3EF2";
paths = (
{
closed = 1;
nodes = (
"526 483 LINE",
"604 503 LINE",
"604 508 LINE",
"381 508 LINE",
"381 503 LINE",
"393 500 LINE SMOOTH",
"465 482 OFFCURVE",
"467 466 OFFCURVE",
"337 336 CURVE SMOOTH",
"306 305 LINE",
"258 305 LINE",
"258 523 LINE",
"257 523 LINE",
"13 439 LINE",
"13 434 LINE",
"68 417 LINE",
"68 25 LINE",
"13 5 LINE",
"13 0 LINE",
"313 0 LINE",
"313 5 LINE",
"258 25 LINE",
"258 294 LINE",
"304 294 LINE",
"361 125 LINE SMOOTH",
"392 34 OFFCURVE",
"418 -5 OFFCURVE",
"479 -5 CURVE SMOOTH",
"522 -5 OFFCURVE",
"559 9 OFFCURVE",
"606 25 CURVE SMOOTH",
"686 53 LINE",
"686 59 LINE",
"673 56 OFFCURVE",
"665 54 OFFCURVE",
"652 54 CURVE SMOOTH",
"625 54 OFFCURVE",
"605 67 OFFCURVE",
"576 114 CURVE SMOOTH",
"403 390 LINE"
);
}
);
width = 646;
}
);
leftKerningGroup = n;
leftMetricsKey = n;
rightKerningGroup = k;
rightMetricsKey = k;
unicode = 0138;
},
{
color = 3;
glyphname = l;
lastChange = "2022-12-21 17:14:59 +0000";
layers = (
{
anchors = (
{
name = bottom;
position = "{161, 0}";
},
{
name = top;
position = "{161, 772}";
}
);
background = {
paths = (
{
closed = 1;
nodes = (
"318 0 LINE",
"318 1 LINE",
"258 25 LINE",
"258 791 LINE",
"257 791 LINE",
"3 713 LINE",
"3 712 LINE",
"68 712 LINE",
"68 25 LINE",
"3 1 LINE",
"3 0 LINE"
);
}
);
};
layerId = "5ECA14C9-9880-4A66-8675-45EB4FCF3EF2";
paths = (
{
closed = 1;
nodes = (
"313 0 LINE",
"313 5 LINE",
"258 25 LINE",
"258 786 LINE",
"257 786 LINE",
"13 712 LINE",
"13 707 LINE",
"68 690 LINE",
"68 25 LINE",
"13 5 LINE",
"13 0 LINE"
);
}
);
width = 326;
}
);
leftKerningGroup = b;
leftMetricsKey = h;
rightKerningGroup = d;
unicode = 006C;
},
{
color = 3;
glyphname = ldot;
lastChange = "2022-11-28 11:18:13 +0000";
layers = (
{
components = (
{
name = l;
}
);
layerId = "5ECA14C9-9880-4A66-8675-45EB4FCF3EF2";
paths = (
{
closed = 1;
nodes = (
"500 247 OFFCURVE",
"548 296 OFFCURVE",
"548 365 CURVE SMOOTH",
"548 432 OFFCURVE",
"500 482 OFFCURVE",
"431 482 CURVE SMOOTH",
"361 482 OFFCURVE",
"313 432 OFFCURVE",
"313 365 CURVE SMOOTH",
"313 296 OFFCURVE",
"361 247 OFFCURVE",
"431 247 CURVE SMOOTH"
);
}
);
width = 535;
}
);
leftKerningGroup = b;
leftMetricsKey = l;
unicode = 0140;
},
{
color = 3;
glyphname = lslash;
lastChange = "2022-11-28 20:20:51 +0000";
layers = (
{
anchors = (
{
name = bottom;
position = "{164, 0}";
},
{
name = top;
position = "{164, 772}";
}
);
background = {
paths = (
{
closed = 1;
nodes = (
"261 459 LINE",
"261 791 LINE",
"260 791 LINE",
"6 713 LINE",
"6 712 LINE",
"71 712 LINE",
"71 343 LINE",
"6 304 LINE",
"6 297 LINE",
"71 336 LINE",
"71 25 LINE",
"6 1 LINE",
"6 0 LINE",
"321 0 LINE",
"321 1 LINE",
"261 25 LINE",
"261 452 LINE",
"321 488 LINE",
"321 495 LINE"
);
}
);
};
layerId = "5ECA14C9-9880-4A66-8675-45EB4FCF3EF2";
paths = (
{
closed = 1;
nodes = (
"313 0 LINE",
"313 5 LINE",
"258 25 LINE",
"258 791 LINE",
"257 791 LINE",
"13 712 LINE",
"13 707 LINE",
"68 690 LINE",
"68 25 LINE",
"13 5 LINE",
"13 0 LINE"
);
},
{
closed = 1;
nodes = (
"13 295 LINE",
"314 478 LINE",
"314 492 LINE",
"13 309 LINE"
);
}
);
width = 327;
}
);
leftKerningGroup = b;
leftMetricsKey = l;
rightKerningGroup = d;
rightMetricsKey = l;
unicode = 0142;
},
{
color = 3;
glyphname = m;
lastChange = "2023-01-13 20:59:42 +0000";
layers = (
{
anchors = (
{
name = bottom;
position = "{511, 0}";
},
{
name = top;
position = "{510, 508}";
}
);
background = {
paths = (
{
closed = 1;
nodes = (
"575 457 OFFCURVE",
"515 518 OFFCURVE",
"443 518 CURVE SMOOTH",
"395 518 OFFCURVE",
"329 457 OFFCURVE",
"258 397 CURVE",
"258 518 LINE",
"257 518 LINE",
"3 435 LINE",
"3 434 LINE",
"68 434 LINE",
"68 25 LINE",
"3 1 LINE",
"3 0 LINE",
"316 0 LINE",
"316 1 LINE",
"258 25 LINE",
"258 386 LINE",
"278 397 OFFCURVE",
"295 407 OFFCURVE",
"322 407 CURVE SMOOTH",
"356 407 OFFCURVE",
"385 380 OFFCURVE",
"385 321 CURVE SMOOTH",
"385 25 LINE",
"327 1 LINE",
"327 0 LINE",
"633 0 LINE",
"633 1 LINE",
"575 25 LINE",
"575 352 LINE SMOOTH"
);
},
{
closed = 1;
nodes = (
"892 457 OFFCURVE",
"832 518 OFFCURVE",
"760 518 CURVE SMOOTH",
"712 518 OFFCURVE",
"646 457 OFFCURVE",
"570 394 CURVE",
"570 383 LINE",
"595 397 OFFCURVE",
"612 407 OFFCURVE",
"639 407 CURVE SMOOTH",
"673 407 OFFCURVE",
"702 380 OFFCURVE",
"702 321 CURVE SMOOTH",
"702 25 LINE",
"644 1 LINE",
"644 0 LINE",
"952 0 LINE",
"952 1 LINE",
"892 25 LINE",
"892 352 LINE SMOOTH"
);
}
);
};
layerId = "5ECA14C9-9880-4A66-8675-45EB4FCF3EF2";
paths = (
{
closed = 1;
nodes = (
"575 465 OFFCURVE",
"519 518 OFFCURVE",
"453 518 CURVE SMOOTH",
"393 518 OFFCURVE",
"327 457 OFFCURVE",
"258 397 CURVE",
"258 518 LINE",
"257 518 LINE",
"13 439 LINE",
"13 434 LINE",
"68 417 LINE",
"68 25 LINE",
"13 5 LINE",
"13 0 LINE",
"308 0 LINE",
"308 5 LINE",
"258 25 LINE",
"258 386 LINE",
"278 397 OFFCURVE",
"295 407 OFFCURVE",
"322 407 CURVE SMOOTH",
"358 407 OFFCURVE",
"385 382 OFFCURVE",
"385 325 CURVE SMOOTH",
"385 25 LINE",
"335 5 LINE",
"335 0 LINE",
"625 0 LINE",
"625 5 LINE",
"575 25 LINE",
"575 358 LINE SMOOTH"
);
},
{
closed = 1;
nodes = (
"892 465 OFFCURVE",
"836 518 OFFCURVE",
"770 518 CURVE SMOOTH",
"710 518 OFFCURVE",
"644 457 OFFCURVE",
"570 394 CURVE",
"570 383 LINE",
"595 397 OFFCURVE",
"612 407 OFFCURVE",
"639 407 CURVE SMOOTH",
"675 407 OFFCURVE",
"702 382 OFFCURVE",
"702 325 CURVE SMOOTH",
"702 25 LINE",
"652 5 LINE",
"652 0 LINE",
"942 0 LINE",
"942 5 LINE",
"892 25 LINE",
"892 358 LINE SMOOTH"
);
}
);
width = 955;
}
);
leftKerningGroup = n;
leftMetricsKey = n;
rightKerningGroup = n;
rightMetricsKey = n;
unicode = 006D;
},
{
color = 3;
glyphname = n;
lastChange = "2023-01-13 20:59:42 +0000";
layers = (
{
anchors = (
{
name = bottom;
position = "{336, 0}";
},
{
name = top;
position = "{335, 508}";
}
);
background = {
paths = (
{
closed = 1;
nodes = (
"579 463 OFFCURVE",
"521 518 OFFCURVE",
"449 518 CURVE SMOOTH",
"391 518 OFFCURVE",
"327 457 OFFCURVE",
"258 397 CURVE",
"258 518 LINE",
"257 518 LINE",
"13 439 LINE",
"13 434 LINE",
"68 417 LINE",
"68 25 LINE",
"13 5 LINE",
"13 0 LINE",
"308 0 LINE",
"308 5 LINE",
"258 25 LINE",
"258 386 LINE",
"278 397 OFFCURVE",
"295 407 OFFCURVE",
"322 407 CURVE SMOOTH",
"362 407 OFFCURVE",
"389 382 OFFCURVE",
"389 325 CURVE SMOOTH",
"389 25 LINE",
"339 5 LINE",
"339 0 LINE",
"629 0 LINE",
"629 5 LINE",
"579 25 LINE",
"579 358 LINE SMOOTH"
);
}
);
};
layerId = "5ECA14C9-9880-4A66-8675-45EB4FCF3EF2";
paths = (
{
closed = 1;
nodes = (
"579 470 OFFCURVE",
"523 523 OFFCURVE",
"455 523 CURVE SMOOTH",
"393 523 OFFCURVE",
"327 462 OFFCURVE",
"258 402 CURVE",
"258 523 LINE",
"257 523 LINE",
"13 439 LINE",
"13 434 LINE",
"68 417 LINE",
"68 25 LINE",
"13 5 LINE",
"13 0 LINE",
"308 0 LINE",
"308 5 LINE",
"258 25 LINE",
"258 391 LINE",
"278 402 OFFCURVE",
"295 412 OFFCURVE",
"322 412 CURVE SMOOTH",
"362 412 OFFCURVE",
"389 387 OFFCURVE",
"389 330 CURVE SMOOTH",
"389 25 LINE",
"339 5 LINE",
"339 0 LINE",
"629 0 LINE",
"629 5 LINE",
"579 25 LINE",
"579 363 LINE SMOOTH"
);
}
);
width = 642;
}
);
leftKerningGroup = n;
rightKerningGroup = n;
unicode = 006E;
},
{
color = 3;
glyphname = eng;
lastChange = "2023-01-13 20:59:42 +0000";
layers = (
{
background = {
paths = (
{
closed = 1;
nodes = (
"417 518 OFFCURVE",
"347 450 OFFCURVE",
"268 383 CURVE",
"268 518 LINE",
"267 518 LINE",
"13 435 LINE",
"13 434 LINE",
"78 434 LINE",
"78 25 LINE",
"13 1 LINE",
"13 0 LINE",
"323 0 LINE",
"323 1 LINE",
"268 25 LINE",
"268 379 LINE",
"303 390 OFFCURVE",
"325 397 OFFCURVE",
"354 397 CURVE SMOOTH",
"397 397 OFFCURVE",
"431 366 OFFCURVE",
"431 291 CURVE SMOOTH",
"431 18 LINE SMOOTH",
"431 -113 OFFCURVE",
"410 -145 OFFCURVE",
"376 -176 CURVE SMOOTH",
"351 -199 LINE",
"352 -200 LINE",
"448 -140 LINE SMOOTH",
"570 -64 OFFCURVE",
"621 -4 OFFCURVE",
"621 138 CURVE SMOOTH",
"621 320 LINE SMOOTH",
"621 451 OFFCURVE",
"554 518 OFFCURVE",
"492 518 CURVE SMOOTH"
);
}
);
};
layerId = "5ECA14C9-9880-4A66-8675-45EB4FCF3EF2";
paths = (
{
closed = 1;
nodes = (
"308 0 LINE",
"308 5 LINE",
"258 25 LINE",
"258 391 LINE",
"278 402 OFFCURVE",
"295 412 OFFCURVE",
"322 412 CURVE SMOOTH",
"362 412 OFFCURVE",
"389 387 OFFCURVE",
"389 330 CURVE SMOOTH",
"389 28 LINE SMOOTH",
"389 -104 OFFCURVE",
"379 -144 OFFCURVE",
"346 -178 CURVE SMOOTH",
"329 -196 LINE",
"333 -200 LINE",
"445 -108 LINE SMOOTH",
"540 -30 OFFCURVE",
"579 18 OFFCURVE",
"579 138 CURVE SMOOTH",
"579 363 LINE SMOOTH",
"579 470 OFFCURVE",
"523 523 OFFCURVE",
"455 523 CURVE SMOOTH",
"393 523 OFFCURVE",
"327 462 OFFCURVE",
"258 402 CURVE",
"258 523 LINE",
"257 523 LINE",
"13 439 LINE",
"13 434 LINE",
"68 417 LINE",
"68 25 LINE",
"13 5 LINE",
"13 0 LINE"
);
}
);
width = 639;
}
);
leftKerningGroup = n;
leftMetricsKey = n;
rightKerningGroup = n;
rightMetricsKey = jdotless;
unicode = 014B;
},
{
color = 3;
glyphname = o;
lastChange = "2023-01-13 20:59:42 +0000";
layers = (
{
anchors = (
{
name = ogonek;
position = "{528, 0}";
},
{
name = top;
position = "{318, 508}";
}
);
background = {
paths = (
{
closed = 1;
nodes = (
"480 -10 OFFCURVE",
"617 122 OFFCURVE",
"617 278 CURVE SMOOTH",
"617 417 OFFCURVE",
"500 518 OFFCURVE",
"333 518 CURVE SMOOTH",
"148 518 OFFCURVE",
"18 386 OFFCURVE",
"18 241 CURVE SMOOTH",
"18 95 OFFCURVE",
"131 -10 OFFCURVE",
"310 -10 CURVE SMOOTH"
);
},
{
closed = 1;
nodes = (
"222 447 OFFCURVE",
"260 512 OFFCURVE",
"293 512 CURVE SMOOTH",
"337 512 OFFCURVE",
"413 393 OFFCURVE",
"413 208 CURVE SMOOTH",
"413 61 OFFCURVE",
"375 -4 OFFCURVE",
"346 -4 CURVE SMOOTH",
"298 -4 OFFCURVE",
"222 115 OFFCURVE",
"222 300 CURVE SMOOTH"
);
}
);
};
layerId = "5ECA14C9-9880-4A66-8675-45EB4FCF3EF2";
paths = (
{
closed = 1;
nodes = (
"480 -15 OFFCURVE",
"615 117 OFFCURVE",
"615 278 CURVE SMOOTH",
"615 422 OFFCURVE",
"498 523 OFFCURVE",
"333 523 CURVE SMOOTH",
"150 523 OFFCURVE",
"20 391 OFFCURVE",
"20 241 CURVE SMOOTH",
"20 90 OFFCURVE",
"133 -15 OFFCURVE",
"310 -15 CURVE SMOOTH"
);
},
{
closed = 1;
nodes = (
"224 456 OFFCURVE",
"258 511 OFFCURVE",
"295 511 CURVE SMOOTH",
"343 511 OFFCURVE",
"411 396 OFFCURVE",
"411 208 CURVE SMOOTH",
"411 53 OFFCURVE",
"377 -3 OFFCURVE",
"344 -3 CURVE SMOOTH",
"292 -3 OFFCURVE",
"224 113 OFFCURVE",
"224 300 CURVE SMOOTH"
);
}
);
width = 635;
}
);
leftKerningGroup = o;
rightKerningGroup = o;
unicode = 006F;
},
{
color = 3;
glyphname = oslash;
lastChange = "2023-01-13 20:59:42 +0000";
layers = (
{
anchors = (
{
name = ogonek;
position = "{530, 0}";
},
{
name = top;
position = "{320, 508}";
}
);
background = {
paths = (
{
closed = 1;
nodes = (
"569 588 LINE",
"491 483 LINE",
"447 505 OFFCURVE",
"394 518 OFFCURVE",
"335 518 CURVE SMOOTH",
"150 518 OFFCURVE",
"20 386 OFFCURVE",
"20 241 CURVE SMOOTH",
"20 145 OFFCURVE",
"69 67 OFFCURVE",
"152 25 CURVE",
"77 -77 LINE",
"81 -80 LINE",
"157 23 LINE",
"200 2 OFFCURVE",
"252 -10 OFFCURVE",
"312 -10 CURVE SMOOTH",
"482 -10 OFFCURVE",
"619 122 OFFCURVE",
"619 278 CURVE SMOOTH",
"619 366 OFFCURVE",
"572 439 OFFCURVE",
"495 480 CURVE",
"573 585 LINE"
);
},
{
closed = 1;
nodes = (
"224 447 OFFCURVE",
"262 512 OFFCURVE",
"295 512 CURVE SMOOTH",
"326 512 OFFCURVE",
"372 454 OFFCURVE",
"397 356 CURVE",
"243 147 LINE",
"231 191 OFFCURVE",
"224 242 OFFCURVE",
"224 300 CURVE SMOOTH"
);
},
{
closed = 1;
nodes = (
"316 -4 OFFCURVE",
"271 50 OFFCURVE",
"245 141 CURVE",
"399 350 LINE",
"409 309 OFFCURVE",
"415 261 OFFCURVE",
"415 208 CURVE SMOOTH",
"415 61 OFFCURVE",
"377 -4 OFFCURVE",
"348 -4 CURVE SMOOTH"
);
}
);
};
layerId = "5ECA14C9-9880-4A66-8675-45EB4FCF3EF2";
paths = (
{
closed = 1;
nodes = (
"478 -15 OFFCURVE",
"615 117 OFFCURVE",
"615 278 CURVE SMOOTH",
"615 422 OFFCURVE",
"498 523 OFFCURVE",
"333 523 CURVE SMOOTH",
"150 523 OFFCURVE",
"20 391 OFFCURVE",
"20 241 CURVE SMOOTH",
"20 90 OFFCURVE",
"133 -15 OFFCURVE",
"310 -15 CURVE SMOOTH"
);
},
{
closed = 1;
nodes = (
"224 456 OFFCURVE",
"258 511 OFFCURVE",
"295 511 CURVE SMOOTH",
"343 511 OFFCURVE",
"411 396 OFFCURVE",
"411 208 CURVE SMOOTH",
"411 53 OFFCURVE",
"377 -3 OFFCURVE",
"344 -3 CURVE SMOOTH",
"292 -3 OFFCURVE",
"224 113 OFFCURVE",
"224 300 CURVE SMOOTH"
);
},
{
closed = 1;
nodes = (
"75 -75 LINE",
"84 -81 LINE",
"571 584 LINE",
"562 590 LINE"
);
}
);
width = 635;
}
);
leftKerningGroup = o;
leftMetricsKey = o;
rightKerningGroup = o;
rightMetricsKey = o;
unicode = 00F8;
},
{
color = 3;
glyphname = oe;
lastChange = "2023-01-13 20:59:42 +0000";
layers = (
{
anchors = (
{
name = top;
position = "{551, 508}";
}
);
background = {
paths = (
{
closed = 1;
nodes = (
"478 -10 OFFCURVE",
"613 122 OFFCURVE",
"613 278 CURVE SMOOTH",
"613 417 OFFCURVE",
"498 518 OFFCURVE",
"333 518 CURVE SMOOTH",
"150 518 OFFCURVE",
"20 386 OFFCURVE",
"20 241 CURVE SMOOTH",
"20 95 OFFCURVE",
"133 -10 OFFCURVE",
"310 -10 CURVE SMOOTH"
);
},
{
closed = 1;
nodes = (
"224 447 OFFCURVE",
"262 512 OFFCURVE",
"293 512 CURVE SMOOTH",
"335 512 OFFCURVE",
"411 393 OFFCURVE",
"411 208 CURVE SMOOTH",
"411 61 OFFCURVE",
"373 -4 OFFCURVE",
"346 -4 CURVE SMOOTH",
"300 -4 OFFCURVE",
"224 115 OFFCURVE",
"224 300 CURVE SMOOTH"
);
},
{
closed = 1;
nodes = (
"918 387 LINE",
"899 461 OFFCURVE",
"836 518 OFFCURVE",
"713 518 CURVE SMOOTH",
"560 518 OFFCURVE",
"421 397 OFFCURVE",
"421 229 CURVE SMOOTH",
"421 91 OFFCURVE",
"523 -10 OFFCURVE",
"671 -10 CURVE SMOOTH",
"819 -10 OFFCURVE",
"884 107 OFFCURVE",
"948 207 CURVE",
"947 208 LINE",
"916 158 OFFCURVE",
"874 119 OFFCURVE",
"798 119 CURVE SMOOTH",
"683 119 OFFCURVE",
"611 191 OFFCURVE",
"611 348 CURVE SMOOTH",
"611 446 OFFCURVE",
"646 513 OFFCURVE",
"685 513 CURVE SMOOTH",
"713 513 OFFCURVE",
"744 481 OFFCURVE",
"747 402 CURVE",
"608 389 LINE",
"608 387 LINE"
);
}
);
};
layerId = "5ECA14C9-9880-4A66-8675-45EB4FCF3EF2";
paths = (
{
closed = 1;
nodes = (
"478 -15 OFFCURVE",
"605 117 OFFCURVE",
"605 278 CURVE SMOOTH",
"605 422 OFFCURVE",
"498 523 OFFCURVE",
"333 523 CURVE SMOOTH",
"150 523 OFFCURVE",
"20 391 OFFCURVE",
"20 241 CURVE SMOOTH",
"20 90 OFFCURVE",
"133 -15 OFFCURVE",
"310 -15 CURVE SMOOTH"
);
},
{
closed = 1;
nodes = (
"224 456 OFFCURVE",
"258 511 OFFCURVE",
"295 511 CURVE SMOOTH",
"343 511 OFFCURVE",
"411 396 OFFCURVE",
"411 208 CURVE SMOOTH",
"411 53 OFFCURVE",
"377 -3 OFFCURVE",
"344 -3 CURVE SMOOTH",
"292 -3 OFFCURVE",
"224 113 OFFCURVE",
"224 300 CURVE SMOOTH"
);
},
{
closed = 1;
nodes = (
"916 382 LINE",
"908 456 OFFCURVE",
"835 523 OFFCURVE",
"701 523 CURVE SMOOTH",
"552 523 OFFCURVE",
"431 416 OFFCURVE",
"431 241 CURVE SMOOTH",
"431 86 OFFCURVE",
"531 -15 OFFCURVE",
"681 -15 CURVE SMOOTH",
"841 -15 OFFCURVE",
"910 104 OFFCURVE",
"938 201 CURVE",
"932 203 LINE",
"913 149 OFFCURVE",
"884 112 OFFCURVE",
"801 112 CURVE SMOOTH",
"683 112 OFFCURVE",
"611 184 OFFCURVE",
"611 359 CURVE SMOOTH",
"611 459 OFFCURVE",
"638 511 OFFCURVE",
"673 511 CURVE SMOOTH",
"707 511 OFFCURVE",
"732 461 OFFCURVE",
"737 399 CURVE",
"604 391 LINE",
"604 382 LINE"
);
}
);
width = 938;
}
);
leftKerningGroup = o;
leftMetricsKey = o;
rightKerningGroup = c;
rightMetricsKey = e;
unicode = 0153;
},
{
color = 3;
glyphname = p;
lastChange = "2023-01-13 20:59:42 +0000";
layers = (
{
anchors = (
{
name = top;
position = "{338, 508}";
}
);
background = {
paths = (
{
closed = 1;
nodes = (
"383 518 OFFCURVE",
"316 450 OFFCURVE",
"258 395 CURVE",
"258 518 LINE",
"257 518 LINE",
"3 435 LINE",
"3 434 LINE",
"68 434 LINE",
"68 -175 LINE",
"3 -199 LINE",
"3 -200 LINE",
"343 -200 LINE",
"343 -199 LINE",
"258 -175 LINE",
"258 3 LINE",
"289 -4 OFFCURVE",
"317 -10 OFFCURVE",
"343 -10 CURVE SMOOTH",
"492 -10 OFFCURVE",
"618 113 OFFCURVE",
"618 288 CURVE SMOOTH",
"618 427 OFFCURVE",
"521 518 OFFCURVE",
"437 518 CURVE SMOOTH"
);
},
{
closed = 1;
nodes = (
"312 0 OFFCURVE",
"290 20 OFFCURVE",
"258 50 CURVE",
"258 383 LINE",
"271 392 OFFCURVE",
"286 404 OFFCURVE",
"313 404 CURVE SMOOTH",
"365 404 OFFCURVE",
"426 350 OFFCURVE",
"426 208 CURVE SMOOTH",
"426 59 OFFCURVE",
"370 0 OFFCURVE",
"336 0 CURVE SMOOTH"
);
}
);
};
layerId = "5ECA14C9-9880-4A66-8675-45EB4FCF3EF2";
paths = (
{
closed = 1;
nodes = (
"377 523 OFFCURVE",
"314 457 OFFCURVE",
"258 400 CURVE",
"258 523 LINE",
"257 523 LINE",
"13 439 LINE",
"13 434 LINE",
"68 417 LINE",
"68 -175 LINE",
"13 -195 LINE",
"13 -200 LINE",
"333 -200 LINE",
"333 -195 LINE",
"258 -175 LINE",
"258 -3 LINE",
"285 -9 OFFCURVE",
"313 -15 OFFCURVE",
"343 -15 CURVE SMOOTH",
"494 -15 OFFCURVE",
"618 106 OFFCURVE",
"618 290 CURVE SMOOTH",
"618 438 OFFCURVE",
"527 523 OFFCURVE",
"445 523 CURVE SMOOTH"
);
},
{
closed = 1;
nodes = (
"307 -4 OFFCURVE",
"281 19 OFFCURVE",
"258 48 CURVE",
"258 388 LINE",
"271 397 OFFCURVE",
"286 409 OFFCURVE",
"309 409 CURVE SMOOTH",
"365 409 OFFCURVE",
"426 354 OFFCURVE",
"426 198 CURVE SMOOTH",
"426 54 OFFCURVE",
"379 -4 OFFCURVE",
"338 -4 CURVE SMOOTH"
);
}
);
width = 648;
}
);
leftKerningGroup = n;
leftMetricsKey = n;
rightKerningGroup = b;
unicode = 0070;
},
{
color = 3;
glyphname = thorn;
lastChange = "2023-01-13 20:59:42 +0000";
layers = (
{
background = {
paths = (
{
closed = 1;
nodes = (
"383 518 OFFCURVE",
"316 447 OFFCURVE",
"258 390 CURVE",
"258 796 LINE",
"257 796 LINE",
"3 713 LINE",
"3 712 LINE",
"68 712 LINE",
"68 -175 LINE",
"3 -199 LINE",
"3 -200 LINE",
"343 -200 LINE",
"343 -199 LINE",
"258 -175 LINE",
"258 3 LINE",
"289 -4 OFFCURVE",
"317 -10 OFFCURVE",
"343 -10 CURVE SMOOTH",
"492 -10 OFFCURVE",
"618 113 OFFCURVE",
"618 288 CURVE SMOOTH",
"618 427 OFFCURVE",
"521 518 OFFCURVE",
"437 518 CURVE SMOOTH"
);
},
{
closed = 1;
nodes = (
"314 -6 OFFCURVE",
"290 19 OFFCURVE",
"258 49 CURVE",
"258 385 LINE",
"271 394 OFFCURVE",
"286 404 OFFCURVE",
"313 404 CURVE SMOOTH",
"365 404 OFFCURVE",
"426 350 OFFCURVE",
"426 208 CURVE SMOOTH",
"426 59 OFFCURVE",
"370 -6 OFFCURVE",
"338 -6 CURVE SMOOTH"
);
}
);
};
layerId = "5ECA14C9-9880-4A66-8675-45EB4FCF3EF2";
paths = (
{
closed = 1;
nodes = (
"377 523 OFFCURVE",
"314 457 OFFCURVE",
"258 400 CURVE",
"258 786 LINE",
"257 786 LINE",
"13 712 LINE",
"13 707 LINE",
"68 690 LINE",
"68 -175 LINE",
"13 -195 LINE",
"13 -200 LINE",
"333 -200 LINE",
"333 -195 LINE",
"258 -175 LINE",
"258 -2 LINE",
"289 -9 OFFCURVE",
"317 -15 OFFCURVE",
"343 -15 CURVE SMOOTH",
"494 -15 OFFCURVE",
"618 106 OFFCURVE",
"618 290 CURVE SMOOTH",
"618 438 OFFCURVE",
"527 523 OFFCURVE",
"445 523 CURVE SMOOTH"
);
},
{
closed = 1;
nodes = (
"307 -4 OFFCURVE",
"281 19 OFFCURVE",
"258 48 CURVE",
"258 388 LINE",
"271 397 OFFCURVE",
"286 409 OFFCURVE",
"309 409 CURVE SMOOTH",
"365 409 OFFCURVE",
"426 354 OFFCURVE",
"426 198 CURVE SMOOTH",
"426 54 OFFCURVE",
"379 -4 OFFCURVE",
"338 -4 CURVE SMOOTH"
);
}
);
width = 648;
}
);
leftKerningGroup = b;
leftMetricsKey = p;
rightKerningGroup = b;
rightMetricsKey = p;
unicode = 00FE;
},
{
color = 3;
glyphname = q;
lastChange = "2023-01-13 20:59:42 +0000";
layers = (
{
background = {
paths = (
{
closed = 1;
nodes = (
"579 561 LINE",
"552 466 LINE",
"441 496 OFFCURVE",
"369 518 OFFCURVE",
"300 518 CURVE SMOOTH",
"142 518 OFFCURVE",
"17 397 OFFCURVE",
"17 220 CURVE SMOOTH",
"17 81 OFFCURVE",
"112 -10 OFFCURVE",
"189 -10 CURVE SMOOTH",
"263 -10 OFFCURVE",
"330 61 OFFCURVE",
"390 118 CURVE",
"390 -175 LINE",
"305 -199 LINE",
"305 -200 LINE",
"645 -200 LINE",
"645 -199 LINE",
"580 -175 LINE",
"580 561 LINE"
);
},
{
closed = 1;
nodes = (
"273 116 OFFCURVE",
"210 173 OFFCURVE",
"210 310 CURVE SMOOTH",
"210 449 OFFCURVE",
"264 513 OFFCURVE",
"290 513 CURVE SMOOTH",
"316 513 OFFCURVE",
"348 480 OFFCURVE",
"390 442 CURVE",
"390 123 LINE",
"374 119 OFFCURVE",
"357 116 OFFCURVE",
"341 116 CURVE SMOOTH"
);
}
);
};
layerId = "5ECA14C9-9880-4A66-8675-45EB4FCF3EF2";
paths = (
{
closed = 1;
nodes = (
"271 -15 OFFCURVE",
"334 51 OFFCURVE",
"390 108 CURVE",
"390 -175 LINE",
"315 -195 LINE",
"315 -200 LINE",
"635 -200 LINE",
"635 -195 LINE",
"580 -175 LINE",
"580 533 LINE",
"575 533 LINE",
"537 468 LINE",
"437 500 OFFCURVE",
"371 523 OFFCURVE",
"305 523 CURVE SMOOTH",
"154 523 OFFCURVE",
"30 402 OFFCURVE",
"30 218 CURVE SMOOTH",
"30 70 OFFCURVE",
"121 -15 OFFCURVE",
"205 -15 CURVE SMOOTH"
);
},
{
closed = 1;
nodes = (
"341 512 OFFCURVE",
"367 489 OFFCURVE",
"390 460 CURVE",
"390 120 LINE",
"377 111 OFFCURVE",
"362 99 OFFCURVE",
"339 99 CURVE SMOOTH",
"283 99 OFFCURVE",
"222 154 OFFCURVE",
"222 310 CURVE SMOOTH",
"222 454 OFFCURVE",
"268 512 OFFCURVE",
"311 512 CURVE SMOOTH"
);
}
);
width = 640;
}
);
leftKerningGroup = d;
leftMetricsKey = d;
rightKerningGroup = q;
unicode = 0071;
},
{
color = 3;
glyphname = r;
lastChange = "2023-01-13 20:59:42 +0000";
layers = (
{
anchors = (
{
name = bottom;
position = "{167, 0}";
},
{
name = top;
position = "{258, 508}";
}
);
background = {
paths = (
{
closed = 1;
nodes = (
"364 518 OFFCURVE",
"320 464 OFFCURVE",
"258 393 CURVE",
"258 518 LINE",
"257 518 LINE",
"3 435 LINE",
"3 434 LINE",
"68 434 LINE",
"68 25 LINE",
"3 1 LINE",
"3 0 LINE",
"353 0 LINE",
"353 1 LINE",
"258 25 LINE",
"258 379 LINE",
"275 398 OFFCURVE",
"283 407 OFFCURVE",
"296 407 CURVE SMOOTH",
"307 407 OFFCURVE",
"315 404 OFFCURVE",
"362 386 CURVE SMOOTH",
"453 351 LINE",
"466 369 OFFCURVE",
"479 395 OFFCURVE",
"479 429 CURVE SMOOTH",
"479 478 OFFCURVE",
"442 518 OFFCURVE",
"401 518 CURVE SMOOTH"
);
}
);
};
layerId = "5ECA14C9-9880-4A66-8675-45EB4FCF3EF2";
paths = (
{
closed = 1;
nodes = (
"360 523 OFFCURVE",
"319 466 OFFCURVE",
"258 391 CURVE",
"258 523 LINE",
"257 523 LINE",
"13 439 LINE",
"13 434 LINE",
"68 417 LINE",
"68 25 LINE",
"13 5 LINE",
"13 0 LINE",
"343 0 LINE",
"343 5 LINE",
"258 25 LINE",
"258 378 LINE",
"273 394 OFFCURVE",
"291 405 OFFCURVE",
"321 405 CURVE SMOOTH",
"360 405 OFFCURVE",
"398 390 OFFCURVE",
"447 372 CURVE SMOOTH",
"458 368 LINE",
"469 383 OFFCURVE",
"485 408 OFFCURVE",
"485 443 CURVE SMOOTH",
"485 489 OFFCURVE",
"456 523 OFFCURVE",
"415 523 CURVE SMOOTH"
);
}
);
width = 485;
}
);
leftKerningGroup = n;
leftMetricsKey = n;
rightKerningGroup = r;
unicode = 0072;
},
{
color = 3;
glyphname = s;
lastChange = "2023-01-13 20:59:42 +0000";
layers = (
{
anchors = (
{
name = bottom;
position = "{216, 0}";
},
{
name = top;
position = "{232, 508}";
}
);
background = {
paths = (
{
closed = 1;
nodes = (
"15 283 OFFCURVE",
"50 245 OFFCURVE",
"164 194 CURVE SMOOTH",
"240 160 LINE SMOOTH",
"341 115 OFFCURVE",
"361 92 OFFCURVE",
"361 67 CURVE SMOOTH",
"361 43 OFFCURVE",
"343 22 OFFCURVE",
"290 22 CURVE SMOOTH",
"184 22 OFFCURVE",
"77 96 OFFCURVE",
"45 199 CURVE",
"39 199 LINE",
"75 3 LINE",
"93 -3 OFFCURVE",
"122 -10 OFFCURVE",
"184 -10 CURVE SMOOTH",
"365 -10 OFFCURVE",
"455 79 OFFCURVE",
"455 180 CURVE SMOOTH",
"455 256 OFFCURVE",
"406 305 OFFCURVE",
"307 350 CURVE SMOOTH",
"254 374 LINE SMOOTH",
"176 409 OFFCURVE",
"160 432 OFFCURVE",
"160 458 CURVE SMOOTH",
"160 483 OFFCURVE",
"182 502 OFFCURVE",
"226 502 CURVE SMOOTH",
"309 502 OFFCURVE",
"389 438 OFFCURVE",
"410 346 CURVE",
"415 346 LINE",
"415 498 LINE",
"388 506 OFFCURVE",
"355 518 OFFCURVE",
"274 518 CURVE SMOOTH",
"120 518 OFFCURVE",
"15 421 OFFCURVE",
"15 340 CURVE SMOOTH"
);
}
);
};
layerId = "5ECA14C9-9880-4A66-8675-45EB4FCF3EF2";
paths = (
{
closed = 1;
nodes = (
"15 283 OFFCURVE",
"50 245 OFFCURVE",
"164 194 CURVE SMOOTH",
"240 160 LINE SMOOTH",
"339 116 OFFCURVE",
"361 91 OFFCURVE",
"361 63 CURVE SMOOTH",
"361 38 OFFCURVE",
"341 17 OFFCURVE",
"290 17 CURVE SMOOTH",
"184 17 OFFCURVE",
"77 91 OFFCURVE",
"45 194 CURVE",
"39 194 LINE",
"75 -2 LINE",
"93 -7 OFFCURVE",
"125 -15 OFFCURVE",
"184 -15 CURVE SMOOTH",
"365 -15 OFFCURVE",
"455 74 OFFCURVE",
"455 177 CURVE SMOOTH",
"455 256 OFFCURVE",
"406 305 OFFCURVE",
"307 350 CURVE SMOOTH",
"254 374 LINE SMOOTH",
"180 407 OFFCURVE",
"160 431 OFFCURVE",
"160 461 CURVE SMOOTH",
"160 488 OFFCURVE",
"181 507 OFFCURVE",
"226 507 CURVE SMOOTH",
"309 507 OFFCURVE",
"389 443 OFFCURVE",
"410 351 CURVE",
"415 351 LINE",
"415 503 LINE",
"388 511 OFFCURVE",
"346 523 OFFCURVE",
"274 523 CURVE SMOOTH",
"120 523 OFFCURVE",
"15 426 OFFCURVE",
"15 345 CURVE SMOOTH"
);
}
);
width = 470;
}
);
leftKerningGroup = s;
rightKerningGroup = s;
unicode = 0073;
},
{
color = 3;
glyphname = germandbls;
lastChange = "2023-01-13 20:59:42 +0000";
layers = (
{
background = {
paths = (
{
closed = 1;
nodes = (
"240 0 LINE",
"240 429 LINE SMOOTH",
"240 541 OFFCURVE",
"166 595 OFFCURVE",
"166 657 CURVE SMOOTH",
"166 696 OFFCURVE",
"191 719 OFFCURVE",
"231 719 CURVE SMOOTH",
"303 719 OFFCURVE",
"369 658 OFFCURVE",
"369 577 CURVE SMOOTH",
"369 534 OFFCURVE",
"360 502 OFFCURVE",
"341 468 CURVE SMOOTH",
"319 429 OFFCURVE",
"280 367 OFFCURVE",
"280 319 CURVE SMOOTH",
"280 272 OFFCURVE",
"302 238 OFFCURVE",
"420 168 CURVE SMOOTH",
"546 93 OFFCURVE",
"556 77 OFFCURVE",
"556 60 CURVE SMOOTH",
"556 46 OFFCURVE",
"544 33 OFFCURVE",
"510 33 CURVE SMOOTH",
"424 33 OFFCURVE",
"345 105 OFFCURVE",
"316 156 CURVE",
"315 156 LINE",
"328 5 LINE",
"348 -1 OFFCURVE",
"373 -10 OFFCURVE",
"415 -10 CURVE SMOOTH",
"533 -10 OFFCURVE",
"608 79 OFFCURVE",
"608 170 CURVE SMOOTH",
"608 249 OFFCURVE",
"563 308 OFFCURVE",
"461 373 CURVE SMOOTH",
"376 427 OFFCURVE",
"344 446 OFFCURVE",
"344 461 CURVE SMOOTH",
"344 474 OFFCURVE",
"379 499 OFFCURVE",
"441 545 CURVE SMOOTH",
"512 598 OFFCURVE",
"537 630 OFFCURVE",
"537 655 CURVE SMOOTH",
"537 709 OFFCURVE",
"469 774 OFFCURVE",
"385 774 CURVE SMOOTH",
"211 774 OFFCURVE",
"53 635 OFFCURVE",
"53 483 CURVE SMOOTH",
"53 25 LINE",
"-2 2 LINE",
"-2 0 LINE"
);
}
);
};
layerId = "5ECA14C9-9880-4A66-8675-45EB4FCF3EF2";
paths = (
{
closed = 1;
nodes = (
"240 0 LINE",
"240 429 LINE SMOOTH",
"240 541 OFFCURVE",
"167 594 OFFCURVE",
"167 656 CURVE SMOOTH",
"167 695 OFFCURVE",
"192 718 OFFCURVE",
"233 718 CURVE SMOOTH",
"304 718 OFFCURVE",
"369 658 OFFCURVE",
"369 577 CURVE SMOOTH",
"369 534 OFFCURVE",
"359 502 OFFCURVE",
"340 468 CURVE SMOOTH",
"318 429 OFFCURVE",
"280 369 OFFCURVE",
"280 324 CURVE SMOOTH",
"280 284 OFFCURVE",
"304 244 OFFCURVE",
"426 177 CURVE SMOOTH",
"548 110 OFFCURVE",
"568 86 OFFCURVE",
"568 60 CURVE SMOOTH",
"568 37 OFFCURVE",
"546 16 OFFCURVE",
"499 16 CURVE SMOOTH",
"406 16 OFFCURVE",
"332 97 OFFCURVE",
"305 174 CURVE",
"299 174 LINE",
"328 1 LINE",
"348 -5 OFFCURVE",
"383 -14 OFFCURVE",
"427 -14 CURVE SMOOTH",
"564 -14 OFFCURVE",
"636 69 OFFCURVE",
"636 166 CURVE SMOOTH",
"636 253 OFFCURVE",
"578 310 OFFCURVE",
"467 371 CURVE SMOOTH",
"372 423 OFFCURVE",
"352 440 OFFCURVE",
"352 460 CURVE SMOOTH",
"352 479 OFFCURVE",
"379 499 OFFCURVE",
"441 545 CURVE SMOOTH",
"512 598 OFFCURVE",
"537 630 OFFCURVE",
"537 661 CURVE SMOOTH",
"537 709 OFFCURVE",
"480 774 OFFCURVE",
"380 774 CURVE SMOOTH",
"202 774 OFFCURVE",
"53 643 OFFCURVE",
"53 483 CURVE SMOOTH",
"53 25 LINE",
"8 5 LINE",
"8 0 LINE"
);
}
);
width = 636;
}
);
leftKerningGroup = Germandbls;
leftMetricsKey = b;
rightKerningGroup = germandbls;
unicode = 00DF;
},
{
color = 3;
glyphname = t;
lastChange = "2023-01-13 20:59:42 +0000";
layers = (
{
anchors = (
{
name = bottom;
position = "{204, 0}";
},
{
name = top;
position = "{168, 608}";
}
);
background = {
paths = (
{
closed = 1;
nodes = (
"66 448 LINE",
"66 126 LINE SMOOTH",
"66 46 OFFCURVE",
"125 -10 OFFCURVE",
"208 -10 CURVE SMOOTH",
"276 -10 OFFCURVE",
"334 40 OFFCURVE",
"410 100 CURVE",
"407 104 LINE",
"384 88 OFFCURVE",
"363 75 OFFCURVE",
"327 75 CURVE SMOOTH",
"282 75 OFFCURVE",
"256 99 OFFCURVE",
"256 136 CURVE SMOOTH",
"256 448 LINE",
"373 448 LINE",
"373 508 LINE",
"256 508 LINE",
"256 654 LINE",
"254 654 LINE",
"254 654 LINE",
"226 560 OFFCURVE",
"109 466 OFFCURVE",
"-2 451 CURVE",
"-2 451 LINE",
"-2 448 LINE"
);
}
);
};
layerId = "5ECA14C9-9880-4A66-8675-45EB4FCF3EF2";
paths = (
{
closed = 1;
nodes = (
"66 438 LINE",
"66 119 LINE SMOOTH",
"66 34 OFFCURVE",
"118 -15 OFFCURVE",
"201 -15 CURVE SMOOTH",
"256 -15 OFFCURVE",
"293 6 OFFCURVE",
"399 86 CURVE",
"395 92 LINE",
"370 76 OFFCURVE",
"350 70 OFFCURVE",
"326 70 CURVE SMOOTH",
"281 70 OFFCURVE",
"256 91 OFFCURVE",
"256 129 CURVE SMOOTH",
"256 438 LINE",
"382 438 LINE",
"382 508 LINE",
"256 508 LINE",
"256 654 LINE",
"250 654 LINE",
"250 654 LINE",
"225 571 OFFCURVE",
"123 475 OFFCURVE",
"13 444 CURVE",
"13 444 LINE",
"13 438 LINE"
);
}
);
width = 404;
}
);
leftKerningGroup = t;
rightKerningGroup = t;
unicode = 0074;
},
{
color = 3;
glyphname = tbar;
lastChange = "2023-01-13 20:59:42 +0000";
layers = (
{
anchors = (
{
name = bottom;
position = "{204, 0}";
},
{
name = top;
position = "{168, 608}";
}
);
background = {
anchors = (
{
name = bottom;
position = "{191, 0}";
},
{
name = top;
position = "{155, 608}";
}
);
paths = (
{
closed = 1;
nodes = (
"263 79 OFFCURVE",
"243 99 OFFCURVE",
"243 132 CURVE SMOOTH",
"243 267 LINE",
"320 267 LINE",
"320 272 LINE",
"243 272 LINE",
"243 448 LINE",
"352 448 LINE",
"352 508 LINE",
"243 508 LINE",
"243 650 LINE",
"242 650 LINE",
"242 650 LINE",
"201 570 OFFCURVE",
"90 481 OFFCURVE",
"-5 449 CURVE",
"-5 449 LINE",
"-5 448 LINE",
"53 448 LINE",
"53 272 LINE",
"-5 272 LINE",
"-5 267 LINE",
"53 267 LINE",
"53 126 LINE SMOOTH",
"53 46 OFFCURVE",
"112 -10 OFFCURVE",
"177 -10 CURVE SMOOTH",
"235 -10 OFFCURVE",
"295 40 OFFCURVE",
"357 87 CURVE",
"357 88 LINE",
"343 84 OFFCURVE",
"324 79 OFFCURVE",
"302 79 CURVE SMOOTH"
);
}
);
};
layerId = "5ECA14C9-9880-4A66-8675-45EB4FCF3EF2";
paths = (
{
closed = 1;
nodes = (
"13 275 LINE",
"362 275 LINE",
"362 287 LINE",
"13 287 LINE"
);
},
{
closed = 1;
nodes = (
"66 438 LINE",
"66 119 LINE SMOOTH",
"66 34 OFFCURVE",
"118 -15 OFFCURVE",
"201 -15 CURVE SMOOTH",
"256 -15 OFFCURVE",
"293 6 OFFCURVE",
"399 86 CURVE",
"395 92 LINE",
"370 76 OFFCURVE",
"350 70 OFFCURVE",
"326 70 CURVE SMOOTH",
"281 70 OFFCURVE",
"256 91 OFFCURVE",
"256 129 CURVE SMOOTH",
"256 438 LINE",
"382 438 LINE",
"382 508 LINE",
"256 508 LINE",
"256 654 LINE",
"250 654 LINE",
"250 654 LINE",
"225 571 OFFCURVE",
"123 475 OFFCURVE",
"13 444 CURVE",
"13 444 LINE",
"13 438 LINE"
);
}
);
width = 404;
}
);
leftKerningGroup = t;
leftMetricsKey = t;
rightKerningGroup = t;
rightMetricsKey = t;
unicode = 0167;
},
{
color = 3;
glyphname = tcaron;
lastChange = "2022-12-13 09:41:41 +0000";
layers = (
{
background = {
paths = (
{
closed = 1;
nodes = (
"339 583 OFFCURVE",
"504 659 OFFCURVE",
"504 753 CURVE SMOOTH",
"504 807 OFFCURVE",
"464 846 OFFCURVE",
"398 846 CURVE SMOOTH",
"338 846 OFFCURVE",
"304 810 OFFCURVE",
"286 774 CURVE",
"347 718 OFFCURVE",
"373 694 OFFCURVE",
"373 665 CURVE SMOOTH",
"373 639 OFFCURVE",
"327 596 OFFCURVE",
"275 553 CURVE",
"276 552 LINE"
);
}
);
};
components = (
{
name = t;
}
);
layerId = "5ECA14C9-9880-4A66-8675-45EB4FCF3EF2";
paths = (
{
closed = 1;
nodes = (
"348 576 OFFCURVE",
"514 646 OFFCURVE",
"514 749 CURVE SMOOTH",
"514 802 OFFCURVE",
"474 846 OFFCURVE",
"407 846 CURVE SMOOTH",
"342 846 OFFCURVE",
"303 810 OFFCURVE",
"296 761 CURVE",
"347 736 OFFCURVE",
"383 705 OFFCURVE",
"383 660 CURVE SMOOTH",
"383 613 OFFCURVE",
"344 584 OFFCURVE",
"295 559 CURVE",
"298 552 LINE"
);
}
);
width = 404;
}
);
leftKerningGroup = t;
leftMetricsKey = t;
rightKerningGroup = tcaron;
unicode = 0165;
},
{
color = 3;
glyphname = u;
lastChange = "2023-01-13 20:59:42 +0000";
layers = (
{
anchors = (
{
name = bottom;
position = "{327, 0}";
},
{
name = ogonek;
position = "{566, 0}";
},
{
name = top;
position = "{327, 508}";
}
);
background = {
paths = (
{
closed = 1;
nodes = (
"68 51 OFFCURVE",
"128 -10 OFFCURVE",
"202 -10 CURVE SMOOTH",
"252 -10 OFFCURVE",
"318 50 OFFCURVE",
"389 111 CURVE",
"389 -10 LINE",
"390 -10 LINE",
"644 73 LINE",
"644 74 LINE",
"579 74 LINE",
"579 515 LINE",
"578 515 LINE",
"319 435 LINE",
"319 434 LINE",
"389 434 LINE",
"389 122 LINE",
"369 111 OFFCURVE",
"352 101 OFFCURVE",
"325 101 CURVE SMOOTH",
"287 101 OFFCURVE",
"258 128 OFFCURVE",
"258 187 CURVE SMOOTH",
"258 515 LINE",
"257 515 LINE",
"3 435 LINE",
"3 434 LINE",
"68 434 LINE",
"68 156 LINE SMOOTH"
);
}
);
};
layerId = "5ECA14C9-9880-4A66-8675-45EB4FCF3EF2";
paths = (
{
closed = 1;
nodes = (
"68 38 OFFCURVE",
"124 -15 OFFCURVE",
"194 -15 CURVE SMOOTH",
"254 -15 OFFCURVE",
"320 45 OFFCURVE",
"389 106 CURVE",
"389 -15 LINE",
"390 -15 LINE",
"634 64 LINE",
"634 69 LINE",
"579 69 LINE",
"579 523 LINE",
"578 523 LINE",
"329 447 LINE",
"329 442 LINE",
"389 425 LINE",
"389 117 LINE",
"369 106 OFFCURVE",
"352 96 OFFCURVE",
"325 96 CURVE SMOOTH",
"285 96 OFFCURVE",
"258 121 OFFCURVE",
"258 178 CURVE SMOOTH",
"258 523 LINE",
"257 523 LINE",
"13 447 LINE",
"13 442 LINE",
"68 425 LINE",
"68 145 LINE SMOOTH"
);
}
);
width = 647;
}
);
leftKerningGroup = u;
rightKerningGroup = u;
unicode = 0075;
},
{
color = 5;
glyphname = uogonek;
lastChange = "2022-11-11 10:35:07 +0000";
layers = (
{
anchors = (
{
name = bottom;
position = "{316, 0}";
},
{
name = ogonek;
position = "{594, 0}";
},
{
name = top;
position = "{316, 508}";
}
);
background = {
anchors = (
{
name = bottom;
position = "{316, 0}";
},
{
name = ogonek;
position = "{594, 0}";
},
{
name = top;
position = "{316, 508}";
}
);
components = (
{
name = u;
},
{
name = ogonekcomb;
transform = "{1, 0, 0, 1, 247, 0}";
}
);
};
layerId = "5ECA14C9-9880-4A66-8675-45EB4FCF3EF2";
paths = (
{
closed = 1;
nodes = (
"68 38 OFFCURVE",
"124 -15 OFFCURVE",
"194 -15 CURVE SMOOTH",
"254 -15 OFFCURVE",
"320 45 OFFCURVE",
"389 106 CURVE",
"389 -15 LINE",
"390 -15 LINE",
"634 64 LINE",
"634 69 LINE",
"579 69 LINE",
"579 523 LINE",
"578 523 LINE",
"329 447 LINE",
"329 442 LINE",
"389 425 LINE",
"389 117 LINE",
"369 106 OFFCURVE",
"352 96 OFFCURVE",
"325 96 CURVE SMOOTH",
"285 96 OFFCURVE",
"258 121 OFFCURVE",
"258 178 CURVE SMOOTH",
"258 523 LINE",
"257 523 LINE",
"13 447 LINE",
"13 442 LINE",
"68 425 LINE",
"68 145 LINE SMOOTH"
);
},
{
closed = 1;
nodes = (
"555 37 LINE",
"470 -31 OFFCURVE",
"398 -89 OFFCURVE",
"398 -149 CURVE SMOOTH",
"398 -194 OFFCURVE",
"439 -237 OFFCURVE",
"498 -237 CURVE SMOOTH",
"559 -237 OFFCURVE",
"610 -192 OFFCURVE",
"645 -154 CURVE",
"645 -147 LINE",
"632 -156 OFFCURVE",
"616 -165 OFFCURVE",
"594 -165 CURVE SMOOTH",
"553 -165 OFFCURVE",
"521 -136 OFFCURVE",
"521 -83 CURVE SMOOTH",
"521 -36 OFFCURVE",
"543 1 OFFCURVE",
"577 47 CURVE",
"555 50 LINE"
);
}
);
width = 647;
}
);
leftKerningGroup = u;
rightKerningGroup = u;
unicode = 0173;
},
{
color = 3;
glyphname = v;
lastChange = "2023-01-13 20:59:42 +0000";
layers = (
{
background = {
paths = (
{
closed = 1;
nodes = (
"338 508 LINE",
"338 507 LINE",
"354 503 LINE SMOOTH",
"420 487 OFFCURVE",
"472 440 OFFCURVE",
"377 238 CURVE SMOOTH",
"352 185 LINE",
"215 486 LINE",
"274 507 LINE",
"274 508 LINE",
"-40 508 LINE",
"-40 507 LINE",
"7 486 LINE",
"265 -15 LINE",
"267 -15 LINE",
"510 486 LINE",
"557 507 LINE",
"557 508 LINE"
);
}
);
};
layerId = "5ECA14C9-9880-4A66-8675-45EB4FCF3EF2";
paths = (
{
closed = 1;
nodes = (
"341 508 LINE",
"341 503 LINE",
"354 500 LINE SMOOTH",
"434 482 OFFCURVE",
"474 436 OFFCURVE",
"379 241 CURVE SMOOTH",
"361 204 LINE",
"220 486 LINE",
"269 503 LINE",
"269 508 LINE",
"-30 508 LINE",
"-30 503 LINE",
"7 486 LINE",
"265 -15 LINE",
"267 -15 LINE",
"510 486 LINE",
"547 503 LINE",
"547 508 LINE"
);
}
);
width = 517;
}
);
leftKerningGroup = v;
rightKerningGroup = v;
unicode = 0076;
},
{
color = 3;
glyphname = w;
lastChange = "2023-01-13 20:59:42 +0000";
layers = (
{
anchors = (
{
name = top;
position = "{420, 508}";
}
);
background = {
paths = (
{
closed = 1;
nodes = (
"12 487 LINE",
"228 -15 LINE",
"229 -15 LINE",
"382 277 LINE",
"553 -15 LINE",
"554 -15 LINE",
"772 487 LINE",
"819 507 LINE",
"819 508 LINE",
"600 508 LINE",
"600 507 LINE",
"616 503 LINE SMOOTH",
"692 484 OFFCURVE",
"738 446 OFFCURVE",
"658 245 CURVE SMOOTH",
"636 190 LINE",
"440 523 LINE",
"439 523 LINE",
"330 191 LINE",
"211 487 LINE",
"278 507 LINE",
"278 508 LINE",
"-35 508 LINE",
"-35 507 LINE"
);
}
);
};
layerId = "5ECA14C9-9880-4A66-8675-45EB4FCF3EF2";
paths = (
{
closed = 1;
nodes = (
"12 487 LINE",
"227 -15 LINE",
"230 -15 LINE",
"378 273 LINE",
"552 -15 LINE",
"555 -15 LINE",
"772 487 LINE",
"809 503 LINE",
"809 508 LINE",
"604 508 LINE",
"604 503 LINE",
"616 501 LINE SMOOTH",
"711 485 OFFCURVE",
"739 442 OFFCURVE",
"658 252 CURVE SMOOTH",
"636 200 LINE",
"441 523 LINE",
"438 523 LINE",
"331 203 LINE",
"215 487 LINE",
"272 503 LINE",
"272 508 LINE",
"-25 508 LINE",
"-25 503 LINE"
);
}
);
width = 784;
}
);
leftKerningGroup = v;
rightKerningGroup = v;
unicode = 0077;
},
{
color = 3;
glyphname = x;
lastChange = "2023-01-13 20:59:42 +0000";
layers = (
{
background = {
paths = (
{
closed = 1;
nodes = (
"491 487 LINE",
"538 507 LINE",
"538 508 LINE",
"339 508 LINE",
"339 507 LINE",
"358 503 LINE SMOOTH",
"410 492 OFFCURVE",
"436 448 OFFCURVE",
"350 352 CURVE SMOOTH",
"332 332 LINE",
"336 327 LINE"
);
},
{
closed = 1;
nodes = (
"276 1 LINE",
"276 0 LINE",
"598 0 LINE",
"598 1 LINE",
"553 21 LINE",
"231 487 LINE",
"283 507 LINE",
"283 508 LINE",
"-21 508 LINE",
"-21 507 LINE",
"15 487 LINE",
"335 21 LINE"
);
},
{
closed = 1;
nodes = (
"14 21 LINE",
"-35 1 LINE",
"-35 0 LINE",
"194 0 LINE",
"194 1 LINE",
"175 5 LINE SMOOTH",
"114 18 OFFCURVE",
"84 66 OFFCURVE",
"176 174 CURVE SMOOTH",
"209 213 LINE",
"205 218 LINE"
);
}
);
};
layerId = "5ECA14C9-9880-4A66-8675-45EB4FCF3EF2";
paths = (
{
closed = 1;
nodes = (
"281 5 LINE",
"281 0 LINE",
"597 0 LINE",
"597 5 LINE",
"557 21 LINE",
"235 487 LINE",
"282 503 LINE",
"282 508 LINE",
"-16 508 LINE",
"-16 503 LINE",
"15 487 LINE",
"335 21 LINE"
);
},
{
closed = 1;
nodes = (
"14 21 LINE",
"-30 5 LINE",
"-30 0 LINE",
"188 0 LINE",
"188 5 LINE",
"172 8 LINE SMOOTH",
"105 21 OFFCURVE",
"79 64 OFFCURVE",
"175 174 CURVE SMOOTH",
"209 213 LINE",
"203 220 LINE"
);
},
{
closed = 1;
nodes = (
"494 487 LINE",
"534 503 LINE",
"534 508 LINE",
"345 508 LINE",
"345 503 LINE",
"363 500 LINE SMOOTH",
"423 490 OFFCURVE",
"446 455 OFFCURVE",
"353 352 CURVE SMOOTH",
"335 332 LINE",
"340 323 LINE"
);
}
);
width = 567;
}
);
leftKerningGroup = x;
rightKerningGroup = x;
unicode = 0078;
},
{
color = 3;
glyphname = y;
lastChange = "2023-01-13 20:59:42 +0000";
layers = (
{
anchors = (
{
name = top;
position = "{294, 508}";
}
);
background = {
paths = (
{
closed = 1;
nodes = (
"7 486 LINE",
"260 -5 LINE",
"235 -53 OFFCURVE",
"222 -63 OFFCURVE",
"199 -63 CURVE SMOOTH",
"187 -63 OFFCURVE",
"171 -61 OFFCURVE",
"141 -56 CURVE SMOOTH",
"30 -39 LINE",
"22 -55 OFFCURVE",
"12 -80 OFFCURVE",
"12 -110 CURVE SMOOTH",
"12 -169 OFFCURVE",
"41 -205 OFFCURVE",
"89 -205 CURVE SMOOTH",
"143 -205 OFFCURVE",
"196 -161 OFFCURVE",
"267 -15 CURVE SMOOTH",
"510 486 LINE",
"557 507 LINE",
"557 508 LINE",
"338 508 LINE",
"338 507 LINE",
"354 503 LINE SMOOTH",
"420 487 OFFCURVE",
"472 439 OFFCURVE",
"377 237 CURVE SMOOTH",
"352 184 LINE",
"215 486 LINE",
"274 507 LINE",
"274 508 LINE",
"-40 508 LINE",
"-40 507 LINE"
);
}
);
};
layerId = "5ECA14C9-9880-4A66-8675-45EB4FCF3EF2";
paths = (
{
closed = 1;
nodes = (
"7 486 LINE",
"260 -5 LINE",
"238 -52 OFFCURVE",
"216 -66 OFFCURVE",
"172 -66 CURVE SMOOTH",
"141 -66 OFFCURVE",
"104 -59 OFFCURVE",
"51 -45 CURVE SMOOTH",
"40 -42 LINE",
"26 -66 OFFCURVE",
"12 -94 OFFCURVE",
"12 -127 CURVE SMOOTH",
"12 -175 OFFCURVE",
"41 -205 OFFCURVE",
"84 -205 CURVE SMOOTH",
"140 -205 OFFCURVE",
"200 -153 OFFCURVE",
"267 -15 CURVE SMOOTH",
"510 486 LINE",
"547 503 LINE",
"547 508 LINE",
"341 508 LINE",
"341 503 LINE",
"354 500 LINE SMOOTH",
"453 477 OFFCURVE",
"460 407 OFFCURVE",
"379 241 CURVE SMOOTH",
"361 204 LINE",
"220 486 LINE",
"269 503 LINE",
"269 508 LINE",
"-30 508 LINE",
"-30 503 LINE"
);
}
);
width = 517;
}
);
leftKerningGroup = y;
leftMetricsKey = v;
rightKerningGroup = v;
rightMetricsKey = v;
unicode = 0079;
},
{
color = 3;
glyphname = z;
lastChange = "2023-01-13 20:59:42 +0000";
layers = (
{
anchors = (
{
name = top;
position = "{267, 508}";
}
);
background = {
paths = (
{
closed = 1;
nodes = (
"25 350 LINE",
"26 350 LINE",
"78 456 OFFCURVE",
"128 498 OFFCURVE",
"230 498 CURVE SMOOTH",
"274 498 LINE",
"13 1 LINE",
"13 0 LINE",
"468 0 LINE",
"498 199 LINE",
"497 199 LINE",
"444 58 OFFCURVE",
"394 10 OFFCURVE",
"260 10 CURVE SMOOTH",
"218 10 LINE",
"478 507 LINE",
"478 508 LINE",
"57 508 LINE"
);
}
);
};
layerId = "5ECA14C9-9880-4A66-8675-45EB4FCF3EF2";
paths = (
{
closed = 1;
nodes = (
"25 350 LINE",
"30 350 LINE",
"82 456 OFFCURVE",
"128 497 OFFCURVE",
"228 497 CURVE SMOOTH",
"266 497 LINE",
"13 1 LINE",
"13 0 LINE",
"468 0 LINE",
"498 199 LINE",
"493 199 LINE",
"440 58 OFFCURVE",
"394 11 OFFCURVE",
"260 11 CURVE SMOOTH",
"224 11 LINE",
"478 507 LINE",
"478 508 LINE",
"57 508 LINE"
);
}
);
width = 508;
}
);
leftKerningGroup = z;
rightKerningGroup = z;
unicode = 007A;
},
{
color = 3;
glyphname = ordfeminine;
lastChange = "2023-01-13 20:59:42 +0000";
layers = (
{
anchors = (
{
name = ogonek;
position = "{380, 0}";
},
{
name = top;
position = "{185, 356}";
}
);
background = {
paths = (
{
closed = 1;
nodes = (
"188 425 OFFCURVE",
"183 421 OFFCURVE",
"173 421 CURVE SMOOTH",
"156 421 OFFCURVE",
"139 441 OFFCURVE",
"139 464 CURVE SMOOTH",
"139 478 OFFCURVE",
"145 485 OFFCURVE",
"165 494 CURVE SMOOTH",
"195 507 LINE",
"195 517 LINE",
"62 467 LINE SMOOTH",
"24 453 OFFCURVE",
"15 444 OFFCURVE",
"15 427 CURVE SMOOTH",
"15 390 OFFCURVE",
"50 351 OFFCURVE",
"96 351 CURVE SMOOTH",
"138 351 OFFCURVE",
"163 384 OFFCURVE",
"195 420 CURVE",
"195 430 LINE"
);
},
{
closed = 1;
nodes = (
"226 352 OFFCURVE",
"278 352 CURVE SMOOTH",
"314 352 OFFCURVE",
"352 375 OFFCURVE",
"393 398 CURVE",
"393 404 LINE",
"382 400 OFFCURVE",
"374 398 OFFCURVE",
"362 398 CURVE SMOOTH",
"344 398 OFFCURVE",
"334 409 OFFCURVE",
"334 423 CURVE SMOOTH",
"334 605 LINE SMOOTH",
"334 677 OFFCURVE",
"282 721 OFFCURVE",
"225 721 CURVE SMOOTH",
"189 721 OFFCURVE",
"162 707 OFFCURVE",
"99 664 CURVE SMOOTH",
"41 624 OFFCURVE",
"25 609 OFFCURVE",
"25 588 CURVE SMOOTH",
"25 563 OFFCURVE",
"49 544 OFFCURVE",
"90 544 CURVE",
"94 584 LINE SMOOTH",
"101 657 OFFCURVE",
"119 672 OFFCURVE",
"141 672 CURVE SMOOTH",
"170 672 OFFCURVE",
"193 648 OFFCURVE",
"193 593 CURVE SMOOTH",
"193 426 LINE SMOOTH",
"193 385 OFFCURVE"
);
}
);
};
layerId = "5ECA14C9-9880-4A66-8675-45EB4FCF3EF2";
paths = (
{
closed = 1;
nodes = (
"25 619 OFFCURVE",
"44 602 OFFCURVE",
"75 602 CURVE SMOOTH",
"97 602 OFFCURVE",
"110 610 OFFCURVE",
"116 614 CURVE",
"111 633 LINE SMOOTH",
"106 654 OFFCURVE",
"103 670 OFFCURVE",
"103 683 CURVE SMOOTH",
"103 721 OFFCURVE",
"122 731 OFFCURVE",
"146 731 CURVE SMOOTH",
"173 731 OFFCURVE",
"193 714 OFFCURVE",
"193 658 CURVE SMOOTH",
"193 481 LINE SMOOTH",
"193 440 OFFCURVE",
"226 407 OFFCURVE",
"278 407 CURVE SMOOTH",
"314 407 OFFCURVE",
"352 430 OFFCURVE",
"393 453 CURVE",
"393 459 LINE",
"382 455 OFFCURVE",
"374 453 OFFCURVE",
"362 453 CURVE SMOOTH",
"344 453 OFFCURVE",
"334 464 OFFCURVE",
"334 478 CURVE SMOOTH",
"334 663 LINE SMOOTH",
"334 733 OFFCURVE",
"286 776 OFFCURVE",
"223 776 CURVE SMOOTH",
"188 776 OFFCURVE",
"156 761 OFFCURVE",
"100 724 CURVE SMOOTH",
"45 687 OFFCURVE",
"25 667 OFFCURVE",
"25 642 CURVE SMOOTH"
);
},
{
closed = 1;
nodes = (
"15 439 OFFCURVE",
"47 406 OFFCURVE",
"95 406 CURVE SMOOTH",
"139 406 OFFCURVE",
"165 439 OFFCURVE",
"195 475 CURVE",
"195 485 LINE",
"190 481 OFFCURVE",
"184 475 OFFCURVE",
"172 475 CURVE SMOOTH",
"153 475 OFFCURVE",
"137 495 OFFCURVE",
"137 519 CURVE SMOOTH",
"137 536 OFFCURVE",
"146 544 OFFCURVE",
"166 554 CURVE SMOOTH",
"195 568 LINE",
"195 578 LINE",
"60 517 LINE SMOOTH",
"25 501 OFFCURVE",
"15 494 OFFCURVE",
"15 475 CURVE SMOOTH"
);
}
);
width = 378;
}
);
leftKerningGroup = ordfeminine;
leftMetricsKey = a;
rightKerningGroup = ordfeminine;
rightMetricsKey = a;
unicode = 00AA;
},
{
color = 3;
glyphname = ordmasculine;
lastChange = "2023-01-13 20:59:42 +0000";
layers = (
{
anchors = (
{
name = ogonek;
position = "{376, 0}";
},
{
name = top;
position = "{229, 356}";
}
);
background = {
paths = (
{
closed = 1;
nodes = (
"345 352 OFFCURVE",
"438 435 OFFCURVE",
"438 542 CURVE SMOOTH",
"438 644 OFFCURVE",
"350 722 OFFCURVE",
"233 722 CURVE SMOOTH",
"113 722 OFFCURVE",
"20 639 OFFCURVE",
"20 531 CURVE SMOOTH",
"20 429 OFFCURVE",
"108 352 OFFCURVE",
"225 352 CURVE SMOOTH"
);
},
{
closed = 1;
nodes = (
"177 699 OFFCURVE",
"196 718 OFFCURVE",
"209 718 CURVE SMOOTH",
"228 718 OFFCURVE",
"280 649 OFFCURVE",
"280 487 CURVE SMOOTH",
"280 376 OFFCURVE",
"262 356 OFFCURVE",
"251 356 CURVE SMOOTH",
"229 356 OFFCURVE",
"177 427 OFFCURVE",
"177 586 CURVE SMOOTH"
);
}
);
};
layerId = "5ECA14C9-9880-4A66-8675-45EB4FCF3EF2";
paths = (
{
closed = 1;
nodes = (
"345 407 OFFCURVE",
"438 490 OFFCURVE",
"438 597 CURVE SMOOTH",
"438 699 OFFCURVE",
"350 777 OFFCURVE",
"233 777 CURVE SMOOTH",
"113 777 OFFCURVE",
"20 694 OFFCURVE",
"20 586 CURVE SMOOTH",
"20 484 OFFCURVE",
"108 407 OFFCURVE",
"225 407 CURVE SMOOTH"
);
},
{
closed = 1;
nodes = (
"177 746 OFFCURVE",
"195 766 OFFCURVE",
"215 766 CURVE SMOOTH",
"239 766 OFFCURVE",
"280 704 OFFCURVE",
"280 542 CURVE SMOOTH",
"280 439 OFFCURVE",
"263 418 OFFCURVE",
"245 418 CURVE SMOOTH",
"218 418 OFFCURVE",
"177 482 OFFCURVE",
"177 641 CURVE SMOOTH"
);
}
);
width = 458;
}
);
leftKerningGroup = ordmasculine;
leftMetricsKey = o;
rightKerningGroup = ordmasculine;
rightMetricsKey = o;
unicode = 00BA;
},
{
color = 9;
glyphname = "Be-cy";
lastChange = "2022-12-03 13:47:16 +0000";
layers = (
{
background = {
paths = (
{
closed = 1;
nodes = (
"15 712 LINE",
"15 707 LINE",
"82 687 LINE",
"282 705 LINE",
"282 705 LINE",
"418 703 OFFCURVE",
"501 640 OFFCURVE",
"544 535 CURVE SMOOTH",
"555 508 LINE",
"560 508 LINE",
"528 770 LINE",
"523 770 LINE",
"511 712 LINE"
);
},
{
closed = 1;
nodes = (
"272 0 LINE SMOOTH",
"510 0 OFFCURVE",
"649 81 OFFCURVE",
"649 210 CURVE SMOOTH",
"649 310 OFFCURVE",
"550 402 OFFCURVE",
"287 402 CURVE SMOOTH",
"282 402 LINE",
"282 705 LINE",
"370 711 LINE",
"370 712 LINE",
"15 712 LINE",
"15 711 LINE",
"82 687 LINE",
"82 25 LINE",
"15 5 LINE",
"15 0 LINE"
);
},
{
closed = 1;
nodes = (
"282 11 LINE",
"282 391 LINE",
"282 391 LINE",
"374 391 OFFCURVE",
"455 330 OFFCURVE",
"455 199 CURVE SMOOTH",
"455 69 OFFCURVE",
"373 12 OFFCURVE",
"282 11 CURVE"
);
}
);
};
layerId = "5ECA14C9-9880-4A66-8675-45EB4FCF3EF2";
paths = (
{
closed = 1;
nodes = (
"15 712 LINE",
"15 707 LINE",
"82 687 LINE",
"282 705 LINE",
"282 705 LINE",
"418 703 OFFCURVE",
"501 640 OFFCURVE",
"544 535 CURVE SMOOTH",
"555 508 LINE",
"560 508 LINE",
"528 770 LINE",
"523 770 LINE",
"511 712 LINE"
);
},
{
closed = 1;
nodes = (
"324 0 LINE SMOOTH",
"560 0 OFFCURVE",
"664 83 OFFCURVE",
"664 206 CURVE SMOOTH",
"664 318 OFFCURVE",
"566 402 OFFCURVE",
"323 402 CURVE SMOOTH",
"286 402 LINE",
"286 708 LINE",
"360 707 LINE",
"360 712 LINE",
"15 712 LINE",
"15 707 LINE",
"82 687 LINE",
"82 25 LINE",
"15 5 LINE",
"15 0 LINE"
);
},
{
closed = 1;
nodes = (
"286 11 LINE",
"286 391 LINE",
"320 391 LINE SMOOTH",
"392 391 OFFCURVE",
"463 334 OFFCURVE",
"463 203 CURVE SMOOTH",
"463 65 OFFCURVE",
"393 11 OFFCURVE",
"322 11 CURVE SMOOTH"
);
}
);
width = 684;
}
);
leftKerningGroup = H;
leftMetricsKey = H;
rightKerningGroup = "Be-cy";
rightMetricsKey = P;
unicode = 0411;
},
{
color = 9;
glyphname = "Ge-cy";
lastChange = "2023-01-13 20:59:42 +0000";
layers = (
{
background = {
paths = (
{
closed = 1;
nodes = (
"15 712 LINE",
"15 707 LINE",
"82 687 LINE",
"82 25 LINE",
"15 5 LINE",
"15 0 LINE",
"363 0 LINE",
"363 5 LINE",
"286 25 LINE",
"286 701 LINE",
"286 701 LINE",
"405 700 OFFCURVE",
"488 658 OFFCURVE",
"559 534 CURVE SMOOTH",
"574 508 LINE",
"579 508 LINE",
"515 770 LINE",
"510 770 LINE",
"504 712 LINE"
);
}
);
};
layerId = "5ECA14C9-9880-4A66-8675-45EB4FCF3EF2";
paths = (
{
closed = 1;
nodes = (
"365 0 LINE",
"365 5 LINE",
"286 25 LINE",
"286 701 LINE",
"286 701 LINE",
"422 701 OFFCURVE",
"495 646 OFFCURVE",
"538 534 CURVE SMOOTH",
"548 508 LINE",
"553 508 LINE",
"521 770 LINE",
"516 770 LINE",
"503 712 LINE",
"15 712 LINE",
"15 707 LINE",
"82 687 LINE",
"82 25 LINE",
"15 5 LINE",
"15 0 LINE"
);
}
);
width = 568;
}
);
leftKerningGroup = H;
leftMetricsKey = H;
rightKerningGroup = T;
rightMetricsKey = F;
unicode = 0413;
},
{
color = 9;
glyphname = "Gheupturn-cy";
lastChange = "2022-12-03 12:24:33 +0000";
layers = (
{
background = {
paths = (
{
closed = 1;
nodes = (
"5 712 LINE",
"5 711 LINE",
"82 687 LINE",
"82 25 LINE",
"5 1 LINE",
"5 0 LINE",
"373 0 LINE",
"373 1 LINE",
"286 25 LINE",
"286 708 LINE",
"286 712 LINE"
);
},
{
closed = 1;
nodes = (
"498 708 LINE",
"550 920 LINE",
"549 920 LINE",
"528 884 LINE SMOOTH",
"460 768 OFFCURVE",
"385 714 OFFCURVE",
"286 712 CURVE",
"286 712 LINE",
"121 712 LINE",
"27 709 LINE",
"27 708 LINE"
);
}
);
};
layerId = "5ECA14C9-9880-4A66-8675-45EB4FCF3EF2";
paths = (
{
closed = 1;
nodes = (
"363 0 LINE",
"363 5 LINE",
"286 25 LINE",
"286 701 LINE",
"498 701 LINE",
"536 879 LINE",
"530 879 LINE",
"488 783 OFFCURVE",
"420 712 OFFCURVE",
"250 712 CURVE SMOOTH",
"15 712 LINE",
"15 707 LINE",
"82 687 LINE",
"82 25 LINE",
"15 5 LINE",
"15 0 LINE"
);
}
);
width = 520;
}
);
leftKerningGroup = H;
leftMetricsKey = H;
rightKerningGroup = "Gheupturn-cy";
unicode = 0490;
},
{
color = 9;
glyphname = "De-cy";
lastChange = "2023-01-13 20:59:42 +0000";
layers = (
{
background = {
paths = (
{
closed = 1;
nodes = (
"761 6 LINE",
"538 6 LINE",
"538 0 LINE",
"680 0 OFFCURVE",
"737 -66 OFFCURVE",
"775 -143 CURVE SMOOTH",
"793 -180 LINE",
"794 -180 LINE"
);
},
{
closed = 1;
nodes = (
"-34 -180 LINE",
"-16 -143 LINE SMOOTH",
"22 -66 OFFCURVE",
"79 0 OFFCURVE",
"221 0 CURVE",
"221 6 LINE",
"111 6 LINE",
"1 23 LINE",
"-35 -180 LINE"
);
},
{
closed = 1;
nodes = (
"111 3 LINE",
"148 106 OFFCURVE",
"226 285 OFFCURVE",
"226 611 CURVE SMOOTH",
"226 704 LINE",
"409 704 LINE",
"409 6 LINE",
"28 6 LINE",
"28 0 LINE",
"676 0 LINE",
"676 687 LINE",
"753 711 LINE",
"753 712 LINE",
"79 712 LINE",
"79 711 LINE",
"156 687 LINE",
"176 610 OFFCURVE",
"208 490 OFFCURVE",
"208 418 CURVE SMOOTH",
"208 275 OFFCURVE",
"124 100 OFFCURVE",
"72 6 CURVE"
);
}
);
};
layerId = "5ECA14C9-9880-4A66-8675-45EB4FCF3EF2";
paths = (
{
closed = 1;
nodes = (
"701 12 LINE",
"476 12 LINE",
"476 0 LINE",
"620 0 OFFCURVE",
"673 -61 OFFCURVE",
"714 -148 CURVE SMOOTH",
"729 -180 LINE",
"734 -180 LINE"
);
},
{
closed = 1;
nodes = (
"112 3 LINE",
"140 108 OFFCURVE",
"189 277 OFFCURVE",
"235 534 CURVE SMOOTH",
"265 700 LINE",
"422 700 LINE",
"422 12 LINE",
"28 12 LINE",
"28 0 LINE",
"626 0 LINE",
"626 687 LINE",
"693 707 LINE",
"693 712 LINE",
"113 712 LINE",
"113 707 LINE",
"180 687 LINE",
"187 618 OFFCURVE",
"197 502 OFFCURVE",
"197 439 CURVE SMOOTH",
"197 319 OFFCURVE",
"117 100 OFFCURVE",
"72 6 CURVE"
);
},
{
closed = 1;
nodes = (
"-20 -180 LINE",
"-4 -146 LINE SMOOTH",
"37 -59 OFFCURVE",
"89 0 OFFCURVE",
"233 0 CURVE",
"233 6 LINE",
"113 12 LINE",
"11 29 LINE",
"-25 -180 LINE"
);
}
);
width = 709;
}
);
leftKerningGroup = "De-cy";
leftMetricsKey = "=|Tse-cy";
rightKerningGroup = "Tse-cy";
rightMetricsKey = "Tse-cy";
unicode = 0414;
},
{
color = 9;
glyphname = "Zhe-cy";
lastChange = "2023-01-13 20:59:42 +0000";
layers = (
{
background = {
paths = (
{
closed = 1;
nodes = (
"768 0 LINE",
"768 5 LINE",
"706 25 LINE",
"706 390 LINE",
"763 390 LINE",
"880 124 LINE SMOOTH",
"913 48 OFFCURVE",
"948 -5 OFFCURVE",
"1022 -5 CURVE SMOOTH",
"1069 -5 OFFCURVE",
"1113 10 OFFCURVE",
"1156 25 CURVE SMOOTH",
"1248 56 LINE",
"1248 63 LINE",
"1234 59 OFFCURVE",
"1222 56 OFFCURVE",
"1207 56 CURVE SMOOTH",
"1179 56 OFFCURVE",
"1160 63 OFFCURVE",
"1128 113 CURVE SMOOTH",
"869 510 LINE",
"1050 687 LINE",
"1139 707 LINE",
"1139 712 LINE",
"866 712 LINE",
"866 707 LINE",
"877 705 LINE SMOOTH",
"973 688 OFFCURVE",
"989 665 OFFCURVE",
"816 461 CURVE SMOOTH",
"766 402 LINE",
"706 402 LINE",
"706 687 LINE",
"763 707 LINE",
"763 712 LINE",
"455 712 LINE",
"455 707 LINE",
"502 687 LINE",
"502 25 LINE",
"445 5 LINE",
"445 0 LINE"
);
},
{
closed = 1;
nodes = (
"763 5 LINE",
"706 25 LINE",
"706 687 LINE",
"753 707 LINE",
"753 712 LINE",
"445 712 LINE",
"445 707 LINE",
"502 687 LINE",
"502 402 LINE",
"442 402 LINE",
"392 461 LINE SMOOTH",
"219 665 OFFCURVE",
"235 688 OFFCURVE",
"331 705 CURVE SMOOTH",
"342 707 LINE",
"342 712 LINE",
"69 712 LINE",
"69 707 LINE",
"158 687 LINE",
"339 510 LINE",
"80 113 LINE SMOOTH",
"48 63 OFFCURVE",
"29 56 OFFCURVE",
"1 56 CURVE SMOOTH",
"-14 56 OFFCURVE",
"-26 59 OFFCURVE",
"-40 63 CURVE",
"-40 56 LINE",
"52 25 LINE SMOOTH",
"95 10 OFFCURVE",
"139 -5 OFFCURVE",
"186 -5 CURVE SMOOTH",
"260 -5 OFFCURVE",
"295 48 OFFCURVE",
"328 124 CURVE SMOOTH",
"445 390 LINE",
"502 390 LINE",
"502 25 LINE",
"440 5 LINE",
"440 0 LINE",
"763 0 LINE"
);
}
);
};
layerId = "5ECA14C9-9880-4A66-8675-45EB4FCF3EF2";
paths = (
{
closed = 1;
nodes = (
"435 5 LINE",
"435 0 LINE",
"773 0 LINE",
"773 5 LINE",
"706 25 LINE",
"706 398 LINE",
"763 398 LINE",
"880 124 LINE SMOOTH",
"913 48 OFFCURVE",
"945 -5 OFFCURVE",
"1022 -5 CURVE SMOOTH",
"1069 -5 OFFCURVE",
"1113 10 OFFCURVE",
"1156 25 CURVE SMOOTH",
"1248 56 LINE",
"1248 63 LINE",
"1234 59 OFFCURVE",
"1222 56 OFFCURVE",
"1207 56 CURVE SMOOTH",
"1179 56 OFFCURVE",
"1158 67 OFFCURVE",
"1124 120 CURVE SMOOTH",
"870 518 LINE",
"1048 687 LINE",
"1139 707 LINE",
"1139 712 LINE",
"866 712 LINE",
"866 707 LINE",
"877 705 LINE SMOOTH",
"975 687 OFFCURVE",
"987 667 OFFCURVE",
"816 469 CURVE SMOOTH",
"765 410 LINE",
"706 410 LINE",
"706 687 LINE",
"773 707 LINE",
"773 712 LINE",
"435 712 LINE",
"435 707 LINE",
"502 687 LINE",
"502 410 LINE",
"443 410 LINE",
"392 469 LINE SMOOTH",
"221 667 OFFCURVE",
"233 687 OFFCURVE",
"331 705 CURVE SMOOTH",
"342 707 LINE",
"342 712 LINE",
"69 712 LINE",
"69 707 LINE",
"160 687 LINE",
"338 518 LINE",
"84 120 LINE SMOOTH",
"50 67 OFFCURVE",
"29 56 OFFCURVE",
"1 56 CURVE SMOOTH",
"-14 56 OFFCURVE",
"-26 59 OFFCURVE",
"-40 63 CURVE",
"-40 56 LINE",
"52 25 LINE SMOOTH",
"95 10 OFFCURVE",
"139 -5 OFFCURVE",
"186 -5 CURVE SMOOTH",
"263 -5 OFFCURVE",
"295 48 OFFCURVE",
"328 124 CURVE SMOOTH",
"445 398 LINE",
"502 398 LINE",
"502 25 LINE"
);
}
);
width = 1208;
}
);
leftKerningGroup = "Zhe-cy";
leftMetricsKey = "=|K";
rightKerningGroup = K;
rightMetricsKey = K;
unicode = 0416;
},
{
color = 9;
glyphname = "Ze-cy";
lastChange = "2023-01-13 20:59:42 +0000";
layers = (
{
background = {
paths = (
{
closed = 1;
nodes = (
"54 14 LINE",
"87 7 OFFCURVE",
"188 -12 OFFCURVE",
"284 -12 CURVE SMOOTH",
"496 -12 OFFCURVE",
"596 93 OFFCURVE",
"596 219 CURVE SMOOTH",
"596 351 OFFCURVE",
"475 432 OFFCURVE",
"330 466 CURVE",
"330 468 LINE",
"462 501 OFFCURVE",
"536 543 OFFCURVE",
"536 600 CURVE SMOOTH",
"536 659 OFFCURVE",
"461 724 OFFCURVE",
"289 724 CURVE SMOOTH",
"203 724 OFFCURVE",
"134 704 OFFCURVE",
"98 695 CURVE",
"86 770 LINE",
"81 770 LINE",
"51 509 LINE",
"57 509 LINE",
"90 591 OFFCURVE",
"189 713 OFFCURVE",
"267 713 CURVE SMOOTH",
"306 713 OFFCURVE",
"345 675 OFFCURVE",
"345 582 CURVE SMOOTH",
"345 471 OFFCURVE",
"272 390 OFFCURVE",
"242 390 CURVE SMOOTH",
"147 390 LINE",
"147 378 LINE",
"241 378 LINE SMOOTH",
"302 378 OFFCURVE",
"385 290 OFFCURVE",
"385 160 CURVE SMOOTH",
"385 51 OFFCURVE",
"337 -1 OFFCURVE",
"291 -1 CURVE SMOOTH",
"191 -1 OFFCURVE",
"47 166 OFFCURVE",
"11 257 CURVE",
"5 257 LINE"
);
}
);
};
layerId = "5ECA14C9-9880-4A66-8675-45EB4FCF3EF2";
paths = (
{
closed = 1;
nodes = (
"54 11 LINE",
"87 4 OFFCURVE",
"192 -15 OFFCURVE",
"282 -15 CURVE SMOOTH",
"498 -15 OFFCURVE",
"596 96 OFFCURVE",
"596 221 CURVE SMOOTH",
"596 357 OFFCURVE",
"475 432 OFFCURVE",
"338 466 CURVE",
"338 468 LINE",
"462 505 OFFCURVE",
"536 544 OFFCURVE",
"536 605 CURVE SMOOTH",
"536 663 OFFCURVE",
"452 727 OFFCURVE",
"291 727 CURVE SMOOTH",
"199 727 OFFCURVE",
"133 706 OFFCURVE",
"98 697 CURVE",
"86 770 LINE",
"81 770 LINE",
"51 509 LINE",
"57 509 LINE",
"90 594 OFFCURVE",
"191 716 OFFCURVE",
"267 716 CURVE SMOOTH",
"310 716 OFFCURVE",
"345 676 OFFCURVE",
"345 580 CURVE SMOOTH",
"345 461 OFFCURVE",
"288 390 OFFCURVE",
"252 390 CURVE SMOOTH",
"147 390 LINE",
"147 378 LINE",
"251 378 LINE SMOOTH",
"313 378 OFFCURVE",
"385 300 OFFCURVE",
"385 160 CURVE SMOOTH",
"385 48 OFFCURVE",
"345 -4 OFFCURVE",
"291 -4 CURVE SMOOTH",
"195 -4 OFFCURVE",
"47 163 OFFCURVE",
"11 254 CURVE",
"5 254 LINE"
);
}
);
width = 621;
}
);
leftKerningGroup = "Ze-cy";
rightKerningGroup = B;
rightMetricsKey = B;
unicode = 0417;
},
{
color = 9;
glyphname = "Ii-cy";
lastChange = "2023-01-13 20:59:42 +0000";
layers = (
{
anchors = (
{
name = top;
position = "{416, 712}";
}
);
background = {
paths = (
{
closed = 1;
nodes = (
"541 25 LINE",
"464 1 LINE",
"464 0 LINE",
"822 0 LINE",
"822 1 LINE",
"745 25 LINE",
"745 687 LINE",
"822 711 LINE",
"822 712 LINE",
"635 712 LINE",
"541 576 LINE"
);
},
{
closed = 1;
nodes = (
"363 711 LINE",
"363 712 LINE",
"5 712 LINE",
"5 711 LINE",
"82 687 LINE",
"82 -25 LINE",
"84 -25 LINE",
"617 636 LINE",
"635 712 LINE",
"286 243 LINE",
"286 687 LINE"
);
}
);
};
layerId = "5ECA14C9-9880-4A66-8675-45EB4FCF3EF2";
paths = (
{
closed = 1;
nodes = (
"541 25 LINE",
"474 5 LINE",
"474 0 LINE",
"812 0 LINE",
"812 5 LINE",
"745 25 LINE",
"745 687 LINE",
"812 707 LINE",
"812 712 LINE",
"635 712 LINE",
"541 576 LINE"
);
},
{
closed = 1;
nodes = (
"353 707 LINE",
"353 712 LINE",
"15 712 LINE",
"15 707 LINE",
"82 687 LINE",
"82 -25 LINE",
"85 -25 LINE",
"617 636 LINE",
"635 712 LINE",
"286 243 LINE",
"286 687 LINE"
);
}
);
width = 827;
}
);
leftKerningGroup = "Ii-cy";
leftMetricsKey = N;
rightKerningGroup = H;
rightMetricsKey = N;
unicode = 0418;
},
{
color = 9;
glyphname = "El-cy";
lastChange = "2023-01-13 20:59:42 +0000";
layers = (
{
background = {
paths = (
{
closed = 1;
nodes = (
"0 29 OFFCURVE",
"29 -10 OFFCURVE",
"72 -10 CURVE SMOOTH",
"145 -10 OFFCURVE",
"230 94 OFFCURVE",
"304 517 CURVE SMOOTH",
"336 700 LINE",
"493 700 LINE",
"493 25 LINE",
"426 5 LINE",
"426 0 LINE",
"764 0 LINE",
"764 5 LINE",
"697 25 LINE",
"697 687 LINE",
"764 707 LINE",
"764 712 LINE",
"184 712 LINE",
"184 707 LINE",
"251 687 LINE",
"256 619 OFFCURVE",
"263 524 OFFCURVE",
"263 436 CURVE SMOOTH",
"263 297 OFFCURVE",
"227 183 OFFCURVE",
"120 183 CURVE SMOOTH",
"96 183 OFFCURVE",
"73 187 OFFCURVE",
"45 192 CURVE SMOOTH",
"21 196 LINE",
"12 173 OFFCURVE",
"0 138 OFFCURVE",
"0 95 CURVE SMOOTH"
);
}
);
};
layerId = "5ECA14C9-9880-4A66-8675-45EB4FCF3EF2";
paths = (
{
closed = 1;
nodes = (
"0 26 OFFCURVE",
"24 -10 OFFCURVE",
"70 -10 CURVE SMOOTH",
"145 -10 OFFCURVE",
"230 94 OFFCURVE",
"304 517 CURVE SMOOTH",
"336 700 LINE",
"493 700 LINE",
"493 25 LINE",
"426 5 LINE",
"426 0 LINE",
"764 0 LINE",
"764 5 LINE",
"697 25 LINE",
"697 687 LINE",
"764 707 LINE",
"764 712 LINE",
"184 712 LINE",
"184 707 LINE",
"251 687 LINE",
"258 607 OFFCURVE",
"264 529 OFFCURVE",
"264 458 CURVE SMOOTH",
"264 301 OFFCURVE",
"234 184 OFFCURVE",
"114 184 CURVE SMOOTH",
"90 184 OFFCURVE",
"71 187 OFFCURVE",
"40 192 CURVE SMOOTH",
"23 195 LINE",
"14 172 OFFCURVE",
"0 134 OFFCURVE",
"0 85 CURVE SMOOTH"
);
}
);
width = 779;
}
);
leftKerningGroup = "El-cy";
rightKerningGroup = H;
rightMetricsKey = H;
unicode = 041B;
},
{
color = 9;
glyphname = "Pe-cy";
lastChange = "2023-01-13 20:59:42 +0000";
layers = (
{
background = {
paths = (
{
closed = 1;
nodes = (
"363 0 LINE",
"363 1 LINE",
"286 25 LINE",
"286 700 LINE",
"541 700 LINE",
"541 25 LINE",
"464 1 LINE",
"464 0 LINE",
"822 0 LINE",
"822 1 LINE",
"745 25 LINE",
"745 687 LINE",
"822 711 LINE",
"822 712 LINE",
"5 712 LINE",
"5 711 LINE",
"82 687 LINE",
"82 25 LINE",
"5 1 LINE",
"5 0 LINE"
);
}
);
};
layerId = "5ECA14C9-9880-4A66-8675-45EB4FCF3EF2";
paths = (
{
closed = 1;
nodes = (
"353 0 LINE",
"353 5 LINE",
"286 25 LINE",
"286 700 LINE",
"541 700 LINE",
"541 25 LINE",
"474 5 LINE",
"474 0 LINE",
"812 0 LINE",
"812 5 LINE",
"745 25 LINE",
"745 687 LINE",
"812 707 LINE",
"812 712 LINE",
"15 712 LINE",
"15 707 LINE",
"82 687 LINE",
"82 25 LINE",
"15 5 LINE",
"15 0 LINE"
);
}
);
width = 827;
}
);
leftKerningGroup = H;
leftMetricsKey = H;
rightKerningGroup = H;
rightMetricsKey = H;
unicode = 041F;
},
{
color = 9;
glyphname = "U-cy";
lastChange = "2023-01-13 20:59:42 +0000";
layers = (
{
anchors = (
{
name = top;
position = "{419, 712}";
}
);
background = {
paths = (
{
closed = 1;
nodes = (
"30 687 LINE",
"390 150 LINE",
"380 131 OFFCURVE",
"374 120 OFFCURVE",
"351 120 CURVE SMOOTH",
"325 120 OFFCURVE",
"305 125 OFFCURVE",
"265 133 CURVE SMOOTH",
"152 157 LINE",
"144 140 OFFCURVE",
"134 114 OFFCURVE",
"134 82 CURVE SMOOTH",
"134 26 OFFCURVE",
"170 -12 OFFCURVE",
"221 -12 CURVE SMOOTH",
"290 -12 OFFCURVE",
"348 52 OFFCURVE",
"414 168 CURVE SMOOTH",
"711 687 LINE",
"751 707 LINE",
"751 712 LINE",
"492 712 LINE",
"492 707 LINE",
"515 702 LINE SMOOTH",
"632 677 OFFCURVE",
"665 630 OFFCURVE",
"544 419 CURVE SMOOTH",
"500 342 LINE",
"273 687 LINE",
"350 707 LINE",
"350 712 LINE",
"-15 712 LINE",
"-15 707 LINE"
);
}
);
};
layerId = "5ECA14C9-9880-4A66-8675-45EB4FCF3EF2";
paths = (
{
closed = 1;
nodes = (
"30 687 LINE",
"390 150 LINE",
"379 131 OFFCURVE",
"364 117 OFFCURVE",
"326 117 CURVE SMOOTH",
"290 117 OFFCURVE",
"254 127 OFFCURVE",
"178 148 CURVE SMOOTH",
"153 155 LINE",
"144 138 OFFCURVE",
"133 113 OFFCURVE",
"133 80 CURVE SMOOTH",
"133 22 OFFCURVE",
"168 -15 OFFCURVE",
"220 -15 CURVE SMOOTH",
"291 -15 OFFCURVE",
"348 52 OFFCURVE",
"414 168 CURVE SMOOTH",
"711 687 LINE",
"751 707 LINE",
"751 712 LINE",
"492 712 LINE",
"492 707 LINE",
"515 702 LINE SMOOTH",
"632 677 OFFCURVE",
"665 630 OFFCURVE",
"544 419 CURVE SMOOTH",
"500 342 LINE",
"273 687 LINE",
"350 707 LINE",
"350 712 LINE",
"-15 712 LINE",
"-15 707 LINE"
);
}
);
width = 731;
}
);
leftKerningGroup = "U-cy";
rightKerningGroup = "U-cy";
unicode = 0423;
},
{
color = 9;
glyphname = "Ef-cy";
lastChange = "2023-01-13 20:59:42 +0000";
layers = (
{
background = {
paths = (
{
closed = 1;
nodes = (
"20 237 OFFCURVE",
"150 135 OFFCURVE",
"402 135 CURVE SMOOTH",
"407 135 LINE",
"407 25 LINE",
"328 5 LINE",
"328 0 LINE",
"686 0 LINE",
"686 5 LINE",
"607 25 LINE",
"607 135 LINE",
"631 135 LINE SMOOTH",
"863 135 OFFCURVE",
"994 226 OFFCURVE",
"994 369 CURVE SMOOTH",
"994 499 OFFCURVE",
"864 601 OFFCURVE",
"612 601 CURVE SMOOTH",
"607 601 LINE",
"607 687 LINE",
"686 707 LINE",
"686 712 LINE",
"328 712 LINE",
"328 707 LINE",
"407 687 LINE",
"407 601 LINE",
"383 601 LINE SMOOTH",
"151 601 OFFCURVE",
"20 510 OFFCURVE",
"20 367 CURVE SMOOTH"
);
},
{
closed = 1;
nodes = (
"221 522 OFFCURVE",
"309 590 OFFCURVE",
"390 590 CURVE SMOOTH",
"407 590 LINE",
"407 146 LINE",
"406 146 LINE SMOOTH",
"313 146 OFFCURVE",
"221 219 OFFCURVE",
"221 374 CURVE SMOOTH"
);
},
{
closed = 1;
nodes = (
"607 590 LINE",
"608 590 LINE SMOOTH",
"701 590 OFFCURVE",
"793 517 OFFCURVE",
"793 362 CURVE SMOOTH",
"793 214 OFFCURVE",
"705 146 OFFCURVE",
"624 146 CURVE SMOOTH",
"607 146 LINE"
);
}
);
};
layerId = "5ECA14C9-9880-4A66-8675-45EB4FCF3EF2";
paths = (
{
closed = 1;
nodes = (
"20 227 OFFCURVE",
"134 135 OFFCURVE",
"384 135 CURVE SMOOTH",
"407 135 LINE",
"407 25 LINE",
"328 5 LINE",
"328 0 LINE",
"686 0 LINE",
"686 5 LINE",
"607 25 LINE",
"607 135 LINE",
"637 135 LINE SMOOTH",
"879 135 OFFCURVE",
"994 226 OFFCURVE",
"994 371 CURVE SMOOTH",
"994 509 OFFCURVE",
"880 601 OFFCURVE",
"630 601 CURVE SMOOTH",
"607 601 LINE",
"607 687 LINE",
"686 707 LINE",
"686 712 LINE",
"328 712 LINE",
"328 707 LINE",
"407 687 LINE",
"407 601 LINE",
"377 601 LINE SMOOTH",
"135 601 OFFCURVE",
"20 510 OFFCURVE",
"20 365 CURVE SMOOTH"
);
},
{
closed = 1;
nodes = (
"221 526 OFFCURVE",
"301 590 OFFCURVE",
"380 590 CURVE SMOOTH",
"407 590 LINE",
"407 146 LINE",
"386 146 LINE SMOOTH",
"303 146 OFFCURVE",
"221 215 OFFCURVE",
"221 372 CURVE SMOOTH"
);
},
{
closed = 1;
nodes = (
"607 590 LINE",
"628 590 LINE SMOOTH",
"711 590 OFFCURVE",
"793 521 OFFCURVE",
"793 364 CURVE SMOOTH",
"793 210 OFFCURVE",
"713 146 OFFCURVE",
"634 146 CURVE SMOOTH",
"607 146 LINE"
);
}
);
width = 1014;
}
);
leftKerningGroup = "Ef-cy";
rightKerningGroup = "Ef-cy";
unicode = 0424;
},
{
color = 9;
glyphname = "Che-cy";
lastChange = "2022-12-03 12:27:29 +0000";
layers = (
{
background = {
paths = (
{
closed = 1;
nodes = (
"792 0 LINE",
"792 1 LINE",
"715 25 LINE",
"715 687 LINE",
"792 711 LINE",
"792 712 LINE",
"434 712 LINE",
"434 711 LINE",
"511 687 LINE",
"511 25 LINE",
"434 1 LINE",
"434 0 LINE"
);
},
{
closed = 1;
nodes = (
"76 333 OFFCURVE",
"152 264 OFFCURVE",
"252 264 CURVE SMOOTH",
"320 264 OFFCURVE",
"406 314 OFFCURVE",
"511 371 CURVE",
"657 225 LINE",
"657 402 LINE",
"511 376 LINE",
"490 368 OFFCURVE",
"460 357 OFFCURVE",
"413 357 CURVE SMOOTH",
"329 357 OFFCURVE",
"280 403 OFFCURVE",
"280 483 CURVE SMOOTH",
"280 687 LINE",
"357 711 LINE",
"357 712 LINE",
"9 712 LINE",
"9 711 LINE",
"76 687 LINE",
"76 461 LINE SMOOTH"
);
}
);
};
layerId = "5ECA14C9-9880-4A66-8675-45EB4FCF3EF2";
paths = (
{
closed = 1;
nodes = (
"72 687 LINE",
"72 480 LINE SMOOTH",
"72 351 OFFCURVE",
"141 291 OFFCURVE",
"260 291 CURVE SMOOTH",
"333 291 OFFCURVE",
"398 314 OFFCURVE",
"501 346 CURVE",
"501 25 LINE",
"434 5 LINE",
"434 0 LINE",
"772 0 LINE",
"772 5 LINE",
"705 25 LINE",
"705 687 LINE",
"772 707 LINE",
"772 712 LINE",
"434 712 LINE",
"434 707 LINE",
"501 687 LINE",
"501 358 LINE",
"480 351 OFFCURVE",
"448 340 OFFCURVE",
"411 340 CURVE SMOOTH",
"329 340 OFFCURVE",
"276 388 OFFCURVE",
"276 484 CURVE SMOOTH",
"276 687 LINE",
"343 707 LINE",
"343 712 LINE",
"10 712 LINE",
"10 707 LINE"
);
}
);
width = 787;
}
);
leftKerningGroup = "Che-cy";
rightKerningGroup = H;
rightMetricsKey = H;
unicode = 0427;
},
{
color = 3;
glyphname = "Tse-cy";
lastChange = "2022-12-03 12:27:41 +0000";
layers = (
{
layerId = "5ECA14C9-9880-4A66-8675-45EB4FCF3EF2";
paths = (
{
closed = 1;
nodes = (
"15 707 LINE",
"82 687 LINE",
"82 25 LINE",
"15 5 LINE",
"15 0 LINE",
"812 0 LINE",
"812 1 LINE",
"745 3 LINE",
"745 687 LINE",
"812 707 LINE",
"812 712 LINE",
"474 712 LINE",
"474 707 LINE",
"541 687 LINE",
"541 12 LINE",
"286 12 LINE",
"286 687 LINE",
"353 707 LINE",
"353 712 LINE",
"15 712 LINE"
);
},
{
closed = 1;
nodes = (
"820 12 LINE",
"595 12 LINE",
"595 0 LINE",
"739 0 OFFCURVE",
"792 -61 OFFCURVE",
"833 -148 CURVE SMOOTH",
"848 -180 LINE",
"853 -180 LINE"
);
}
);
width = 828;
}
);
leftKerningGroup = H;
leftMetricsKey = H;
rightKerningGroup = "Tse-cy";
unicode = 0426;
},
{
color = 3;
glyphname = "Sha-cy";
lastChange = "2023-01-13 20:59:42 +0000";
layers = (
{
layerId = "5ECA14C9-9880-4A66-8675-45EB4FCF3EF2";
paths = (
{
closed = 1;
nodes = (
"1221 0 LINE",
"1221 5 LINE",
"1154 25 LINE",
"1154 687 LINE",
"1221 707 LINE",
"1221 712 LINE",
"883 712 LINE",
"883 707 LINE",
"950 687 LINE",
"950 12 LINE",
"720 12 LINE",
"720 687 LINE",
"787 707 LINE",
"787 712 LINE",
"449 712 LINE",
"449 707 LINE",
"516 687 LINE",
"516 12 LINE",
"286 12 LINE",
"286 687 LINE",
"353 707 LINE",
"353 712 LINE",
"15 712 LINE",
"15 707 LINE",
"82 687 LINE",
"82 25 LINE",
"15 5 LINE",
"15 0 LINE"
);
}
);
width = 1236;
}
);
leftKerningGroup = H;
leftMetricsKey = H;
rightKerningGroup = H;
rightMetricsKey = H;
unicode = 0428;
},
{
color = 3;
glyphname = "Shcha-cy";
lastChange = "2022-12-03 12:28:01 +0000";
layers = (
{
layerId = "5ECA14C9-9880-4A66-8675-45EB4FCF3EF2";
paths = (
{
closed = 1;
nodes = (
"1221 0 LINE",
"1221 1 LINE",
"1154 2 LINE",
"1154 687 LINE",
"1221 707 LINE",
"1221 712 LINE",
"883 712 LINE",
"883 707 LINE",
"950 687 LINE",
"950 12 LINE",
"720 12 LINE",
"720 687 LINE",
"787 707 LINE",
"787 712 LINE",
"449 712 LINE",
"449 707 LINE",
"516 687 LINE",
"516 12 LINE",
"286 12 LINE",
"286 687 LINE",
"353 707 LINE",
"353 712 LINE",
"15 712 LINE",
"15 707 LINE",
"82 687 LINE",
"82 25 LINE",
"15 5 LINE",
"15 0 LINE"
);
},
{
closed = 1;
nodes = (
"1229 12 LINE",
"1004 12 LINE",
"1004 0 LINE",
"1148 0 OFFCURVE",
"1201 -61 OFFCURVE",
"1242 -148 CURVE SMOOTH",
"1257 -180 LINE",
"1262 -180 LINE"
);
}
);
width = 1237;
}
);
leftKerningGroup = H;
leftMetricsKey = H;
rightKerningGroup = "Tse-cy";
rightMetricsKey = "Tse-cy";
unicode = 0429;
},
{
color = 9;
glyphname = "Softsign-cy";
lastChange = "2023-01-13 20:59:42 +0000";
layers = (
{
background = {
paths = (
{
closed = 1;
nodes = (
"49 709 LINE",
"171 687 LINE",
"171 25 LINE",
"49 3 LINE",
"49 0 LINE",
"296 0 LINE SMOOTH",
"484 0 OFFCURVE",
"571 87 OFFCURVE",
"571 212 CURVE SMOOTH",
"571 321 OFFCURVE",
"485 396 OFFCURVE",
"344 405 CURVE",
"296 408 LINE",
"296 400 LINE",
"344 401 LINE",
"398 375 OFFCURVE",
"447 322 OFFCURVE",
"447 195 CURVE SMOOTH",
"447 67 OFFCURVE",
"389 9 OFFCURVE",
"296 9 CURVE",
"296 9 LINE",
"296 687 LINE",
"433 709 LINE",
"433 712 LINE",
"49 712 LINE"
);
}
);
};
layerId = "5ECA14C9-9880-4A66-8675-45EB4FCF3EF2";
paths = (
{
closed = 1;
nodes = (
"324 0 LINE SMOOTH",
"560 0 OFFCURVE",
"664 83 OFFCURVE",
"664 206 CURVE SMOOTH",
"664 318 OFFCURVE",
"566 402 OFFCURVE",
"323 402 CURVE SMOOTH",
"286 402 LINE",
"286 687 LINE",
"360 707 LINE",
"360 712 LINE",
"15 712 LINE",
"15 707 LINE",
"82 687 LINE",
"82 25 LINE",
"15 5 LINE",
"15 0 LINE"
);
},
{
closed = 1;
nodes = (
"286 11 LINE",
"286 391 LINE",
"320 391 LINE SMOOTH",
"392 391 OFFCURVE",
"463 334 OFFCURVE",
"463 203 CURVE SMOOTH",
"463 65 OFFCURVE",
"393 11 OFFCURVE",
"322 11 CURVE SMOOTH"
);
}
);
width = 684;
}
);
leftKerningGroup = H;
leftMetricsKey = H;
rightKerningGroup = "Softsign-cy";
rightMetricsKey = P;
unicode = 042C;
},
{
color = 3;
glyphname = "E-cy";
lastChange = "2023-01-13 20:59:42 +0000";
layers = (
{
components = (
{
name = C;
}
);
layerId = "5ECA14C9-9880-4A66-8675-45EB4FCF3EF2";
paths = (
{
closed = 1;
nodes = (
"175 380 LINE",
"521 380 LINE",
"521 392 LINE",
"175 392 LINE"
);
}
);
width = 751;
}
);
leftKerningGroup = O;
leftMetricsKey = C;
rightKerningGroup = C;
rightMetricsKey = C;
unicode = 0404;
},
{
color = 3;
glyphname = "Iu-cy";
lastChange = "2022-12-03 12:28:36 +0000";
layers = (
{
components = (
{
name = O;
transform = "{1, 0, 0, 1, 340, 0}";
}
);
layerId = "5ECA14C9-9880-4A66-8675-45EB4FCF3EF2";
paths = (
{
closed = 1;
nodes = (
"561 389 LINE",
"286 389 LINE",
"286 687 LINE",
"353 707 LINE",
"353 712 LINE",
"15 712 LINE",
"15 707 LINE",
"82 687 LINE",
"82 25 LINE",
"15 5 LINE",
"15 0 LINE",
"353 0 LINE",
"353 5 LINE",
"286 25 LINE",
"286 377 LINE",
"561 377 LINE"
);
}
);
width = 1242;
}
);
leftKerningGroup = H;
leftMetricsKey = H;
rightKerningGroup = O;
rightMetricsKey = O;
unicode = 042E;
},
{
color = 9;
glyphname = "Ia-cy";
lastChange = "2023-01-13 20:59:42 +0000";
layers = (
{
anchors = (
{
name = bottom;
position = "{371, 0}";
},
{
name = top;
position = "{427, 712}";
}
);
background = {
paths = (
{
closed = 1;
nodes = (
"761 5 LINE",
"694 25 LINE",
"694 687 LINE",
"761 707 LINE",
"761 712 LINE",
"494 712 LINE SMOOTH",
"205 712 OFFCURVE",
"125 624 OFFCURVE",
"125 568 CURVE SMOOTH",
"125 514 OFFCURVE",
"192 471 OFFCURVE",
"310 467 CURVE",
"310 466 LINE",
"84 113 LINE SMOOTH",
"52 63 OFFCURVE",
"29 56 OFFCURVE",
"1 56 CURVE SMOOTH",
"-14 56 OFFCURVE",
"-26 59 OFFCURVE",
"-40 63 CURVE",
"-40 56 LINE",
"52 25 LINE SMOOTH",
"95 10 OFFCURVE",
"141 -5 OFFCURVE",
"186 -5 CURVE SMOOTH",
"258 -5 OFFCURVE",
"295 44 OFFCURVE",
"318 115 CURVE SMOOTH",
"397 361 LINE",
"490 361 LINE",
"490 25 LINE",
"418 5 LINE",
"418 0 LINE",
"761 0 LINE"
);
},
{
closed = 1;
nodes = (
"444 373 LINE SMOOTH",
"377 373 OFFCURVE",
"312 436 OFFCURVE",
"312 531 CURVE SMOOTH",
"312 643 OFFCURVE",
"374 701 OFFCURVE",
"487 701 CURVE SMOOTH",
"490 701 LINE",
"490 373 LINE"
);
}
);
};
layerId = "5ECA14C9-9880-4A66-8675-45EB4FCF3EF2";
paths = (
{
closed = 1;
nodes = (
"761 5 LINE",
"694 25 LINE",
"694 687 LINE",
"761 707 LINE",
"761 712 LINE",
"454 712 LINE SMOOTH",
"199 712 OFFCURVE",
"125 633 OFFCURVE",
"125 572 CURVE SMOOTH",
"125 514 OFFCURVE",
"192 471 OFFCURVE",
"310 467 CURVE",
"310 466 LINE",
"84 113 LINE SMOOTH",
"52 63 OFFCURVE",
"29 56 OFFCURVE",
"1 56 CURVE SMOOTH",
"-14 56 OFFCURVE",
"-26 59 OFFCURVE",
"-40 63 CURVE",
"-40 56 LINE",
"52 25 LINE SMOOTH",
"95 10 OFFCURVE",
"141 -5 OFFCURVE",
"186 -5 CURVE SMOOTH",
"258 -5 OFFCURVE",
"295 44 OFFCURVE",
"318 115 CURVE SMOOTH",
"397 361 LINE",
"490 361 LINE",
"490 25 LINE",
"418 5 LINE",
"418 0 LINE",
"761 0 LINE"
);
},
{
closed = 1;
nodes = (
"444 373 LINE SMOOTH",
"377 373 OFFCURVE",
"312 436 OFFCURVE",
"312 531 CURVE SMOOTH",
"312 643 OFFCURVE",
"370 701 OFFCURVE",
"455 701 CURVE SMOOTH",
"490 701 LINE",
"490 373 LINE"
);
}
);
width = 776;
}
);
leftKerningGroup = "Ia-cy";
leftMetricsKey = "=|R";
rightKerningGroup = H;
rightMetricsKey = H;
unicode = 042F;
},
{
color = 3;
glyphname = "Yi_Yi-cy.liga";
lastChange = "2022-12-03 12:41:31 +0000";
layers = (
{
anchors = (
{
name = ogonek;
position = "{286, 0}";
},
{
name = top;
position = "{184, 712}";
}
);
components = (
{
name = I;
},
{
name = I;
transform = "{1, 0, 0, 1, 368, 0}";
}
);
layerId = "5ECA14C9-9880-4A66-8675-45EB4FCF3EF2";
paths = (
{
closed = 1;
nodes = (
"85 754 OFFCURVE",
"124 791 OFFCURVE",
"124 838 CURVE SMOOTH",
"124 885 OFFCURVE",
"85 922 OFFCURVE",
"32 922 CURVE SMOOTH",
"-22 922 OFFCURVE",
"-60 885 OFFCURVE",
"-60 838 CURVE SMOOTH",
"-60 791 OFFCURVE",
"-22 754 OFFCURVE",
"32 754 CURVE SMOOTH"
);
},
{
closed = 1;
nodes = (
"309 754 OFFCURVE",
"348 791 OFFCURVE",
"348 838 CURVE SMOOTH",
"348 885 OFFCURVE",
"309 922 OFFCURVE",
"256 922 CURVE SMOOTH",
"202 922 OFFCURVE",
"164 885 OFFCURVE",
"164 838 CURVE SMOOTH",
"164 791 OFFCURVE",
"202 754 OFFCURVE",
"256 754 CURVE SMOOTH"
);
},
{
closed = 1;
nodes = (
"533 754 OFFCURVE",
"572 791 OFFCURVE",
"572 838 CURVE SMOOTH",
"572 885 OFFCURVE",
"533 922 OFFCURVE",
"480 922 CURVE SMOOTH",
"426 922 OFFCURVE",
"388 885 OFFCURVE",
"388 838 CURVE SMOOTH",
"388 791 OFFCURVE",
"426 754 OFFCURVE",
"480 754 CURVE SMOOTH"
);
},
{
closed = 1;
nodes = (
"757 754 OFFCURVE",
"796 791 OFFCURVE",
"796 838 CURVE SMOOTH",
"796 885 OFFCURVE",
"757 922 OFFCURVE",
"704 922 CURVE SMOOTH",
"650 922 OFFCURVE",
"612 885 OFFCURVE",
"612 838 CURVE SMOOTH",
"612 791 OFFCURVE",
"650 754 OFFCURVE",
"704 754 CURVE SMOOTH"
);
}
);
width = 736;
}
);
rightKerningGroup = "Yi_Yi-cy.liga";
},
{
color = 3;
glyphname = "be-cy";
lastChange = "2023-01-13 20:59:42 +0000";
layers = (
{
background = {
paths = (
{
closed = 1;
nodes = (
"30 91 OFFCURVE",
"132 -10 OFFCURVE",
"299 -10 CURVE SMOOTH",
"463 -10 OFFCURVE",
"580 114 OFFCURVE",
"580 280 CURVE SMOOTH",
"580 427 OFFCURVE",
"483 518 OFFCURVE",
"401 518 CURVE SMOOTH",
"345 518 OFFCURVE",
"278 449 OFFCURVE",
"220 395 CURVE",
"143 429 OFFCURVE",
"97 501 OFFCURVE",
"97 538 CURVE SMOOTH",
"97 563 OFFCURVE",
"112 579 OFFCURVE",
"169 579 CURVE SMOOTH",
"507 579 LINE",
"540 800 LINE",
"539 800 LINE",
"513 742 LINE",
"136 677 OFFCURVE",
"30 584 OFFCURVE",
"30 315 CURVE SMOOTH"
);
},
{
closed = 1;
nodes = (
"220 383 LINE",
"233 392 OFFCURVE",
"248 404 OFFCURVE",
"277 404 CURVE SMOOTH",
"327 404 OFFCURVE",
"388 350 OFFCURVE",
"388 206 CURVE SMOOTH",
"388 61 OFFCURVE",
"350 1 OFFCURVE",
"313 1 CURVE SMOOTH",
"260 1 OFFCURVE",
"220 93 OFFCURVE",
"220 268 CURVE SMOOTH"
);
}
);
};
layerId = "5ECA14C9-9880-4A66-8675-45EB4FCF3EF2";
paths = (
{
closed = 1;
nodes = (
"30 86 OFFCURVE",
"132 -15 OFFCURVE",
"299 -15 CURVE SMOOTH",
"466 -15 OFFCURVE",
"580 106 OFFCURVE",
"580 280 CURVE SMOOTH",
"580 438 OFFCURVE",
"489 523 OFFCURVE",
"407 523 CURVE SMOOTH",
"339 523 OFFCURVE",
"276 456 OFFCURVE",
"220 400 CURVE",
"143 434 OFFCURVE",
"97 501 OFFCURVE",
"97 538 CURVE SMOOTH",
"97 563 OFFCURVE",
"112 579 OFFCURVE",
"169 579 CURVE SMOOTH",
"507 579 LINE",
"540 790 LINE",
"535 790 LINE",
"508 742 LINE",
"136 677 OFFCURVE",
"30 584 OFFCURVE",
"30 317 CURVE SMOOTH"
);
},
{
closed = 1;
nodes = (
"220 388 LINE",
"233 397 OFFCURVE",
"248 409 OFFCURVE",
"277 409 CURVE SMOOTH",
"327 409 OFFCURVE",
"388 355 OFFCURVE",
"388 196 CURVE SMOOTH",
"388 62 OFFCURVE",
"356 -4 OFFCURVE",
"319 -4 CURVE SMOOTH",
"268 -4 OFFCURVE",
"220 88 OFFCURVE",
"220 298 CURVE SMOOTH"
);
}
);
width = 610;
}
);
leftKerningGroup = "be-cy";
rightKerningGroup = b;
rightMetricsKey = p;
unicode = 0431;
},
{
color = 3;
glyphname = "ve-cy";
lastChange = "2023-01-13 20:59:42 +0000";
layers = (
{
background = {
paths = (
{
closed = 1;
nodes = (
"300 0 LINE SMOOTH",
"479 0 OFFCURVE",
"588 70 OFFCURVE",
"588 173 CURVE SMOOTH",
"588 269 OFFCURVE",
"479 323 OFFCURVE",
"375 342 CURVE",
"375 345 LINE",
"451 360 OFFCURVE",
"530 387 OFFCURVE",
"530 428 CURVE SMOOTH",
"530 473 OFFCURVE",
"437 508 OFFCURVE",
"276 508 CURVE SMOOTH",
"13 508 LINE",
"13 503 LINE",
"68 483 LINE",
"68 25 LINE",
"13 5 LINE",
"13 0 LINE"
);
},
{
closed = 1;
nodes = (
"255 276 LINE",
"289 276 LINE SMOOTH",
"352 276 OFFCURVE",
"405 232 OFFCURVE",
"405 141 CURVE SMOOTH",
"405 54 OFFCURVE",
"357 10 OFFCURVE",
"298 10 CURVE SMOOTH",
"255 10 LINE"
);
},
{
closed = 1;
nodes = (
"255 498 LINE",
"275 498 LINE SMOOTH",
"335 498 OFFCURVE",
"373 466 OFFCURVE",
"373 395 CURVE SMOOTH",
"373 335 OFFCURVE",
"346 299 OFFCURVE",
"336 286 CURVE",
"255 286 LINE"
);
}
);
};
layerId = "5ECA14C9-9880-4A66-8675-45EB4FCF3EF2";
paths = (
{
closed = 1;
nodes = (
"302 0 LINE SMOOTH",
"499 0 OFFCURVE",
"588 60 OFFCURVE",
"588 167 CURVE SMOOTH",
"588 269 OFFCURVE",
"479 323 OFFCURVE",
"375 342 CURVE",
"375 345 LINE",
"451 358 OFFCURVE",
"530 385 OFFCURVE",
"530 430 CURVE SMOOTH",
"530 477 OFFCURVE",
"451 508 OFFCURVE",
"294 508 CURVE SMOOTH",
"13 508 LINE",
"13 503 LINE",
"68 483 LINE",
"68 25 LINE",
"13 5 LINE",
"13 0 LINE"
);
},
{
closed = 1;
nodes = (
"255 276 LINE",
"295 276 LINE SMOOTH",
"354 276 OFFCURVE",
"405 234 OFFCURVE",
"405 141 CURVE SMOOTH",
"405 54 OFFCURVE",
"359 10 OFFCURVE",
"298 10 CURVE SMOOTH",
"255 10 LINE"
);
},
{
closed = 1;
nodes = (
"255 498 LINE",
"291 498 LINE SMOOTH",
"333 498 OFFCURVE",
"373 466 OFFCURVE",
"373 395 CURVE SMOOTH",
"373 335 OFFCURVE",
"346 299 OFFCURVE",
"336 286 CURVE",
"255 286 LINE"
);
}
);
width = 598;
}
);
leftKerningGroup = n;
leftMetricsKey = n;
rightKerningGroup = "ze-cy";
unicode = 0432;
},
{
color = 3;
glyphname = "ge-cy";
lastChange = "2022-11-10 20:48:11 +0000";
layers = (
{
layerId = "5ECA14C9-9880-4A66-8675-45EB4FCF3EF2";
paths = (
{
closed = 1;
nodes = (
"13 503 LINE",
"68 483 LINE",
"68 25 LINE",
"13 5 LINE",
"13 0 LINE",
"328 0 LINE",
"328 5 LINE",
"258 25 LINE",
"258 498 LINE",
"258 498 LINE",
"354 492 OFFCURVE",
"423 430 OFFCURVE",
"469 330 CURVE",
"474 330 LINE",
"436 508 LINE",
"13 508 LINE"
);
}
);
width = 479;
}
);
leftKerningGroup = n;
leftMetricsKey = n;
rightKerningGroup = "te-cy";
unicode = 0433;
},
{
color = 3;
glyphname = "gheupturn-cy";
lastChange = "2022-12-02 11:26:02 +0000";
layers = (
{
background = {
paths = (
{
closed = 1;
nodes = (
"3 507 LINE",
"68 483 LINE",
"68 -175 LINE",
"3 -199 LINE",
"3 -200 LINE",
"338 -200 LINE",
"338 -199 LINE",
"258 -175 LINE",
"258 502 LINE",
"258 508 LINE",
"3 508 LINE"
);
},
{
closed = 1;
nodes = (
"426 502 LINE",
"464 675 LINE",
"463 675 LINE",
"417 579 OFFCURVE",
"348 518 OFFCURVE",
"258 508 CURVE",
"258 508 LINE",
"258 502 LINE"
);
}
);
};
layerId = "5ECA14C9-9880-4A66-8675-45EB4FCF3EF2";
paths = (
{
closed = 1;
nodes = (
"328 -200 LINE",
"328 -195 LINE",
"258 -175 LINE",
"258 498 LINE",
"426 498 LINE",
"464 675 LINE",
"458 675 LINE",
"413 579 OFFCURVE",
"348 508 OFFCURVE",
"218 508 CURVE SMOOTH",
"13 508 LINE",
"13 503 LINE",
"68 483 LINE",
"68 -175 LINE",
"13 -195 LINE",
"13 -200 LINE"
);
}
);
width = 444;
}
);
leftKerningGroup = n;
leftMetricsKey = n;
rightKerningGroup = "gheupturn-cy";
unicode = 0491;
},
{
color = 3;
glyphname = "de-cy";
lastChange = "2023-01-13 20:59:42 +0000";
layers = (
{
background = {
paths = (
{
closed = 1;
nodes = (
"92 2 LINE",
"110 77 OFFCURVE",
"140 197 OFFCURVE",
"175 385 CURVE SMOOTH",
"196 497 LINE",
"287 497 LINE",
"287 11 LINE",
"28 11 LINE",
"28 0 LINE",
"542 0 LINE",
"542 1 LINE",
"477 5 LINE",
"477 483 LINE",
"542 507 LINE",
"542 508 LINE",
"62 508 LINE",
"62 507 LINE",
"127 483 LINE",
"132 443 OFFCURVE",
"141 342 OFFCURVE",
"141 300 CURVE SMOOTH",
"141 206 OFFCURVE",
"90 71 OFFCURVE",
"56 4 CURVE"
);
},
{
closed = 1;
nodes = (
"550 11 LINE",
"365 11 LINE",
"365 0 LINE",
"478 0 OFFCURVE",
"534 -58 OFFCURVE",
"563 -128 CURVE SMOOTH",
"577 -162 LINE",
"578 -162 LINE"
);
},
{
closed = 1;
nodes = (
"-29 -162 LINE",
"-15 -128 LINE SMOOTH",
"14 -58 OFFCURVE",
"64 0 OFFCURVE",
"183 0 CURVE",
"183 8 LINE",
"93 11 LINE",
"2 28 LINE",
"-30 -162 LINE"
);
}
);
};
layerId = "5ECA14C9-9880-4A66-8675-45EB4FCF3EF2";
paths = (
{
closed = 1;
nodes = (
"540 11 LINE",
"355 11 LINE",
"355 0 LINE",
"468 0 OFFCURVE",
"521 -58 OFFCURVE",
"553 -137 CURVE SMOOTH",
"563 -162 LINE",
"568 -162 LINE"
);
},
{
closed = 1;
nodes = (
"-15 -162 LINE",
"-5 -137 LINE SMOOTH",
"27 -58 OFFCURVE",
"74 0 OFFCURVE",
"193 0 CURVE",
"193 8 LINE",
"93 11 LINE",
"12 28 LINE",
"-20 -162 LINE"
);
},
{
closed = 1;
nodes = (
"92 2 LINE",
"110 77 OFFCURVE",
"140 197 OFFCURVE",
"176 385 CURVE SMOOTH",
"197 496 LINE",
"287 497 LINE",
"287 11 LINE",
"28 11 LINE",
"28 0 LINE",
"537 0 LINE",
"537 1 LINE",
"477 5 LINE",
"477 483 LINE",
"532 503 LINE",
"532 508 LINE",
"72 508 LINE",
"72 503 LINE",
"127 483 LINE",
"131 442 OFFCURVE",
"141 332 OFFCURVE",
"141 300 CURVE SMOOTH",
"141 206 OFFCURVE",
"90 71 OFFCURVE",
"56 4 CURVE"
);
}
);
width = 548;
}
);
leftKerningGroup = "de-cy";
rightKerningGroup = "tse-cy";
rightMetricsKey = "tse-cy";
unicode = 0434;
},
{
color = 3;
glyphname = "zhe-cy";
lastChange = "2023-01-13 20:59:42 +0000";
layers = (
{
background = {
paths = (
{
closed = 1;
nodes = (
"35 21 LINE SMOOTH",
"84 4 OFFCURVE",
"124 -8 OFFCURVE",
"167 -8 CURVE SMOOTH",
"228 -8 OFFCURVE",
"261 29 OFFCURVE",
"291 120 CURVE SMOOTH",
"346 286 LINE",
"382 286 LINE",
"382 25 LINE",
"317 1 LINE",
"317 0 LINE",
"637 0 LINE",
"637 1 LINE",
"572 25 LINE",
"572 286 LINE",
"608 286 LINE",
"663 120 LINE SMOOTH",
"693 29 OFFCURVE",
"726 -8 OFFCURVE",
"787 -8 CURVE SMOOTH",
"830 -8 OFFCURVE",
"870 4 OFFCURVE",
"919 21 CURVE SMOOTH",
"1004 51 LINE",
"1004 55 LINE",
"990 51 OFFCURVE",
"978 48 OFFCURVE",
"963 48 CURVE SMOOTH",
"935 48 OFFCURVE",
"914 58 OFFCURVE",
"880 107 CURVE SMOOTH",
"693 377 LINE",
"830 488 LINE",
"905 507 LINE",
"905 508 LINE",
"688 508 LINE",
"688 507 LINE",
"699 503 LINE SMOOTH",
"748 485 OFFCURVE",
"759 461 OFFCURVE",
"640 330 CURVE SMOOTH",
"610 297 LINE",
"572 297 LINE",
"572 791 LINE",
"571 791 LINE",
"317 713 LINE",
"317 712 LINE",
"382 712 LINE",
"382 297 LINE",
"344 297 LINE",
"314 330 LINE SMOOTH",
"195 461 OFFCURVE",
"206 485 OFFCURVE",
"255 503 CURVE SMOOTH",
"266 507 LINE",
"266 508 LINE",
"49 508 LINE",
"49 507 LINE",
"124 488 LINE",
"261 377 LINE",
"74 107 LINE SMOOTH",
"40 58 OFFCURVE",
"19 48 OFFCURVE",
"-9 48 CURVE SMOOTH",
"-24 48 OFFCURVE",
"-36 51 OFFCURVE",
"-50 55 CURVE",
"-50 51 LINE"
);
}
);
};
layerId = "5ECA14C9-9880-4A66-8675-45EB4FCF3EF2";
paths = (
{
closed = 1;
nodes = (
"834 483 LINE",
"912 503 LINE",
"912 508 LINE",
"689 508 LINE",
"689 503 LINE",
"701 500 LINE SMOOTH",
"775 482 OFFCURVE",
"775 466 OFFCURVE",
"645 336 CURVE SMOOTH",
"614 305 LINE",
"572 305 LINE",
"572 786 LINE",
"571 786 LINE",
"327 712 LINE",
"327 707 LINE",
"382 690 LINE",
"382 25 LINE",
"332 5 LINE",
"332 0 LINE",
"627 0 LINE",
"627 5 LINE",
"572 25 LINE",
"572 294 LINE",
"612 294 LINE",
"669 125 LINE SMOOTH",
"700 34 OFFCURVE",
"726 -5 OFFCURVE",
"787 -5 CURVE SMOOTH",
"830 -5 OFFCURVE",
"867 9 OFFCURVE",
"914 25 CURVE SMOOTH",
"994 53 LINE",
"994 59 LINE",
"981 56 OFFCURVE",
"973 54 OFFCURVE",
"960 54 CURVE SMOOTH",
"933 54 OFFCURVE",
"913 67 OFFCURVE",
"884 114 CURVE SMOOTH",
"711 390 LINE"
);
},
{
closed = 1;
nodes = (
"70 114 LINE SMOOTH",
"41 67 OFFCURVE",
"21 54 OFFCURVE",
"-6 54 CURVE SMOOTH",
"-19 54 OFFCURVE",
"-27 56 OFFCURVE",
"-40 59 CURVE",
"-40 53 LINE",
"40 25 LINE SMOOTH",
"87 9 OFFCURVE",
"124 -5 OFFCURVE",
"167 -5 CURVE SMOOTH",
"228 -5 OFFCURVE",
"254 34 OFFCURVE",
"285 125 CURVE SMOOTH",
"342 294 LINE",
"382 294 LINE",
"382 25 LINE",
"327 5 LINE",
"327 0 LINE",
"622 0 LINE",
"622 5 LINE",
"572 25 LINE",
"572 712 LINE",
"382 653 LINE",
"382 305 LINE",
"340 305 LINE",
"309 336 LINE SMOOTH",
"179 466 OFFCURVE",
"179 482 OFFCURVE",
"253 500 CURVE SMOOTH",
"265 503 LINE",
"265 508 LINE",
"42 508 LINE",
"42 503 LINE",
"120 483 LINE",
"243 390 LINE"
);
}
);
width = 954;
}
);
leftKerningGroup = "zhe-cy";
leftMetricsKey = "=|k";
rightKerningGroup = k;
rightMetricsKey = k;
unicode = 0436;
},
{
color = 3;
glyphname = "ze-cy";
lastChange = "2023-01-13 20:59:42 +0000";
layers = (
{
background = {
paths = (
{
closed = 1;
nodes = (
"51 9 LINE",
"73 3 OFFCURVE",
"152 -10 OFFCURVE",
"227 -10 CURVE SMOOTH",
"382 -10 OFFCURVE",
"484 59 OFFCURVE",
"484 159 CURVE SMOOTH",
"484 259 OFFCURVE",
"383 320 OFFCURVE",
"256 343 CURVE",
"256 345 LINE",
"347 356 OFFCURVE",
"426 389 OFFCURVE",
"426 433 CURVE SMOOTH",
"426 468 OFFCURVE",
"369 518 OFFCURVE",
"221 518 CURVE SMOOTH",
"137 518 OFFCURVE",
"78 497 OFFCURVE",
"51 484 CURVE",
"51 334 LINE",
"56 334 LINE",
"83 430 OFFCURVE",
"157 508 OFFCURVE",
"208 508 CURVE SMOOTH",
"236 508 OFFCURVE",
"260 484 OFFCURVE",
"260 423 CURVE SMOOTH",
"260 340 OFFCURVE",
"220 286 OFFCURVE",
"180 286 CURVE SMOOTH",
"117 286 LINE",
"117 275 LINE",
"179 275 LINE SMOOTH",
"235 275 OFFCURVE",
"294 216 OFFCURVE",
"294 111 CURVE SMOOTH",
"294 38 OFFCURVE",
"262 0 OFFCURVE",
"231 0 CURVE SMOOTH",
"166 0 OFFCURVE",
"54 118 OFFCURVE",
"20 207 CURVE",
"15 206 LINE"
);
}
);
};
layerId = "5ECA14C9-9880-4A66-8675-45EB4FCF3EF2";
paths = (
{
closed = 1;
nodes = (
"51 5 LINE",
"73 -1 OFFCURVE",
"159 -14 OFFCURVE",
"227 -14 CURVE SMOOTH",
"389 -14 OFFCURVE",
"484 61 OFFCURVE",
"484 159 CURVE SMOOTH",
"484 261 OFFCURVE",
"383 318 OFFCURVE",
"260 343 CURVE",
"260 345 LINE",
"347 358 OFFCURVE",
"426 389 OFFCURVE",
"426 434 CURVE SMOOTH",
"426 474 OFFCURVE",
"361 522 OFFCURVE",
"227 522 CURVE SMOOTH",
"145 522 OFFCURVE",
"78 500 OFFCURVE",
"51 488 CURVE",
"51 338 LINE",
"56 338 LINE",
"83 434 OFFCURVE",
"156 512 OFFCURVE",
"208 512 CURVE SMOOTH",
"237 512 OFFCURVE",
"260 492 OFFCURVE",
"260 425 CURVE SMOOTH",
"260 340 OFFCURVE",
"222 286 OFFCURVE",
"188 286 CURVE SMOOTH",
"117 286 LINE",
"117 275 LINE",
"187 275 LINE SMOOTH",
"239 275 OFFCURVE",
"294 221 OFFCURVE",
"294 111 CURVE SMOOTH",
"294 29 OFFCURVE",
"268 -4 OFFCURVE",
"233 -4 CURVE SMOOTH",
"168 -4 OFFCURVE",
"54 114 OFFCURVE",
"20 203 CURVE",
"15 202 LINE"
);
}
);
width = 494;
}
);
leftKerningGroup = "ze-cy";
rightKerningGroup = "ze-cy";
unicode = 0437;
},
{
color = 3;
glyphname = "ii-cy";
lastChange = "2023-01-13 20:59:42 +0000";
layers = (
{
anchors = (
{
name = top;
position = "{333, 508}";
}
);
background = {
paths = (
{
closed = 1;
nodes = (
"494 508 LINE",
"258 206 LINE",
"258 483 LINE",
"323 507 LINE",
"323 508 LINE",
"3 508 LINE",
"3 507 LINE",
"68 483 LINE",
"68 -25 LINE",
"69 -25 LINE",
"481 445 LINE"
);
},
{
closed = 1;
nodes = (
"323 1 LINE",
"323 0 LINE",
"648 0 LINE",
"648 1 LINE",
"583 25 LINE",
"583 483 LINE",
"648 507 LINE",
"648 508 LINE",
"494 508 LINE",
"393 369 LINE",
"393 25 LINE"
);
}
);
};
layerId = "5ECA14C9-9880-4A66-8675-45EB4FCF3EF2";
paths = (
{
closed = 1;
nodes = (
"494 508 LINE",
"258 206 LINE",
"258 483 LINE",
"313 503 LINE",
"313 508 LINE",
"13 508 LINE",
"13 503 LINE",
"68 483 LINE",
"68 -25 LINE",
"71 -25 LINE",
"481 445 LINE"
);
},
{
closed = 1;
nodes = (
"333 5 LINE",
"333 0 LINE",
"638 0 LINE",
"638 5 LINE",
"583 25 LINE",
"583 483 LINE",
"638 503 LINE",
"638 508 LINE",
"494 508 LINE",
"393 369 LINE",
"393 25 LINE"
);
}
);
width = 651;
}
);
leftKerningGroup = n;
leftMetricsKey = n;
rightKerningGroup = u;
rightMetricsKey = u;
unicode = 0438;
},
{
color = 3;
glyphname = "el-cy";
lastChange = "2023-01-13 20:59:42 +0000";
layers = (
{
background = {
paths = (
{
closed = 1;
nodes = (
"-5 24 OFFCURVE",
"18 -10 OFFCURVE",
"57 -10 CURVE SMOOTH",
"102 -10 OFFCURVE",
"173 40 OFFCURVE",
"242 387 CURVE SMOOTH",
"264 497 LINE",
"353 497 LINE",
"353 25 LINE",
"298 5 LINE",
"298 0 LINE",
"598 0 LINE",
"598 5 LINE",
"543 25 LINE",
"543 483 LINE",
"598 503 LINE",
"598 508 LINE",
"137 508 LINE",
"137 503 LINE",
"192 483 LINE",
"198 422 OFFCURVE",
"203 366 OFFCURVE",
"203 310 CURVE SMOOTH",
"203 216 OFFCURVE",
"179 152 OFFCURVE",
"90 152 CURVE SMOOTH",
"70 152 OFFCURVE",
"49 155 OFFCURVE",
"31 158 CURVE SMOOTH",
"13 161 LINE",
"5 143 OFFCURVE",
"-5 115 OFFCURVE",
"-5 81 CURVE SMOOTH"
);
}
);
};
layerId = "5ECA14C9-9880-4A66-8675-45EB4FCF3EF2";
paths = (
{
closed = 1;
nodes = (
"-5 16 OFFCURVE",
"18 -10 OFFCURVE",
"53 -10 CURVE SMOOTH",
"102 -10 OFFCURVE",
"173 40 OFFCURVE",
"242 387 CURVE SMOOTH",
"264 497 LINE",
"353 497 LINE",
"353 25 LINE",
"298 5 LINE",
"298 0 LINE",
"598 0 LINE",
"598 5 LINE",
"543 25 LINE",
"543 483 LINE",
"598 503 LINE",
"598 508 LINE",
"140 508 LINE",
"140 503 LINE",
"195 483 LINE",
"200 426 OFFCURVE",
"204 373 OFFCURVE",
"204 327 CURVE SMOOTH",
"204 222 OFFCURVE",
"181 152 OFFCURVE",
"90 152 CURVE SMOOTH",
"70 152 OFFCURVE",
"51 155 OFFCURVE",
"33 158 CURVE SMOOTH",
"15 161 LINE",
"7 143 OFFCURVE",
"-5 105 OFFCURVE",
"-5 67 CURVE SMOOTH"
);
}
);
width = 611;
}
);
leftKerningGroup = "el-cy";
rightKerningGroup = u;
rightMetricsKey = u;
unicode = 043B;
},
{
color = 3;
glyphname = "em-cy";
lastChange = "2023-01-13 20:59:42 +0000";
layers = (
{
anchors = (
{
name = bottom;
position = "{304, 0}";
},
{
name = top;
position = "{377, 508}";
}
);
background = {
paths = (
{
closed = 1;
nodes = (
"215 0 LINE",
"215 5 LINE",
"195 9 LINE SMOOTH",
"101 28 OFFCURVE",
"62 74 OFFCURVE",
"90 349 CURVE SMOOTH",
"102 467 LINE",
"334 -25 LINE",
"337 -25 LINE",
"524 438 LINE",
"567 25 LINE",
"502 5 LINE",
"502 0 LINE",
"802 0 LINE",
"802 5 LINE",
"757 25 LINE",
"708 483 LINE",
"763 503 LINE",
"763 508 LINE",
"545 508 LINE",
"418 234 LINE",
"289 508 LINE",
"41 508 LINE",
"41 503 LINE",
"92 475 LINE",
"43 25 LINE",
"-1 5 LINE",
"-1 0 LINE"
);
}
);
};
layerId = "5ECA14C9-9880-4A66-8675-45EB4FCF3EF2";
paths = (
{
closed = 1;
nodes = (
"221 0 LINE",
"221 5 LINE",
"201 9 LINE SMOOTH",
"107 28 OFFCURVE",
"66 74 OFFCURVE",
"96 349 CURVE SMOOTH",
"108 460 LINE",
"109 460 LINE",
"334 -25 LINE",
"337 -25 LINE",
"524 438 LINE",
"525 438 LINE",
"567 25 LINE",
"502 5 LINE",
"502 0 LINE",
"802 0 LINE",
"802 5 LINE",
"757 25 LINE",
"708 483 LINE",
"763 503 LINE",
"763 508 LINE",
"545 508 LINE",
"420 234 LINE",
"419 234 LINE",
"292 508 LINE",
"47 508 LINE",
"47 503 LINE",
"98 475 LINE",
"49 25 LINE",
"5 5 LINE",
"5 0 LINE"
);
}
);
width = 807;
}
);
leftKerningGroup = "em-cy";
rightKerningGroup = "em-cy";
unicode = 043C;
},
